{
.appVersion = "3133";
.formatVersion = 3;
axes = (
{
name = Weight;
tag = wght;
}
);
classes = (
{
code = "kaf-ar.init kaf-ar.medi
";
name = kaf_init;
},
{
code = "kaf-ar.init.calt kaf-ar.medi.calt";
name = kaf_calt;
},
{
code = "alef-ar.fina alefHamzaabove-ar.fina alefHamzabelow-ar.fina alefMadda-ar.fina alefWasla-ar.fina";
name = alef_fina;
},
{
code = "behDotless-ar.init beh-ar.init alefMaksura-ar.init peh-ar.init teh-ar.init theh-ar.init tteh-ar.init noon-ar.init noonThreedotsabove-ar.init yeh-ar.init yehFarsi-ar.init yehThreedotsbelow-ar.init
";
name = beh_init;
},
{
code = "behDotless-ar.medi beh-ar.medi alefMaksura-ar.medi peh-ar.medi teh-ar.medi theh-ar.medi tteh-ar.medi noon-ar.medi noonThreedotsabove-ar.medi yeh-ar.medi yehFarsi-ar.medi yehThreedotsbelow-ar.medi
";
name = beh_medi;
},
{
code = "behDotless-ar.medi.calt beh-ar.medi.calt alefMaksura-ar.medi.calt peh-ar.medi.calt teh-ar.medi.calt theh-ar.medi.calt tteh-ar.medi.calt noon-ar.medi.calt noonThreedotsabove-ar.medi.calt yeh-ar.medi.calt yehFarsi-ar.medi.calt yehThreedotsbelow-ar.medi.calt
";
name = beh_calt;
}
);
customParameters = (
{
name = "Use Typo Metrics";
value = 1;
},
{
name = "gasp Table";
value = {
};
},
{
name = fsType;
value = (
);
},
{
name = "Use Line Breaks";
value = 1;
}
);
date = "2022-06-21 02:34:04 +0000";
familyName = Marhey;
featurePrefixes = (
{
automatic = 1;
code = "languagesystem DFLT dflt;

languagesystem arab dflt;

languagesystem latn dflt;
languagesystem latn AZE;
languagesystem latn CRT;
languagesystem latn KAZ;
languagesystem latn TAT;
languagesystem latn TRK;
languagesystem latn ROM;
languagesystem latn MOL;
languagesystem latn NLD;
";
name = Languagesystems;
}
);
features = (
{
automatic = 1;
code = "feature locl;
feature subs;
feature sinf;
feature sups;
feature numr;
feature dnom;
feature frac;
feature ordn;
feature init;
feature medi;
feature fina;
feature salt;
feature calt;
";
tag = aalt;
},
{
automatic = 1;
code = "lookup ccmp_Other_1 {

glyphs = (
{
color = 0;
glyphname = A;
kernLeft = Aupper_1;
kernRight = Aupper_2;
lastChange = "2022-08-23 06:37:50 +0000";
layers = (
{
anchors = (
{
name = bottom;
pos = (384,0);
},
{
name = ogonek;
pos = (615,16);
},
{
name = top;
pos = (408,800);
}
);
guides = (
{
pos = (247,-11);
}
);
layerId = m002;
name = Black;
shapes = (
{
closed = 1;
nodes = (
(647,14,l),
(698,435,o),
(637,766,o),
(406,766,cs),
(153,766,o),
(75,442,o),
(99,-7,c),
(210,2,l),
(175,249,o),
(174,706,o),
(405,706,cs),
(654,706,o),
(563,167,o),
(540,1,c)
);
},
{
closed = 1;
nodes = (
(309,184,o),
(457,187,o),
(605,215,c),
(596,278,l),
(473,255,o),
(330,244,o),
(171,274,c),
(139,199,l)
);
}
);
width = 759;
},
{
anchors = (
{
name = bottom;
pos = (387,0);
},
{
name = ogonek;
pos = (659,16);
},
{
name = top;
pos = (415,800);
}
);
guides = (
{
pos = (249,-11);
}
);
layerId = m003;
name = Black;
shapes = (
{
closed = 1;
nodes = (
(696,14,l),
(756,435,o),
(685,766,o),
(413,766,cs),
(115,766,o),
(23,442,o),
(52,-7,c),
(324,20,l),
(299,255,o),
(296,670,o),
(417,670,cs),
(548,670,o),
(480,105,o),
(455,-7,c)
);
},
{
closed = 1;
nodes = (
(317,135,o),
(520,133,o),
(647,193,c),
(637,274,l),
(518,259,o),
(334,227,o),
(169,293,c),
(129,162,l)
);
}
);
width = 763;
}
);
metricLeft = I;
metricRight = I;
unicode = 65;
},
{
glyphname = AE;
kernLeft = A_1;
kernRight = E_2;
lastChange = "2022-08-23 06:38:07 +0000";
layers = (
{
anchors = (
{
name = bottom;
pos = (384,0);
},
{
name = ogonek;
pos = (615,16);
},
{
name = top;
pos = (408,800);
}
);
layerId = m002;
name = Black;
shapes = (
{
closed = 1;
nodes = (
(647,14,l),
(698,435,o),
(637,766,o),
(406,766,cs),
(153,766,o),
(75,452,o),
(99,3,c),
(210,12,l),
(175,259,o),
(174,706,o),
(405,706,cs),
(654,706,o),
(573,167,o),
(550,1,c)
);
},
{
closed = 1;
nodes = (
(309,293,o),
(457,296,o),
(605,324,c),
(596,390,l),
(473,367,o),
(330,356,o),
(171,386,c),
(139,308,l)
);
},
{
closed = 1;
nodes = (
(996,83,l),
(853,69,o),
(700,44,o),
(594,59,c),
(550,1,l),
(681,-11,o),
(893,-5,o),
(996,-5,c)
);
},
{
closed = 1;
nodes = (
(882,409,l),
(801,407,o),
(695,404,o),
(589,390,c),
(589,331,l),
(709,340,o),
(794,338,o),
(885,329,c)
);
},
{
closed = 1;
nodes = (
(979,770,l),
(880,767,o),
(568,766,o),
(406,766,c),
(487,705,l),
(578,708,o),
(836,705,o),
(979,684,c)
);
}
);
width = 1041;
},
{
anchors = (
{
name = bottom;
pos = (387,0);
},
{
name = ogonek;
pos = (659,16);
},
{
name = top;
pos = (415,800);
}
);
layerId = m003;
name = Black;
shapes = (
{
closed = 1;
nodes = (
(696,14,l),
(756,435,o),
(685,766,o),
(413,766,cs),
(115,766,o),
(23,452,o),
(52,3,c),
(324,20,l),
(299,255,o),
(296,670,o),
(417,670,cs),
(548,670,o),
(477,112,o),
(452,0,c)
);
},
{
closed = 1;
nodes = (
(317,246,o),
(520,244,o),
(647,304,c),
(637,385,l),
(518,370,o),
(334,338,o),
(169,404,c),
(129,273,l)
);
},
{
closed = 1;
nodes = (
(1084,161,l),
(916,137,o),
(628,118,o),
(503,118,c),
(452,0,l),
(566,-12,o),
(963,-5,o),
(1084,-5,c)
);
},
{
closed = 1;
nodes = (
(950,424,l),
(869,422,o),
(760,415,o),
(653,401,c),
(654,289,l),
(775,301,o),
(877,304,o),
(953,288,c)
);
},
{
closed = 1;
nodes = (
(1064,770,l),
(947,767,o),
(645,766,o),
(413,766,c),
(530,637,l),
(616,637,o),
(855,626,o),
(1064,584,c)
);
}
);
width = 1111;
}
);
metricLeft = A;
metricRight = E;
unicode = 198;
},
{
color = 3;
glyphname = B;
kernLeft = I_1;
kernRight = B_2;
lastChange = "2022-08-23 06:31:59 +0000";
layers = (
{
guides = (
{
pos = (-57,485);
},
{
pos = (-57,165);
}
);
layerId = m002;
name = Black;
shapes = (
{
closed = 1;
nodes = (
(506,378,o),
(621,483,o),
(621,632,cs),
(621,726,o),
(570,798,o),
(460,798,cs),
(370,798,o),
(222,735,o),
(168,582,c),
(193,523,l),
(230,651,o),
(349,698,o),
(429,698,cs),
(492,698,o),
(531,659,o),
(531,612,cs),
(531,520,o),
(445,433,o),
(160,357,c),
(193,305,l)
);
},
{
closed = 1;
nodes = (
(212,0,l),
(219,255,o),
(220,461,o),
(205,748,c),
(95,730,l),
(119,536,o),
(127,259,o),
(118,-4,c)
);
},
{
closed = 1;
nodes = (
(542,0,o),
(689,111,o),
(689,259,cs),
(689,465,o),
(404,449,o),
(193,329,c),
(189,291,l),
(327,342,o),
(587,410,o),
(587,244,cs),
(587,163,o),
(485,58,o),
(156,58,c),
(212,0,l)
);
}
);
width = 754;
},
{
guides = (
{
pos = (-53,485);
},
{
pos = (-53,165);
}
);
layerId = m003;
name = Black;
shapes = (
{
closed = 1;
nodes = (
(583,377,o),
(685,499,o),
(685,620,cs),
(685,719,o),
(617,771,o),
(519,771,cs),
(386,771,o),
(299,685,o),
(254,584,c),
(274,509,l),
(317,568,o),
(372,594,o),
(414,594,cs),
(449,594,o),
(474,576,o),
(474,543,cs),
(474,500,o),
(465,453,o),
(276,388,c),
(305,308,l)
);
},
{
closed = 1;
nodes = (
(278,0,l),
(320,316,o),
(324,437,o),
(324,767,c),
(47,725,l),
(80,435,o),
(84,277,o),
(74,-8,c)
);
},
{
closed = 1;
nodes = (
(623,32,o),
(745,147,o),
(745,294,cs),
(745,477,o),
(470,475,o),
(310,378,c),
(305,305,l),
(367,319,o),
(496,307,o),
(496,230,cs),
(496,147,o),
(370,124,o),
(254,124,c),
(278,0,l)
);
}
);
width = 777;
}
);
metricLeft = I;
unicode = 66;
},
{
color = 3;
glyphname = C;
kernLeft = O_1;
kernRight = C_2;
lastChange = "2022-08-23 06:31:59 +0000";
layers = (
{
anchors = (
{
name = bottom;
pos = (434,-2);
},
{
name = cedilla;
pos = (454,28);
},
{
name = top;
pos = (460,800);
}
);
guides = (
{
pos = (19,497);
},
{
pos = (19,165);
}
);
layerId = m002;
name = Black;
shapes = (
{
closed = 1;
nodes = (
(477,-2,o),
(543,9,o),
(604,46,c),
(603,109,l),
(543,78,o),
(490,64,o),
(409,64,cs),
(287,64,o),
(165,164,o),
(165,353,cs),
(165,539,o),
(292,661,o),
(446,661,cs),
(501,661,o),
(560,650,o),
(617,622,c),
(628,700,l),
(579,731,o),
(512,748,o),
(441,748,cs),
(264,748,o),
(65,638,o),
(65,356,cs),
(65,138,o),
(231,-2,o),
(412,-2,cs)
);
}
);
width = 673;
},
{
anchors = (
{
name = bottom;
pos = (451,-2);
},
{
name = cedilla;
pos = (471,28);
},
{
name = top;
pos = (477,800);
}
);
guides = (
{
pos = (36,497);
},
{
pos = (36,165);
}
);
layerId = m003;
name = Black;
shapes = (
{
closed = 1;
nodes = (
(517,-2,o),
(595,16,o),
(667,54,c),
(667,152,l),
(616,130,o),
(558,117,o),
(503,117,cs),
(400,117,o),
(299,161,o),
(299,345,cs),
(299,460,o),
(385,557,o),
(517,557,cs),
(567,557,o),
(620,549,o),
(671,531,c),
(695,700,l),
(637,731,o),
(558,748,o),
(475,748,cs),
(267,748,o),
(32,638,o),
(32,356,cs),
(32,138,o),
(228,-2,o),
(441,-2,cs)
);
}
);
width = 722;
}
);
metricLeft = O;
unicode = 67;
},
{
color = 3;
glyphname = D;
kernLeft = I_1;
kernRight = D_2;
lastChange = "2022-08-23 06:38:16 +0000";
layers = (
{
anchors = (
{
name = bottom;
pos = (240,0);
},
{
name = center;
pos = (240,325);
},
{
name = top;
pos = (395,800);
}
);
layerId = m002;
name = Black;
shapes = (
{
closed = 1;
nodes = (
(161,493,l),
(248,644,o),
(390,675,o),
(459,675,cs),
(562,675,o),
(596,580,o),
(596,506,cs),
(596,351,o),
(425,117,o),
(195,51,c),
(212,0,l),
(494,85,o),
(699,336,o),
(699,522,cs),
(699,668,o),
(619,758,o),
(488,758,cs),
(351,758,o),
(197,679,o),
(120,559,c)
);
},
{
closed = 1;
nodes = (
(212,0,l),
(219,255,o),
(220,461,o),
(205,748,c),
(95,730,l),
(119,536,o),
(127,259,o),
(118,-4,c)
);
}
);
width = 764;
},
{
anchors = (
{
name = bottom;
pos = (244,0);
},
{
name = center;
pos = (244,325);
},
{
name = top;
pos = (399,800);
}
);
layerId = m003;
name = Black;
shapes = (
{
closed = 1;
nodes = (
(179,446,l),
(267,591,o),
(347,626,o),
(426,626,cs),
(493,626,o),
(533,565,o),
(533,491,cs),
(533,379,o),
(458,227,o),
(273,125,c),
(278,0,l),
(596,117,o),
(756,325,o),
(756,497,cs),
(756,643,o),
(662,758,o),
(508,758,cs),
(395,758,o),
(259,728,o),
(114,542,c)
);
},
{
closed = 1;
nodes = (
(278,0,l),
(320,316,o),
(324,437,o),
(324,767,c),
(47,725,l),
(79,445,o),
(84,284,o),
(74,-8,c)
);
}
);
width = 788;
}
);
metricLeft = I;
metricRight = O;
unicode = 68;
},
{
glyphname = Eth;
kernLeft = Eth;
kernRight = D_2;
lastChange = "2022-08-23 06:38:27 +0000";
layers = (
{
layerId = m002;
name = Black;
shapes = (
{
ref = D;
},
{
closed = 1;
nodes = (
(398,310,l),
(398,373,l),
(20,384,l),
(19,298,l)
);
}
);
width = 764;
},
{
layerId = m003;
name = Black;
shapes = (
{
ref = D;
},
{
closed = 1;
nodes = (
(432,295,l),
(432,388,l),
(-13,404,l),
(-15,278,l)
);
}
);
width = 788;
}
);
metricRight = O;
unicode = 208;
},
{
color = 3;
glyphname = E;
kernLeft = I_1;
kernRight = E_2;
lastChange = "2022-08-23 06:31:59 +0000";
layers = (
{
anchors = (
{
name = bottom;
pos = (352,-30);
},
{
name = ogonek;
pos = (567,7);
},
{
name = top;
pos = (352,800);
}
);
layerId = m002;
name = Black;
shapes = (
{
closed = 1;
nodes = (
(201,28,l),
(208,283,o),
(220,452,o),
(205,739,c),
(95,736,l),
(119,542,o),
(124,235,o),
(111,15,c)
);
},
{
closed = 1;
nodes = (
(583,83,l),
(440,69,o),
(261,58,o),
(155,73,c),
(111,15,l),
(242,3,o),
(480,-5,o),
(583,-5,c)
);
},
{
closed = 1;
nodes = (
(469,404,l),
(388,402,o),
(282,399,o),
(176,385,c),
(176,326,l),
(296,335,o),
(381,333,o),
(472,324,c)
);
},
{
closed = 1;
nodes = (
(566,770,l),
(467,767,o),
(203,749,o),
(95,736,c),
(176,681,l),
(242,690,o),
(423,705,o),
(566,684,c)
);
}
);
width = 628;
},
{
anchors = (
{
name = bottom;
pos = (347,-30);
},
{
name = ogonek;
pos = (562,7);
},
{
name = top;
pos = (347,800);
}
);
layerId = m003;
name = Black;
shapes = (
{
closed = 1;
nodes = (
(269,47,l),
(313,343,o),
(314,443,o),
(314,714,c),
(47,736,l),
(78,437,o),
(78,325,o),
(66,13,c)
);
},
{
closed = 1;
nodes = (
(621,161,l),
(453,137,o),
(242,131,o),
(117,131,c),
(66,13,l),
(239,1,o),
(500,-5,o),
(621,-5,c)
);
},
{
closed = 1;
nodes = (
(487,424,l),
(406,422,o),
(297,415,o),
(190,401,c),
(191,289,l),
(312,301,o),
(414,304,o),
(490,288,c)
);
},
{
closed = 1;
nodes = (
(601,770,l),
(484,767,o),
(174,749,o),
(47,736,c),
(142,607,l),
(228,607,o),
(433,618,o),
(601,584,c)
);
}
);
width = 648;
}
);
metricLeft = I;
unicode = 69;
},
{
color = 3;
glyphname = F;
kernLeft = I_1;
kernRight = F_2;
lastChange = "2022-08-23 06:31:59 +0000";
layers = (
{
layerId = m002;
name = Black;
shapes = (
{
closed = 1;
nodes = (
(201,17,l),
(208,272,o),
(220,452,o),
(205,739,c),
(95,736,l),
(119,542,o),
(124,224,o),
(111,4,c)
);
},
{
closed = 1;
nodes = (
(452,404,l),
(374,402,o),
(273,399,o),
(172,385,c),
(172,326,l),
(287,335,o),
(368,333,o),
(454,324,c)
);
},
{
closed = 1;
nodes = (
(545,770,l),
(451,767,o),
(198,749,o),
(95,736,c),
(172,681,l),
(235,690,o),
(409,705,o),
(545,684,c)
);
}
);
width = 590;
},
{
layerId = m003;
name = Black;
shapes = (
{
closed = 1;
nodes = (
(269,39,l),
(313,335,o),
(324,443,o),
(324,714,c),
(47,736,l),
(78,437,o),
(78,317,o),
(66,5,c)
);
},
{
closed = 1;
nodes = (
(480,424,l),
(404,408,o),
(312,411,o),
(191,423,c),
(190,311,l),
(297,297,o),
(396,290,o),
(477,288,c)
);
},
{
closed = 1;
nodes = (
(591,770,l),
(474,767,o),
(174,749,o),
(47,736,c),
(142,607,l),
(228,607,o),
(403,628,o),
(571,584,c)
);
}
);
width = 618;
}
);
metricLeft = I;
unicode = 70;
},
{
color = 3;
glyphname = G;
kernLeft = O_1;
kernRight = G_2;
lastChange = "2022-08-23 06:31:59 +0000";
layers = (
{
anchors = (
{
name = bottom;
pos = (368,-30);
},
{
name = top;
pos = (491,800);
}
);
layerId = m002;
name = Black;
shapes = (
{
closed = 1;
nodes = (
(543,0,o),
(720,144,o),
(720,286,cs),
(720,400,o),
(663,444,o),
(572,444,cs),
(519,444,o),
(455,426,o),
(387,384,c),
(415,278,l),
(462,316,o),
(532,351,o),
(588,351,cs),
(637,351,o),
(666,326,o),
(666,270,cs),
(666,196,o),
(559,80,o),
(380,80,cs),
(265,80,o),
(164,159,o),
(164,309,cs),
(164,551,o),
(329,695,o),
(468,695,cs),
(532,695,o),
(577,689,o),
(626,668,c),
(626,729,l),
(576,746,o),
(527,754,o),
(481,754,cs),
(230,754,o),
(65,518,o),
(65,312,cs),
(65,147,o),
(155,0,o),
(370,0,cs)
);
}
);
width = 785;
},
{
anchors = (
{
name = bottom;
pos = (371,-30);
},
{
name = top;
pos = (494,800);
}
);
layerId = m003;
name = Black;
shapes = (
{
closed = 1;
nodes = (
(528,0,o),
(759,144,o),
(759,345,cs),
(759,450,o),
(677,513,o),
(576,513,cs),
(517,513,o),
(446,495,o),
(370,453,c),
(427,254,l),
(480,292,o),
(563,333,o),
(610,333,cs),
(631,333,o),
(644,325,o),
(644,305,cs),
(644,231,o),
(535,192,o),
(439,192,cs),
(311,192,o),
(272,275,o),
(272,368,cs),
(272,481,o),
(342,607,o),
(506,607,cs),
(551,607,o),
(600,598,o),
(655,577,c),
(655,729,l),
(599,746,o),
(545,754,o),
(494,754,cs),
(215,754,o),
(32,518,o),
(32,312,cs),
(32,147,o),
(132,0,o),
(371,0,cs)
);
}
);
width = 791;
}
);
metricLeft = O;
unicode = 71;
},
{
color = 0;
glyphname = H;
kernLeft = I_1;
kernRight = I_2;
lastChange = "2022-08-23 06:38:45 +0000";
layers = (
{
guides = (
{
angle = 0.8249;
pos = (-59,229);
showMeasurement = 1;
}
);
layerId = m002;
name = Black;
shapes = (
{
closed = 1;
nodes = (
(201,7,l),
(218,232,o),
(220,517,o),
(205,757,c),
(95,734,l),
(124,472,o),
(126,258,o),
(118,-9,c)
);
},
{
closed = 1;
nodes = (
(671,424,l),
(531,368,o),
(246,378,o),
(145,392,c),
(138,332,l),
(271,312,o),
(543,309,o),
(702,338,c)
);
},
{
closed = 1;
nodes = (
(706,7,l),
(723,232,o),
(725,517,o),
(710,757,c),
(600,734,l),
(630,472,o),
(631,258,o),
(623,-9,c)
);
}
);
width = 815;
},
{
guides = (
{
angle = 0.8249;
pos = (-51,229);
showMeasurement = 1;
}
);
layerId = m003;
name = Black;
shapes = (
{
closed = 1;
nodes = (
(278,18,l),
(318,318,o),
(328,492,o),
(324,767,c),
(47,725,l),
(77,463,o),
(84,249,o),
(74,-18,c)
);
},
{
closed = 1;
nodes = (
(722,456,l),
(557,391,o),
(225,398,o),
(106,412,c),
(96,341,l),
(223,299,o),
(574,306,o),
(762,335,c)
);
},
{
closed = 1;
nodes = (
(759,30,l),
(793,348,o),
(795,482,o),
(785,750,c),
(509,700,l),
(552,398,o),
(556,304,o),
(556,-12,c)
);
}
);
width = 837;
}
);
metricLeft = I;
metricRight = I;
unicode = 72;
},
{
glyphname = Hbar;
lastChange = "2022-08-23 06:31:59 +0000";
layers = (
{
layerId = m002;
name = Black;
shapes = (
{
closed = 1;
nodes = (
(814,593,l),
(806,659,l),
(-5,617,l),
(2,527,l)
);
},
{
ref = H;
}
);
width = 837;
},
{
layerId = m003;
name = Black;
shapes = (
{
closed = 1;
nodes = (
(814,592,l),
(806,685,l),
(-5,627,l),
(2,501,l)
);
},
{
ref = H;
}
);
width = 837;
}
);
unicode = 294;
},
{
color = 0;
glyphname = I;
kernLeft = I_1;
kernRight = I_2;
lastChange = "2022-08-23 06:31:59 +0000";
layers = (
{
anchors = (
{
name = bottom;
pos = (167,-30);
},
{
name = ogonek;
pos = (198,7);
},
{
name = top;
pos = (140,800);
}
);
layerId = m002;
name = Black;
shapes = (
{
closed = 1;
nodes = (
(198,7,l),
(215,232,o),
(222,515,o),
(207,755,c),
(95,734,l),
(126,475,o),
(126,259,o),
(118,-8,c)
);
}
);
width = 310;
},
{
anchors = (
{
name = bottom;
pos = (195,-30);
},
{
name = ogonek;
pos = (261,15);
},
{
name = top;
pos = (168,800);
}
);
layerId = m003;
name = Black;
shapes = (
{
closed = 1;
nodes = (
(278,18,l),
(318,318,o),
(328,492,o),
(324,767,c),
(47,725,l),
(77,463,o),
(84,249,o),
(74,-18,c)
);
}
);
width = 372;
}
);
unicode = 73;
},
{
color = 0;
glyphname = J;
kernLeft = J_1;
kernRight = J_2;
lastChange = "2022-08-23 06:38:56 +0000";
layers = (
{
anchors = (
{
name = bottom;
pos = (250,0);
},
{
name = top;
pos = (250,800);
}
);
layerId = m002;
name = Black;
shapes = (
{
closed = 1;
nodes = (
(351,88,o),
(364,305,cs),
(372,444,o),
(370,608,o),
(362,768,c),
(244,740,l),
(276,503,o),
(278,392,o),
(278,300,cs),
(278,178,o),
(267,94,o),
(128,94,cs),
(105,94,o),
(78,97,o),
(45,105,c),
(52,-3,l),
(241,-3,o)
);
}
);
width = 464;
},
{
anchors = (
{
name = bottom;
pos = (269,0);
},
{
name = top;
pos = (269,800);
}
);
layerId = m003;
name = Black;
shapes = (
{
closed = 1;
nodes = (
(415,194,o),
(415,511,cs),
(415,594,o),
(411,682,o),
(409,768,c),
(153,740,l),
(196,569,o),
(231,416,o),
(231,324,cs),
(231,240,o),
(202,205,o),
(125,205,cs),
(98,205,o),
(66,209,o),
(27,217,c),
(45,-3,l),
(361,-24,o)
);
}
);
width = 462;
}
);
metricRight = I;
unicode = 74;
},
{
color = 3;
glyphname = K;
kernLeft = I_1;
kernRight = K_2;
lastChange = "2022-08-23 06:31:59 +0000";
layers = (
{
anchors = (
{
name = bottom;
pos = (370,0);
},
{
name = top;
pos = (370,800);
}
);
layerId = m002;
name = Black;
shapes = (
{
closed = 1;
nodes = (
(201,5,l),
(218,230,o),
(222,515,o),
(207,755,c),
(95,734,l),
(126,475,o),
(126,259,o),
(118,-8,c)
);
},
{
closed = 1;
nodes = (
(237,361,o),
(427,615,o),
(657,650,c),
(649,750,l),
(408,710,o),
(237,470,o),
(186,207,c),
(201,5,l)
);
},
{
closed = 1;
nodes = (
(671,14,l),
(616,271,o),
(472,372,o),
(311,429,c),
(269,346,l),
(405,325,o),
(535,180,o),
(563,0,c)
);
}
);
width = 706;
},
{
anchors = (
{
name = bottom;
pos = (398,0);
},
{
name = top;
pos = (398,800);
}
);
layerId = m003;
name = Black;
shapes = (
{
closed = 1;
nodes = (
(278,18,l),
(318,318,o),
(338,492,o),
(334,767,c),
(47,735,l),
(77,473,o),
(84,249,o),
(74,-18,c)
);
},
{
closed = 1;
nodes = (
(315,336,o),
(504,486,o),
(735,502,c),
(726,750,l),
(494,696,o),
(313,439,o),
(278,274,c),
(278,18,l)
);
},
{
closed = 1;
nodes = (
(752,37,l),
(710,291,o),
(536,385,o),
(417,419,c),
(339,293,l),
(412,265,o),
(462,139,o),
(462,0,c)
);
}
);
width = 774;
}
);
metricLeft = I;
unicode = 75;
},
{
color = 3;
glyphname = L;
kernLeft = I_1;
kernRight = L_2;
lastChange = "2022-08-23 06:31:59 +0000";
layers = (
{
anchors = (
{
name = bottom;
pos = (345,-30);
},
{
name = center;
pos = (307,325);
},
{
name = top;
pos = (205,800);
},
{
name = topright;
pos = (440,720);
}
);
layerId = m002;
name = Black;
shapes = (
{
closed = 1;
nodes = (
(205,28,l),
(216,280,o),
(225,470,o),
(205,754,c),
(95,745,l),
(132,495,o),
(128,235,o),
(115,15,c)
);
},
{
closed = 1;
nodes = (
(521,103,l),
(378,66,o),
(257,49,o),
(159,69,c),
(115,15,l),
(283,-14,o),
(416,7,o),
(531,15,c)
);
}
);
width = 576;
},
{
anchors = (
{
name = bottom;
pos = (336,-30);
},
{
name = center;
pos = (298,325);
},
{
name = top;
pos = (196,800);
},
{
name = topright;
pos = (431,720);
}
);
layerId = m003;
name = Black;
shapes = (
{
closed = 1;
nodes = (
(227,54,l),
(289,280,o),
(324,478,o),
(324,759,c),
(47,745,l),
(98,436,o),
(98,337,o),
(66,25,c)
);
},
{
closed = 1;
nodes = (
(541,181,l),
(373,137,o),
(242,123,o),
(117,143,c),
(66,25,l),
(180,-7,o),
(440,-5,o),
(561,15,c)
);
}
);
width = 588;
}
);
metricLeft = I;
unicode = 76;
},
{
glyphname = Lslash;
kernRight = L_2;
lastChange = "2022-08-23 06:31:59 +0000";
layers = (
{
layerId = m002;
name = Black;
shapes = (
{
ref = L;
},
{
closed = 1;
nodes = (
(399,439,l),
(368,494,l),
(-5,249,l),
(35,176,l)
);
}
);
width = 576;
},
{
layerId = m003;
name = Black;
shapes = (
{
ref = L;
},
{
closed = 1;
nodes = (
(405,414,l),
(359,494,l),
(-35,286,l),
(26,176,l)
);
}
);
width = 588;
}
);
metricRight = L;
unicode = 321;
},
{
color = 0;
glyphname = M;
kernLeft = I_1;
kernRight = Aupper_2;
lastChange = "2022-08-23 06:39:10 +0000";
layers = (
{
layerId = m002;
name = Black;
shapes = (
{
closed = 1;
nodes = (
(201,7,l),
(218,232,o),
(222,515,o),
(207,755,c),
(95,734,l),
(126,475,o),
(126,259,o),
(118,-8,c)
);
},
{
closed = 1;
nodes = (
(626,13,l),
(638,426,o),
(620,760,o),
(416,760,cs),
(283,760,o),
(191,647,o),
(149,229,c),
(212,228,l),
(218,498,o),
(303,680,o),
(389,680,cs),
(527,680,o),
(546,282,o),
(520,-5,c)
);
},
{
closed = 1;
nodes = (
(1081,14,l),
(1100,381,o),
(1048,766,o),
(836,766,cs),
(647,766,o),
(591,369,o),
(588,173,c),
(626,13,l),
(646,394,o),
(710,680,o),
(823,680,cs),
(945,680,o),
(1004,350,o),
(973,-2,c)
);
}
);
width = 1180;
},
{
layerId = m003;
name = Black;
shapes = (
{
closed = 1;
nodes = (
(278,18,l),
(323,359,o),
(324,469,o),
(324,767,c),
(47,725,l),
(79,442,o),
(84,274,o),
(74,-18,c)
);
},
{
closed = 1;
nodes = (
(764,33,l),
(764,426,o),
(692,760,o),
(478,760,cs),
(349,760,o),
(252,610,o),
(209,192,c),
(303,228,l),
(331,503,o),
(375,650,o),
(460,650,cs),
(572,650,o),
(516,144,o),
(490,-8,c)
);
},
{
closed = 1;
nodes = (
(1216,24,l),
(1238,359,o),
(1175,766,o),
(913,766,cs),
(678,766,o),
(654,443,o),
(650,247,c),
(764,33,l),
(777,192,o),
(756,650,o),
(880,650,cs),
(1006,650,o),
(967,69,o),
(952,-7,c)
);
}
);
width = 1267;
}
);
metricLeft = I;
metricRight = I;
unicode = 77;
},
{
color = 0;
glyphname = N;
kernLeft = I_1;
kernRight = I_2;
lastChange = "2022-08-23 06:39:23 +0000";
layers = (
{
anchors = (
{
name = bottom;
pos = (430,-30);
},
{
name = top;
pos = (370,800);
}
);
layerId = m002;
name = Black;
shapes = (
{
closed = 1;
nodes = (
(808,0,o),
(720,595,o),
(658,800,c),
(552,770,l),
(621,513,o),
(695,61,o),
(545,61,cs),
(405,61,o),
(273,467,o),
(206,727,c),
(150,587,l),
(208,354,o),
(389,0,o),
(552,0,cs)
);
},
{
closed = 1;
nodes = (
(201,59,o),
(197,376,o),
(186,592,c),
(206,727,l),
(102,712,l),
(113,484,o),
(113,230,o),
(95,0,c),
(202,0,l)
);
}
);
width = 819;
},
{
anchors = (
{
name = bottom;
pos = (437,-30);
},
{
name = top;
pos = (377,800);
}
);
layerId = m003;
name = Black;
shapes = (
{
closed = 1;
nodes = (
(955,0,o),
(852,595,o),
(779,800,c),
(525,733,l),
(578,566,o),
(721,111,o),
(621,111,cs),
(542,111,o),
(412,482,o),
(333,742,c),
(232,514,l),
(255,391,o),
(441,0,o),
(654,0,cs)
);
},
{
closed = 1;
nodes = (
(323,52,o),
(294,311,o),
(284,532,c),
(333,742,l),
(57,704,l),
(76,476,o),
(69,230,o),
(47,0,c),
(324,-6,l)
);
}
);
width = 904;
}
);
metricLeft = I;
metricRight = I;
unicode = 78;
},
{
color = 3;
glyphname = O;
kernLeft = O_1;
kernRight = O_2;
lastChange = "2022-08-23 06:31:59 +0000";
layers = (
{
anchors = (
{
name = bottom;
pos = (401,-30);
},
{
name = top;
pos = (399,800);
}
);
guides = (
{
pos = (586,168);
},
{
pos = (586,482);
}
);
layerId = m002;
name = Black;
shapes = (
{
closed = 1;
nodes = (
(621,-13,o),
(735,179,o),
(735,372,cs),
(735,565,o),
(620,759,o),
(399,759,cs),
(180,759,o),
(65,562,o),
(65,368,cs),
(65,176,o),
(176,-13,o),
(401,-13,cs)
);
},
{
closed = 1;
nodes = (
(249,71,o),
(156,227,o),
(156,402,cs),
(156,566,o),
(231,710,o),
(400,710,cs),
(564,710,o),
(649,562,o),
(649,400,cs),
(649,241,o),
(573,71,o),
(406,71,cs)
);
}
);
width = 800;
},
{
anchors = (
{
name = bottom;
pos = (424,-30);
},
{
name = top;
pos = (422,800);
}
);
guides = (
{
pos = (609,168);
},
{
pos = (609,482);
}
);
layerId = m003;
name = Black;
shapes = (
{
closed = 1;
nodes = (
(683,-13,o),
(817,179,o),
(817,372,cs),
(817,565,o),
(682,759,o),
(422,759,cs),
(168,759,o),
(32,562,o),
(32,368,cs),
(32,176,o),
(163,-13,o),
(424,-13,cs)
);
},
{
closed = 1;
nodes = (
(336,225,o),
(275,339,o),
(275,453,cs),
(275,570,o),
(330,672,o),
(452,672,cs),
(561,672,o),
(630,570,o),
(630,456,cs),
(630,342,o),
(562,225,o),
(441,225,cs)
);
}
);
width = 849;
}
);
unicode = 79;
},
{
glyphname = Oslash;
kernLeft = O_1;
kernRight = O_2;
lastChange = "2022-08-23 06:31:59 +0000";
layers = (
{
layerId = m002;
name = Black;
shapes = (
{
ref = O;
},
{
closed = 1;
nodes = (
(641,760,l),
(583,788,l),
(138,-29,l),
(197,-58,l)
);
}
);
width = 800;
},
{
layerId = m003;
name = Black;
shapes = (
{
ref = O;
},
{
closed = 1;
nodes = (
(681,760,l),
(573,788,l),
(178,-29,l),
(267,-58,l)
);
}
);
width = 849;
}
);
unicode = 216;
},
{
glyphname = OE;
kernLeft = O_1;
kernRight = E_2;
lastChange = "2022-08-23 06:39:39 +0000";
layers = (
{
anchors = (
{
name = bottom;
pos = (875,-30);
},
{
name = ogonek;
pos = (988,7);
},
{
name = top;
pos = (873,800);
}
);
layerId = m002;
name = Black;
shapes = (
{
closed = 1;
nodes = (
(477,-2,o),
(543,9,o),
(604,46,c),
(603,109,l),
(543,78,o),
(490,64,o),
(409,64,cs),
(287,64,o),
(165,164,o),
(165,353,cs),
(165,539,o),
(292,661,o),
(446,661,cs),
(489,661,o),
(534,654,o),
(578,638,c),
(591,719,l),
(547,738,o),
(495,748,o),
(441,748,cs),
(264,748,o),
(65,638,o),
(65,356,cs),
(65,138,o),
(231,-2,o),
(412,-2,cs)
);
},
{
closed = 1;
nodes = (
(622,28,l),
(629,283,o),
(641,452,o),
(626,739,c),
(516,736,l),
(540,542,o),
(545,235,o),
(532,15,c)
);
},
{
closed = 1;
nodes = (
(1004,83,l),
(861,69,o),
(682,58,o),
(576,73,c),
(532,15,l),
(663,3,o),
(901,-5,o),
(1004,-5,c)
);
},
{
closed = 1;
nodes = (
(890,404,l),
(809,402,o),
(703,399,o),
(597,385,c),
(597,326,l),
(717,335,o),
(802,333,o),
(893,324,c)
);
},
{
closed = 1;
nodes = (
(987,770,l),
(888,767,o),
(624,749,o),
(516,736,c),
(597,681,l),
(663,690,o),
(844,705,o),
(987,684,c)
);
}
);
width = 1049;
},
{
anchors = (
{
name = bottom;
pos = (424,-30);
},
{
name = ogonek;
pos = (994,7);
},
{
name = top;
pos = (422,800);
}
);
layerId = m003;
name = Black;
shapes = (
{
closed = 1;
nodes = (
(507,-13,o),
(577,7,o),
(634,40,c),
(520,149,l),
(494,112,o),
(459,87,o),
(415,87,cs),
(329,87,o),
(279,207,o),
(279,326,cs),
(279,449,o),
(324,557,o),
(423,557,cs),
(460,557,o),
(490,541,o),
(513,515,c),
(614,669,l),
(543,730,o),
(459,759,o),
(376,759,cs),
(199,759,o),
(32,625,o),
(32,368,cs),
(32,176,o),
(163,-13,o),
(424,-13,cs)
);
},
{
closed = 1;
nodes = (
(701,47,l),
(745,343,o),
(746,443,o),
(746,714,c),
(479,736,l),
(510,437,o),
(510,325,o),
(498,13,c)
);
},
{
closed = 1;
nodes = (
(1053,161,l),
(885,137,o),
(674,131,o),
(549,131,c),
(498,13,l),
(671,1,o),
(932,-5,o),
(1053,-5,c)
);
},
{
closed = 1;
nodes = (
(919,424,l),
(838,422,o),
(729,415,o),
(622,401,c),
(623,289,l),
(744,301,o),
(846,304,o),
(922,288,c)
);
},
{
closed = 1;
nodes = (
(1033,770,l),
(916,767,o),
(606,749,o),
(479,736,c),
(574,607,l),
(660,607,o),
(865,618,o),
(1033,584,c)
);
}
);
width = 1080;
}
);
metricLeft = O;
metricRight = E;
unicode = 338;
},
{
color = 3;
glyphname = P;
kernLeft = I_1;
lastChange = "2022-08-23 06:31:59 +0000";
layers = (
{
layerId = m002;
name = Black;
shapes = (
{
closed = 1;
nodes = (
(212,0,l),
(219,255,o),
(220,461,o),
(205,748,c),
(95,730,l),
(119,536,o),
(127,259,o),
(118,-4,c)
);
},
{
closed = 1;
nodes = (
(508,305,o),
(631,436,o),
(631,599,cs),
(631,712,o),
(570,798,o),
(460,798,cs),
(370,798,o),
(222,722,o),
(168,539,c),
(193,468,l),
(230,622,o),
(345,688,o),
(425,688,cs),
(503,688,o),
(531,631,o),
(531,575,cs),
(531,465,o),
(445,350,o),
(160,259,c),
(193,207,l)
);
}
);
width = 696;
},
{
layerId = m003;
name = Black;
shapes = (
{
closed = 1;
nodes = (
(278,0,l),
(320,316,o),
(324,437,o),
(324,767,c),
(47,725,l),
(79,445,o),
(84,284,o),
(74,-8,c)
);
},
{
closed = 1;
nodes = (
(583,309,o),
(685,441,o),
(685,588,cs),
(685,702,o),
(625,774,o),
(519,774,cs),
(423,774,o),
(323,685,o),
(261,572,c),
(265,496,l),
(306,554,o),
(358,579,o),
(399,579,cs),
(438,579,o),
(468,550,o),
(468,505,cs),
(468,461,o),
(465,377,o),
(276,316,c),
(305,222,l)
);
}
);
width = 717;
}
);
metricLeft = I;
unicode = 80;
},
{
color = 3;
glyphname = Thorn;
kernLeft = I_1;
kernRight = O_2;
lastChange = "2022-08-23 06:39:55 +0000";
layers = (
{
layerId = m002;
name = Black;
shapes = (
{
closed = 1;
nodes = (
(217,14,l),
(193,208,o),
(185,485,o),
(194,748,c),
(100,744,l),
(93,489,o),
(92,283,o),
(107,-4,c)
);
},
{
closed = 1;
nodes = (
(429,180,o),
(629,283,o),
(629,423,cs),
(629,529,o),
(542,595,o),
(423,595,cs),
(351,595,o),
(276,582,o),
(165,546,c),
(165,493,l),
(303,527,o),
(523,571,o),
(523,423,cs),
(523,326,o),
(394,235,o),
(156,235,c),
(164,180,l)
);
}
);
width = 694;
},
{
layerId = m003;
name = Black;
shapes = (
{
closed = 1;
nodes = (
(324,24,l),
(292,307,o),
(287,485,o),
(297,777,c),
(93,741,l),
(50,416,o),
(47,320,o),
(47,-18,c)
);
},
{
closed = 1;
nodes = (
(551,188,o),
(674,309,o),
(674,418,cs),
(674,517,o),
(572,606,o),
(432,606,cs),
(387,606,o),
(337,597,o),
(286,576,c),
(248,494,l),
(324,513,o),
(439,515,o),
(439,431,cs),
(439,338,o),
(347,275,o),
(197,275,c),
(221,159,l)
);
}
);
width = 706;
}
);
metricLeft = I;
unicode = 222;
},
{
color = 3;
glyphname = Q;
kernLeft = O_1;
kernRight = O_2;
lastChange = "2022-08-23 06:31:59 +0000";
layers = (
{
layerId = m002;
name = Black;
shapes = (
{
pos = (0,750);
ref = O;
scale = (1,-1);
},
{
closed = 1;
nodes = (
(705,-69,l),
(579,0,o),
(548,104,o),
(550,210,c),
(499,217,l),
(479,57,o),
(524,-44,o),
(630,-133,c)
);
}
);
width = 800;
},
{
layerId = m003;
name = Black;
shapes = (
{
pos = (0,750);
ref = O;
scale = (1,-1);
},
{
closed = 1;
nodes = (
(705,-40,l),
(598,56,o),
(527,214,o),
(530,344,c),
(410,360,l),
(386,164,o),
(393,-10,o),
(524,-196,c)
);
}
);
width = 849;
}
);
metricLeft = O;
metricRight = O;
unicode = 81;
},
{
color = 3;
glyphname = R;
kernLeft = I_1;
kernRight = R_2;
lastChange = "2022-08-23 06:31:59 +0000";
layers = (
{
anchors = (
{
name = bottom;
pos = (336,0);
},
{
name = top;
pos = (338,800);
}
);
layerId = m002;
name = Black;
shapes = (
{
closed = 1;
nodes = (
(508,335,o),
(631,456,o),
(631,619,cs),
(631,712,o),
(570,788,o),
(460,788,cs),
(370,788,o),
(222,722,o),
(168,539,c),
(193,478,l),
(230,632,o),
(345,703,o),
(425,703,cs),
(503,703,o),
(531,631,o),
(531,575,cs),
(531,478,o),
(445,376,o),
(160,285,c),
(193,237,l)
);
},
{
closed = 1;
nodes = (
(212,0,l),
(219,255,o),
(220,461,o),
(205,748,c),
(95,730,l),
(119,536,o),
(127,259,o),
(118,-4,c)
);
},
{
closed = 1;
nodes = (
(655,-6,l),
(591,238,o),
(458,293,o),
(285,326,c),
(253,263,l),
(405,251,o),
(510,147,o),
(547,-20,c)
);
}
);
width = 690;
},
{
anchors = (
{
name = bottom;
pos = (340,0);
},
{
name = top;
pos = (342,800);
}
);
layerId = m003;
name = Black;
shapes = (
{
closed = 1;
nodes = (
(583,334,o),
(685,459,o),
(685,598,cs),
(685,706,o),
(625,774,o),
(519,774,cs),
(423,774,o),
(323,685,o),
(261,572,c),
(265,496,l),
(306,554,o),
(358,579,o),
(399,579,cs),
(438,579,o),
(468,556,o),
(468,506,cs),
(468,477,o),
(465,400,o),
(276,346,c),
(305,252,l)
);
},
{
closed = 1;
nodes = (
(278,0,l),
(320,316,o),
(324,437,o),
(324,767,c),
(47,725,l),
(80,435,o),
(84,277,o),
(74,-8,c)
);
},
{
closed = 1;
nodes = (
(692,33,l),
(650,258,o),
(476,332,o),
(357,362,c),
(291,277,l),
(364,252,o),
(402,123,o),
(402,0,c)
);
}
);
width = 714;
}
);
metricLeft = I;
unicode = 82;
},
{
color = 3;
glyphname = S;
kernLeft = S_1;
kernRight = S_2;
lastChange = "2022-08-23 06:31:59 +0000";
layers = (
{
anchors = (
{
name = bottom;
pos = (333,-41);
},
{
name = cedilla;
pos = (343,19);
},
{
name = top;
pos = (347,800);
}
);
guides = (
{
pos = (633,168);
},
{
pos = (633,482);
}
);
layerId = m002;
name = Black;
shapes = (
{
closed = 1;
nodes = (
(496,-11,o),
(606,64,o),
(606,212,cs),
(606,450,o),
(185,371,o),
(185,603,cs),
(185,676,o),
(252,708,o),
(340,708,cs),
(395,708,o),
(474,684,o),
(540,633,c),
(559,701,l),
(509,744,o),
(425,768,o),
(343,768,cs),
(212,768,o),
(82,708,o),
(82,570,cs),
(82,371,o),
(496,381,o),
(496,207,cs),
(496,107,o),
(401,50,o),
(320,50,cs),
(252,50,o),
(187,54,o),
(68,114,c),
(45,40,l),
(145,8,o),
(244,-11,o),
(332,-11,cs)
);
}
);
width = 651;
},
{
anchors = (
{
name = bottom;
pos = (365,-41);
},
{
name = cedilla;
pos = (375,19);
},
{
name = top;
pos = (379,800);
}
);
guides = (
{
pos = (665,168);
},
{
pos = (665,482);
}
);
layerId = m003;
name = Black;
shapes = (
{
closed = 1;
nodes = (
(558,-11,o),
(687,64,o),
(687,212,cs),
(687,446,o),
(332,382,o),
(338,555,cs),
(340,600,o),
(373,633,o),
(433,633,cs),
(491,633,o),
(538,611,o),
(594,579,c),
(632,701,l),
(573,744,o),
(475,768,o),
(378,768,cs),
(224,768,o),
(71,708,o),
(71,570,cs),
(71,371,o),
(399,377,o),
(399,247,cs),
(399,207,o),
(365,163,o),
(304,163,cs),
(224,163,o),
(139,198,o),
(54,238,c),
(27,40,l),
(145,8,o),
(262,-11,o),
(365,-11,cs)
);
}
);
width = 714;
}
);
unicode = 83;
},
{
color = 3;
glyphname = T;
kernLeft = T_1;
kernRight = T_2;
lastChange = "2022-08-23 06:31:59 +0000";
layers = (
{
anchors = (
{
name = bottom;
pos = (345,-10);
},
{
name = cedilla;
pos = (365,20);
},
{
name = top;
pos = (345,800);
}
);
layerId = m002;
name = Black;
shapes = (
{
closed = 1;
nodes = (
(390,7,l),
(407,232,o),
(411,515,o),
(396,755,c),
(284,734,l),
(315,475,o),
(315,259,o),
(307,-8,c)
);
},
{
closed = 1;
nodes = (
(640,766,l),
(45,750,l),
(49,694,l),
(639,690,l)
);
}
);
width = 685;
},
{
anchors = (
{
name = bottom;
pos = (379,-10);
},
{
name = cedilla;
pos = (399,20);
},
{
name = top;
pos = (379,800);
}
);
layerId = m003;
name = Black;
shapes = (
{
closed = 1;
nodes = (
(476,18,l),
(516,318,o),
(526,492,o),
(522,767,c),
(245,725,l),
(275,463,o),
(282,249,o),
(272,-18,c)
);
},
{
closed = 1;
nodes = (
(726,800,l),
(27,750,l),
(31,640,l),
(725,626,l)
);
}
);
width = 753;
}
);
unicode = 84;
},
{
color = 0;
glyphname = U;
kernLeft = U_1;
kernRight = I_2;
lastChange = "2022-08-23 06:40:10 +0000";
layers = (
{
anchors = (
{
name = bottom;
pos = (388,-30);
},
{
name = ogonek;
pos = (721,16);
},
{
name = top;
pos = (436,800);
}
);
layerId = m002;
name = Black;
shapes = (
{
closed = 1;
nodes = (
(644,-8,o),
(654,386,o),
(657,582,c),
(600,750,l),
(614,504,o),
(614,58,o),
(404,58,cs),
(178,58,o),
(171,672,o),
(187,762,c),
(77,744,l),
(62,514,o),
(119,-8,o),
(390,-8,cs)
);
},
{
closed = 1;
nodes = (
(691,15,l),
(714,289,o),
(717,520,o),
(709,767,c),
(600,750,l),
(619,464,o),
(623,277,o),
(600,0,c)
);
}
);
width = 808;
},
{
anchors = (
{
name = bottom;
pos = (409,-30);
},
{
name = ogonek;
pos = (742,16);
},
{
name = top;
pos = (457,800);
}
);
layerId = m003;
name = Black;
shapes = (
{
closed = 1;
nodes = (
(636,-8,o),
(660,315,o),
(664,511,c),
(560,725,l),
(576,566,o),
(578,111,o),
(407,111,cs),
(281,111,o),
(294,685,o),
(312,775,c),
(38,734,l),
(20,504,o),
(76,-8,o),
(371,-8,cs)
);
},
{
closed = 1;
nodes = (
(791,18,l),
(831,322,o),
(843,521,o),
(837,767,c),
(560,725,l),
(591,459,o),
(598,271,o),
(587,-18,c)
);
}
);
width = 885;
}
);
metricRight = I;
unicode = 85;
},
{
color = 3;
glyphname = V;
kernLeft = V_1;
kernRight = V_2;
lastChange = "2022-08-23 06:31:59 +0000";
layers = (
{
layerId = m002;
name = Black;
shapes = (
{
closed = 1;
nodes = (
(395,5,l),
(369,93,l),
(303,313,o),
(252,487,o),
(137,755,c),
(45,740,l),
(190,447,o),
(259,245,o),
(349,-6,c)
);
},
{
closed = 1;
nodes = (
(452,184,o),
(579,503,o),
(702,748,c),
(591,763,l),
(495,554,o),
(395,270,o),
(337,66,c),
(395,5,l)
);
}
);
width = 747;
},
{
layerId = m003;
name = Black;
shapes = (
{
closed = 1;
nodes = (
(504,5,l),
(440,144,l),
(379,351,o),
(298,560,o),
(203,774,c),
(27,740,l),
(190,452,o),
(298,245,o),
(397,-9,c)
);
},
{
closed = 1;
nodes = (
(568,166,o),
(734,526,o),
(840,748,c),
(526,772,l),
(452,518,o),
(429,414,o),
(386,108,c),
(504,5,l)
);
}
);
width = 867;
}
);
unicode = 86;
},
{
color = 0;
glyphname = W;
kernLeft = W_1;
kernRight = W_2;
lastChange = "2022-08-23 06:31:59 +0000";
layers = (
{
anchors = (
{
name = bottom;
pos = (531,-38);
},
{
name = top;
pos = (577,800);
}
);
layerId = m002;
name = Black;
shapes = (
{
closed = 1;
nodes = (
(1025,-17,o),
(1038,491,o),
(1035,755,c),
(926,736,l),
(955,400,o),
(905,52,o),
(746,52,cs),
(581,52,o),
(611,497,o),
(627,728,c),
(517,722,l),
(534,461,o),
(519,-17,o),
(757,-17,cs)
);
},
{
closed = 1;
nodes = (
(546,-8,o),
(557,375,o),
(561,571,c),
(517,722,l),
(506,543,o),
(517,61,o),
(356,61,cs),
(179,61,o),
(174,655,o),
(188,745,c),
(78,740,l),
(63,490,o),
(99,-8,o),
(343,-8,cs)
);
}
);
width = 1110;
},
{
anchors = (
{
name = bottom;
pos = (596,-38);
},
{
name = top;
pos = (642,800);
}
);
layerId = m003;
name = Black;
shapes = (
{
closed = 1;
nodes = (
(1180,-17,o),
(1210,461,o),
(1206,772,c),
(909,723,l),
(955,500,o),
(980,102,o),
(839,102,cs),
(709,102,o),
(761,579,o),
(784,736,c),
(500,715,l),
(482,465,o),
(588,-17,o),
(853,-17,cs)
);
},
{
closed = 1;
nodes = (
(596,-8,o),
(620,285,o),
(624,481,c),
(500,715,l),
(487,536,o),
(548,111,o),
(393,111,cs),
(269,111,o),
(304,655,o),
(322,745,c),
(38,724,l),
(20,474,o),
(76,-8,o),
(361,-8,cs)
);
}
);
width = 1241;
}
);
unicode = 87;
},
{
color = 3;
glyphname = X;
lastChange = "2022-08-23 06:31:59 +0000";
layers = (
{
layerId = m002;
name = Black;
shapes = (
{
closed = 1;
nodes = (
(307,200,o),
(507,548,o),
(589,733,c),
(539,759,l),
(450,560,o),
(277,276,o),
(45,66,c),
(111,-10,l)
);
},
{
closed = 1;
nodes = (
(698,21,l),
(580,253,o),
(353,585,o),
(156,761,c),
(70,730,l),
(277,545,o),
(440,295,o),
(580,-3,c)
);
}
);
width = 743;
},
{
layerId = m003;
name = Black;
shapes = (
{
closed = 1;
nodes = (
(394,177,o),
(627,555,o),
(691,722,c),
(608,759,l),
(505,559,o),
(336,378,o),
(27,146,c),
(136,-19,l)
);
},
{
closed = 1;
nodes = (
(793,48,l),
(666,280,o),
(397,658,o),
(224,767,c),
(53,703,l),
(280,467,o),
(394,223,o),
(463,-19,c)
);
}
);
width = 820;
}
);
unicode = 88;
},
{
color = 0;
glyphname = Y;
kernLeft = Y_1;
kernRight = Y_2;
lastChange = "2022-08-23 06:31:59 +0000";
layers = (
{
anchors = (
{
name = bottom;
pos = (353,-30);
},
{
name = top;
pos = (353,800);
}
);
guides = (
{
pos = (633,250);
}
);
layerId = m002;
name = Black;
shapes = (
{
closed = 1;
nodes = (
(645,353,o),
(637,768,c),
(527,759,l),
(533,573,o),
(562,464,o),
(550,283,cs),
(540,131,o),
(432,41,o),
(202,66,c),
(207,-27,l),
(677,-27,o)
);
},
{
closed = 1;
nodes = (
(510,242,o),
(584,441,o),
(584,691,c),
(527,759,l),
(534,506,o),
(499,305,o),
(356,305,cs),
(207,305,o),
(156,512,o),
(184,756,c),
(78,748,l),
(65,573,o),
(92,242,o),
(340,242,cs)
);
}
);
width = 736;
},
{
anchors = (
{
name = bottom;
pos = (366,-30);
},
{
name = top;
pos = (366,800);
}
);
guides = (
{
pos = (646,250);
}
);
layerId = m003;
name = Black;
shapes = (
{
closed = 1;
nodes = (
(711,293,o),
(700,768,c),
(444,740,l),
(476,580,o),
(513,441,o),
(513,336,cs),
(513,118,o),
(288,153,o),
(176,163,c),
(194,-27,l),
(675,-66,o)
);
},
{
closed = 1;
nodes = (
(515,242,o),
(583,472,o),
(587,638,c),
(444,740,l),
(470,602,o),
(499,361,o),
(358,361,cs),
(226,361,o),
(260,641,o),
(296,762,c),
(42,741,l),
(24,530,o),
(51,242,o),
(310,242,cs)
);
}
);
width = 749;
}
);
metricRight = I;
unicode = 89;
},
{
color = 3;
glyphname = Z;
kernLeft = Z_1;
kernRight = Z_2;
lastChange = "2022-08-23 06:31:59 +0000";
layers = (
{
anchors = (
{
name = bottom;
pos = (357,-30);
},
{
name = top;
pos = (357,800);
}
);
layerId = m002;
name = Black;
shapes = (
{
closed = 1;
nodes = (
(327,188,o),
(520,475,o),
(626,693,c),
(518,705,l),
(426,464,o),
(220,200,o),
(65,69,c),
(108,15,l)
);
},
{
closed = 1;
nodes = (
(592,61,l),
(430,86,o),
(251,69,o),
(122,44,c),
(65,69,l),
(70,-12,l),
(179,5,o),
(389,21,o),
(576,-29,c)
);
},
{
closed = 1;
nodes = (
(290,651,o),
(447,668,o),
(626,693,c),
(622,733,l),
(514,716,o),
(326,712,o),
(113,750,c),
(99,664,l)
);
}
);
width = 691;
},
{
anchors = (
{
name = bottom;
pos = (382,-30);
},
{
name = top;
pos = (382,800);
}
);
layerId = m003;
name = Black;
shapes = (
{
closed = 1;
nodes = (
(392,163,o),
(619,479,o),
(711,661,c),
(404,703,l),
(346,482,o),
(173,249,o),
(33,134,c),
(187,42,l)
);
},
{
closed = 1;
nodes = (
(685,141,l),
(551,149,o),
(360,127,o),
(223,94,c),
(33,134,l),
(46,-12,l),
(175,5,o),
(441,11,o),
(661,-19,c)
);
},
{
closed = 1;
nodes = (
(294,595,o),
(500,609,o),
(711,661,c),
(696,733,l),
(568,716,o),
(297,710,o),
(77,750,c),
(52,600,l)
);
}
);
width = 743;
}
);
unicode = 90;
},
{
color = 3;
glyphname = A.salt;
kernLeft = A_1;
kernRight = A_2;
lastChange = "2022-08-23 06:31:59 +0000";
layers = (
{
anchors = (
{
name = bottom;
pos = (338,0);
},
{
name = ogonek;
pos = (741,24);
},
{
name = top;
pos = (338,800);
}
);
layerId = m002;
shapes = (
{
closed = 1;
nodes = (
(230,203,o),
(320,452,o),
(393,698,c),
(413,748,l),
(361,750,l),
(277,509,o),
(177,258,o),
(45,8,c),
(131,-9,l)
);
},
{
closed = 1;
nodes = (
(325,182,o),
(471,191,o),
(563,222,c),
(555,263,l),
(470,252,o),
(337,240,o),
(218,263,c),
(190,197,l)
);
},
{
closed = 1;
nodes = (
(693,12,l),
(607,205,o),
(483,537,o),
(413,748,c),
(345,686,l),
(387,487,o),
(489,220,o),
(569,-6,c)
);
}
);
width = 738;
},
{
anchors = (
{
name = bottom;
pos = (397,0);
},
{
name = ogonek;
pos = (800,24);
},
{
name = top;
pos = (397,800);
}
);
layerId = m003;
shapes = (
{
closed = 1;
nodes = (
(293,227,o),
(340,414,o),
(389,632,c),
(516,728,l),
(337,750,l),
(238,445,o),
(178,269,o),
(37,17,c),
(209,-17,l)
);
},
{
closed = 1;
nodes = (
(361,153,o),
(543,151,o),
(657,213,c),
(648,294,l),
(541,279,o),
(376,247,o),
(228,313,c),
(192,182,l)
);
},
{
closed = 1;
nodes = (
(810,24,l),
(716,202,o),
(580,503,o),
(516,728,c),
(346,675,l),
(414,361,o),
(437,229,o),
(528,-13,c)
);
}
);
width = 847;
}
);
},
{
color = 3;
glyphname = F.salt;
kernLeft = I_1;
kernRight = F_2;
lastChange = "2022-08-23 06:31:59 +0000";
layers = (
{
layerId = m002;
shapes = (
{
closed = 1;
nodes = (
(216,16,l),
(191,229,o),
(177,373,o),
(177,516,cs),
(177,676,o),
(238,712,o),
(432,696,c),
(417,776,l),
(133,776,o),
(95,590,o),
(95,381,cs),
(95,298,o),
(102,152,o),
(107,5,c)
);
},
{
closed = 1;
nodes = (
(377,414,l),
(312,406,o),
(234,398,o),
(131,404,c),
(130,349,l),
(221,342,o),
(305,339,o),
(374,338,c)
);
}
);
width = 477;
},
{
layerId = m003;
shapes = (
{
closed = 1;
nodes = (
(309,33,l),
(266,204,o),
(231,357,o),
(231,449,cs),
(231,587,o),
(325,579,o),
(435,556,c),
(417,776,l),
(101,797,o),
(47,579,o),
(47,262,cs),
(47,179,o),
(51,91,o),
(53,5,c)
);
},
{
closed = 1;
nodes = (
(370,424,l),
(294,408,o),
(202,411,o),
(81,423,c),
(80,311,l),
(187,297,o),
(286,290,o),
(367,288,c)
);
}
);
width = 462;
}
);
metricLeft = I;
metricRight = E;
},
{
color = 3;
glyphname = L.salt;
kernLeft = I_1;
kernRight = L_2;
lastChange = "2022-08-23 06:40:26 +0000";
layers = (
{
anchors = (
{
name = bottom;
pos = (344,-30);
},
{
name = center;
pos = (306,325);
},
{
name = top;
pos = (204,800);
},
{
name = topright;
pos = (439,720);
}
);
layerId = m002;
shapes = (
{
closed = 1;
nodes = (
(241,-13,o),
(483,-13,c),
(472,98,l),
(198,47,o),
(169,88,o),
(177,287,cs),
(182,407,o),
(196,511,o),
(239,756,c),
(123,750,l),
(111,628,o),
(91,429,o),
(96,253,cs),
(102,35,o)
);
}
);
width = 528;
},
{
anchors = (
{
name = bottom;
pos = (330,-30);
},
{
name = center;
pos = (292,325);
},
{
name = top;
pos = (190,800);
},
{
name = topright;
pos = (425,720);
}
);
layerId = m003;
shapes = (
{
closed = 1;
nodes = (
(258,-36,o),
(517,-13,c),
(477,172,l),
(394,135,o),
(245,102,o),
(245,245,cs),
(245,365,o),
(307,551,o),
(355,761,c),
(69,750,l),
(54,598,o),
(47,533,o),
(47,357,cs),
(47,61,o)
);
}
);
width = 544;
}
);
metricLeft = I;
},
{
glyphname = C_H;
kernLeft = O_1;
kernRight = I_2;
lastChange = "2022-08-23 06:31:59 +0000";
layers = (
{
layerId = m002;
shapes = (
{
closed = 1;
nodes = (
(477,-2,o),
(543,9,o),
(604,46,c),
(603,109,l),
(543,78,o),
(490,64,o),
(409,64,cs),
(287,64,o),
(165,164,o),
(165,333,cs),
(165,576,o),
(435,736,o),
(847,622,c),
(858,700,l),
(481,822,o),
(65,704,o),
(65,336,cs),
(65,138,o),
(231,-2,o),
(412,-2,cs)
);
},
{
closed = 1;
nodes = (
(761,495,l),
(770,330,o),
(769,173,o),
(764,-9,c),
(847,7,l),
(859,160,o),
(863,340,o),
(860,515,c)
);
},
{
closed = 1;
nodes = (
(1352,7,l),
(1369,232,o),
(1371,517,o),
(1356,757,c),
(1246,734,l),
(1276,472,o),
(1277,258,o),
(1269,-9,c)
);
},
{
closed = 1;
nodes = (
(1317,424,l),
(1177,368,o),
(892,378,o),
(791,392,c),
(784,332,l),
(917,312,o),
(1189,309,o),
(1348,338,c)
);
}
);
width = 1461;
},
{
layerId = m003;
shapes = (
{
closed = 1;
nodes = (
(517,-2,o),
(595,16,o),
(667,54,c),
(667,152,l),
(616,130,o),
(558,117,o),
(503,117,cs),
(400,117,o),
(299,171,o),
(299,315,cs),
(299,476,o),
(500,645,o),
(981,561,c),
(1005,730,l),
(499,860,o),
(32,687,o),
(32,356,cs),
(32,138,o),
(228,-2,o),
(441,-2,cs)
);
},
{
closed = 1;
nodes = (
(733,485,l),
(749,270,o),
(749,151,o),
(742,-18,c),
(946,18,l),
(977,247,o),
(990,343,o),
(992,526,c)
);
},
{
closed = 1;
nodes = (
(1427,30,l),
(1458,322,o),
(1464,465,o),
(1453,750,c),
(1177,700,l),
(1220,398,o),
(1224,304,o),
(1224,-12,c)
);
},
{
closed = 1;
nodes = (
(1390,456,l),
(1231,393,o),
(942,387,o),
(774,412,c),
(764,341,l),
(947,284,o),
(1278,312,o),
(1430,335,c)
);
}
);
width = 1505;
}
);
metricLeft = C;
metricRight = H;
},
{
glyphname = L_A;
kernLeft = I_1;
kernRight = A_2;
lastChange = "2022-08-23 06:40:37 +0000";
layers = (
{
layerId = m002;
shapes = (
{
closed = 1;
nodes = (
(205,28,l),
(216,280,o),
(225,470,o),
(205,754,c),
(95,745,l),
(132,495,o),
(128,235,o),
(115,15,c)
);
},
{
closed = 1;
nodes = (
(581,103,l),
(438,66,o),
(257,49,o),
(159,69,c),
(115,15,l),
(283,-14,o),
(476,7,o),
(591,15,c)
);
},
{
closed = 1;
nodes = (
(1023,14,l),
(1074,435,o),
(1013,766,o),
(782,766,cs),
(571,766,o),
(482,540,o),
(472,202,c),
(569,208,l),
(564,445,o),
(606,706,o),
(781,706,cs),
(1030,706,o),
(939,167,o),
(916,1,c)
);
},
{
closed = 1;
nodes = (
(685,339,o),
(833,342,o),
(981,370,c),
(972,433,l),
(849,410,o),
(706,399,o),
(547,429,c),
(515,354,l)
);
}
);
width = 1135;
},
{
layerId = m003;
shapes = (
{
closed = 1;
nodes = (
(227,54,l),
(289,280,o),
(324,473,o),
(324,754,c),
(47,766,l),
(98,457,o),
(98,337,o),
(66,25,c)
);
},
{
closed = 1;
nodes = (
(691,181,l),
(523,127,o),
(242,123,o),
(117,143,c),
(66,25,l),
(240,-7,o),
(640,-5,o),
(711,15,c)
);
},
{
closed = 1;
nodes = (
(1070,14,l),
(1130,435,o),
(1059,766,o),
(787,766,cs),
(489,766,o),
(397,452,o),
(426,203,c),
(698,220,l),
(682,265,o),
(670,670,o),
(791,670,cs),
(922,670,o),
(841,95,o),
(816,-17,c)
);
},
{
closed = 1;
nodes = (
(691,335,o),
(894,333,o),
(1021,393,c),
(1011,474,l),
(892,459,o),
(708,427,o),
(543,493,c),
(503,362,l)
);
}
);
width = 1137;
}
);
metricLeft = L;
metricRight = A;
},
{
glyphname = N_T;
kernLeft = I_1;
kernRight = T_2;
lastChange = "2022-08-23 06:31:59 +0000";
layers = (
{
layerId = m002;
shapes = (
{
closed = 1;
nodes = (
(201,77,o),
(205,530,o),
(194,727,c),
(102,712,l),
(113,484,o),
(113,230,o),
(95,0,c),
(202,0,l)
);
},
{
closed = 1;
nodes = (
(745,0,o),
(742,339,o),
(703,593,c),
(595,583,l),
(643,339,o),
(663,61,o),
(545,61,cs),
(405,61,o),
(261,467,o),
(194,727,c),
(167,540,l),
(225,307,o),
(389,0,o),
(552,0,cs)
);
},
{
closed = 1;
nodes = (
(950,7,l),
(967,232,o),
(971,515,o),
(956,755,c),
(844,734,l),
(875,475,o),
(875,259,o),
(867,-8,c)
);
},
{
closed = 1;
nodes = (
(1200,766,l),
(585,750,l),
(589,694,l),
(1199,690,l)
);
}
);
width = 1245;
},
{
layerId = m003;
shapes = (
{
closed = 1;
nodes = (
(321,263,o),
(306,448,o),
(260,742,c),
(57,704,l),
(70,357,o),
(78,341,o),
(47,0,c),
(324,-6,l)
);
},
{
closed = 1;
nodes = (
(811,0,o),
(808,338,o),
(762,593,c),
(526,569,l),
(586,370,o),
(649,111,o),
(551,111,cs),
(472,111,o),
(339,482,o),
(260,742,c),
(188,578,l),
(211,455,o),
(371,0,o),
(584,0,cs)
);
},
{
closed = 1;
nodes = (
(1096,18,l),
(1136,318,o),
(1146,492,o),
(1142,767,c),
(865,725,l),
(895,463,o),
(902,249,o),
(892,-18,c)
);
},
{
closed = 1;
nodes = (
(1346,800,l),
(547,750,l),
(551,640,l),
(1345,626,l)
);
}
);
width = 1373;
}
);
metricLeft = N;
metricRight = T;
},
{
glyphname = T_H;
kernLeft = T_1;
kernRight = I_2;
lastChange = "2022-08-23 06:31:59 +0000";
layers = (
{
layerId = m002;
shapes = (
{
closed = 1;
nodes = (
(390,7,l),
(407,232,o),
(411,515,o),
(396,755,c),
(284,734,l),
(315,475,o),
(315,259,o),
(307,-8,c)
);
},
{
closed = 1;
nodes = (
(687,7,l),
(699,160,o),
(703,380,o),
(700,555,c),
(601,535,l),
(610,370,o),
(609,173,o),
(604,-9,c)
);
},
{
closed = 1;
nodes = (
(700,766,l),
(45,750,l),
(49,694,l),
(699,690,l)
);
},
{
closed = 1;
nodes = (
(757,312,o),
(1029,309,o),
(1188,338,c),
(1157,424,l),
(1017,368,o),
(732,378,o),
(631,392,c),
(624,332,l)
);
},
{
closed = 1;
nodes = (
(1192,7,l),
(1209,232,o),
(1211,517,o),
(1196,757,c),
(1086,734,l),
(1116,472,o),
(1117,258,o),
(1109,-9,c)
);
}
);
width = 1301;
},
{
layerId = m003;
shapes = (
{
closed = 1;
nodes = (
(476,18,l),
(516,318,o),
(526,492,o),
(522,767,c),
(245,725,l),
(275,463,o),
(282,249,o),
(272,-18,c)
);
},
{
closed = 1;
nodes = (
(886,18,l),
(917,247,o),
(930,393,o),
(932,576,c),
(673,535,l),
(689,320,o),
(689,151,o),
(682,-18,c)
);
},
{
closed = 1;
nodes = (
(876,800,l),
(27,750,l),
(31,640,l),
(875,626,l)
);
},
{
closed = 1;
nodes = (
(887,284,o),
(1218,312,o),
(1370,335,c),
(1330,456,l),
(1171,393,o),
(882,387,o),
(714,412,c),
(704,341,l)
);
},
{
closed = 1;
nodes = (
(1367,30,l),
(1398,322,o),
(1404,465,o),
(1393,750,c),
(1117,700,l),
(1160,398,o),
(1164,304,o),
(1164,-12,c)
);
}
);
width = 1445;
}
);
metricLeft = T;
metricRight = H;
},
{
glyphname = T_T;
kernLeft = T_1;
kernRight = T_2;
lastChange = "2022-08-23 06:40:51 +0000";
layers = (
{
layerId = m002;
shapes = (
{
closed = 1;
nodes = (
(385,7,l),
(402,232,o),
(406,575,o),
(391,815,c),
(279,794,l),
(310,535,o),
(310,259,o),
(302,-8,c)
);
},
{
closed = 1;
nodes = (
(795,7,l),
(812,232,o),
(816,515,o),
(801,755,c),
(689,734,l),
(720,475,o),
(720,259,o),
(712,-8,c)
);
},
{
closed = 1;
nodes = (
(1045,766,l),
(45,750,l),
(46,694,l),
(1043,690,l)
);
}
);
width = 1090;
},
{
layerId = m003;
shapes = (
{
closed = 1;
nodes = (
(476,18,l),
(516,318,o),
(526,562,o),
(522,837,c),
(245,795,l),
(275,533,o),
(282,249,o),
(272,-18,c)
);
},
{
closed = 1;
nodes = (
(1015,18,l),
(1055,318,o),
(1065,492,o),
(1061,767,c),
(784,725,l),
(814,463,o),
(821,249,o),
(811,-18,c)
);
},
{
closed = 1;
nodes = (
(1266,800,l),
(27,750,l),
(31,640,l),
(1265,626,l)
);
}
);
width = 1293;
}
);
metricLeft = T;
metricRight = T;
},
{
glyphname = a;
kernLeft = o_1;
kernRight = idotless_2;
lastChange = "2022-08-23 06:41:09 +0000";
layers = (
{
anchors = (
{
name = bottom;
pos = (251,-36);
},
{
name = ogonek;
pos = (469,5);
},
{
name = top;
pos = (353,520);
}
);
layerId = m002;
name = Black;
shapes = (
{
closed = 1;
nodes = (
(316,-14,o),
(440,82,o),
(455,319,c),
(397,270,l),
(399,144,o),
(317,64,o),
(240,64,cs),
(183,64,o),
(154,115,o),
(154,172,cs),
(154,230,o),
(191,333,o),
(418,383,c),
(394,441,l),
(137,367,o),
(45,263,o),
(45,150,cs),
(45,48,o),
(121,-14,o),
(208,-14,cs)
);
},
{
closed = 1;
nodes = (
(498,8,l),
(487,156,o),
(486,294,o),
(506,453,c),
(394,441,l),
(392,417,o),
(392,128,o),
(417,-10,c)
);
}
);
width = 581;
},
{
anchors = (
{
name = bottom;
pos = (284,-36);
},
{
name = ogonek;
pos = (502,5);
},
{
name = top;
pos = (353,520);
}
);
layerId = m003;
name = Black;
shapes = (
{
closed = 1;
nodes = (
(284,-14,o),
(412,62,o),
(426,299,c),
(367,272,l),
(367,180,o),
(314,154,o),
(274,154,cs),
(246,154,o),
(220,179,o),
(220,215,cs),
(220,252,o),
(266,319,o),
(416,347,c),
(354,441,l),
(110,367,o),
(27,243,o),
(27,130,cs),
(27,28,o),
(99,-14,o),
(181,-14,cs)
);
},
{
closed = 1;
nodes = (
(559,17,l),
(555,125,o),
(561,261,o),
(580,463,c),
(354,441,l),
(351,417,o),
(371,117,o),
(401,-21,c)
);
}
);
width = 620;
}
);
metricLeft = o;
metricRight = l;
unicode = 97;
},
{
glyphname = ae;
kernLeft = o_1;
kernRight = e_2;
lastChange = "2022-08-23 06:31:59 +0000";
layers = (
{
anchors = (
{
name = bottom;
pos = (295,-36);
},
{
name = ogonek;
pos = (515,21);
},
{
name = top;
pos = (344,560);
}
);
layerId = m002;
name = Black;
shapes = (
{
closed = 1;
nodes = (
(316,-14,o),
(440,82,o),
(455,319,c),
(397,270,l),
(399,144,o),
(317,64,o),
(240,64,cs),
(183,64,o),
(154,115,o),
(154,172,cs),
(154,230,o),
(191,333,o),
(418,383,c),
(394,441,l),
(137,367,o),
(45,263,o),
(45,150,cs),
(45,48,o),
(121,-14,o),
(208,-14,cs)
);
},
{
closed = 1;
nodes = (
(487,156,l),
(487,156,o),
(486,294,o),
(506,453,c),
(394,441,l),
(392,417,o),
(392,128,o),
(406,138,c)
);
},
{
alignment = -1;
pos = (351,0);
ref = e;
}
);
width = 888;
},
{
anchors = (
{
name = bottom;
pos = (251,-36);
},
{
name = ogonek;
pos = (471,21);
},
{
name = top;
pos = (300,560);
}
);
layerId = m003;
name = Black;
shapes = (
{
closed = 1;
nodes = (
(284,-34,o),
(402,62,o),
(416,299,c),
(357,272,l),
(357,180,o),
(290,145,o),
(237,145,cs),
(203,145,o),
(175,159,o),
(175,182,cs),
(175,219,o),
(225,279,o),
(406,330,c),
(344,461,l),
(100,387,o),
(27,243,o),
(27,130,cs),
(27,28,o),
(99,-34,o),
(181,-34,cs)
);
},
{
closed = 1;
nodes = (
(441,192,l),
(450,246,o),
(473,346,o),
(502,453,c),
(344,461,l),
(324,392,o),
(320,223,o),
(325,148,c)
);
},
{
alignment = -1;
pos = (296,0);
ref = e;
}
);
width = 877;
}
);
metricLeft = a;
metricRight = e;
unicode = 230;
},
{
glyphname = b;
kernLeft = l_1;
kernRight = o_2;
lastChange = "2022-08-23 06:41:21 +0000";
layers = (
{
guides = (
{
pos = (65,404);
},
{
pos = (57,115);
}
);
layerId = m002;
name = Black;
shapes = (
{
closed = 1;
nodes = (
(475,-11,o),
(588,89,o),
(588,246,cs),
(588,392,o),
(500,459,o),
(405,459,cs),
(308,459,o),
(122,392,o),
(122,113,c),
(156,75,l),
(167,288,o),
(297,375,o),
(367,375,cs),
(455,375,o),
(479,278,o),
(479,228,cs),
(479,143,o),
(438,47,o),
(286,47,cs),
(249,47,o),
(154,70,o),
(112,89,c),
(161,15,l),
(199,5,o),
(291,-11,o),
(331,-11,cs)
);
},
{
closed = 1;
nodes = (
(189,292,o),
(189,549,o),
(179,800,c),
(75,782,l),
(93,542,o),
(95,286,o),
(81,28,c),
(161,15,l)
);
}
);
width = 633;
},
{
guides = (
{
pos = (109,404);
},
{
pos = (101,115);
}
);
layerId = m003;
name = Black;
shapes = (
{
closed = 1;
nodes = (
(531,-11,o),
(680,76,o),
(680,268,cs),
(680,414,o),
(579,459,o),
(479,459,cs),
(364,459,o),
(192,348,o),
(192,69,c),
(233,31,l),
(245,244,o),
(336,314,o),
(389,314,cs),
(425,314,o),
(455,278,o),
(455,228,cs),
(455,143,o),
(399,111,o),
(325,111,cs),
(281,111,o),
(229,123,o),
(180,142,c),
(238,4,l),
(282,-6,o),
(330,-11,o),
(378,-11,cs)
);
},
{
closed = 1;
nodes = (
(281,281,o),
(299,565,o),
(299,816,c),
(40,777,l),
(63,537,o),
(68,282,o),
(58,44,c),
(238,4,l)
);
}
);
width = 707;
}
);
metricLeft = l;
metricRight = o;
unicode = 98;
},
{
glyphname = c;
kernLeft = o_1;
kernRight = c_2;
lastChange = "2022-08-23 06:31:59 +0000";
layers = (
{
anchors = (
{
name = bottom;
pos = (224,-1);
},
{
name = cedilla;
pos = (341,20);
},
{
name = top;
pos = (323,520);
}
);
guides = (
{
pos = (519,385);
},
{
pos = (519,135);
}
);
layerId = m002;
name = Black;
shapes = (
{
closed = 1;
nodes = (
(344,-6,o),
(413,16,o),
(473,58,c),
(464,120,l),
(417,80,o),
(363,55,o),
(299,55,cs),
(208,55,o),
(156,117,o),
(156,194,cs),
(156,346,o),
(317,410,o),
(433,389,c),
(427,459,l),
(269,480,o),
(45,390,o),
(45,187,cs),
(45,55,o),
(154,-6,o),
(269,-6,cs)
);
}
);
width = 503;
},
{
anchors = (
{
name = bottom;
pos = (244,-1);
},
{
name = cedilla;
pos = (361,20);
},
{
name = top;
pos = (323,520);
}
);
guides = (
{
pos = (539,385);
},
{
pos = (539,135);
}
);
layerId = m003;
name = Black;
shapes = (
{
closed = 1;
nodes = (
(379,-6,o),
(470,19,o),
(531,68,c),
(519,166,l),
(479,134,o),
(417,112,o),
(366,112,cs),
(316,112,o),
(276,133,o),
(276,183,cs),
(276,277,o),
(341,334,o),
(489,334,c),
(477,459,l),
(292,480,o),
(27,391,o),
(27,187,cs),
(27,55,o),
(156,-6,o),
(291,-6,cs)
);
}
);
width = 551;
}
);
metricLeft = o;
unicode = 99;
},
{
glyphname = d;
kernLeft = o_1;
kernRight = l_2;
lastChange = "2022-08-23 06:41:36 +0000";
layers = (
{
anchors = (
{
name = bottom;
pos = (93,0);
},
{
name = center;
pos = (208,260);
},
{
name = top;
pos = (429,800);
},
{
name = topright;
pos = (600,750);
}
);
guides = (
{
pos = (349,350);
},
{
pos = (341,98);
}
);
layerId = m002;
name = Black;
shapes = (
{
closed = 1;
nodes = (
(481,262,o),
(483,568,o),
(501,808,c),
(397,790,l),
(387,539,o),
(387,272,o),
(415,-5,c),
(495,4,l)
);
},
{
closed = 1;
nodes = (
(316,-14,o),
(440,82,o),
(455,319,c),
(397,270,l),
(399,144,o),
(317,74,o),
(240,74,cs),
(183,74,o),
(154,115,o),
(154,172,cs),
(154,230,o),
(191,373,o),
(418,423,c),
(394,481,l),
(137,407,o),
(45,263,o),
(45,150,cs),
(45,48,o),
(121,-14,o),
(208,-14,cs)
);
}
);
width = 576;
},
{
anchors = (
{
name = bottom;
pos = (126,0);
},
{
name = center;
pos = (241,260);
},
{
name = top;
pos = (462,800);
},
{
name = topright;
pos = (673,750);
}
);
guides = (
{
pos = (382,350);
},
{
pos = (374,98);
}
);
layerId = m003;
name = Black;
shapes = (
{
closed = 1;
nodes = (
(559,312,o),
(559,517,o),
(590,814,c),
(331,781,l),
(331,514,o),
(345,271,o),
(386,-10,c),
(570,4,l)
);
},
{
closed = 1;
nodes = (
(284,-14,o),
(402,62,o),
(416,299,c),
(357,272,l),
(357,180,o),
(314,154,o),
(274,154,cs),
(246,154,o),
(220,179,o),
(220,215,cs),
(220,252,o),
(266,339,o),
(416,367,c),
(354,461,l),
(110,387,o),
(27,243,o),
(27,130,cs),
(27,28,o),
(99,-14,o),
(181,-14,cs)
);
}
);
width = 630;
}
);
metricLeft = o;
metricRight = l;
unicode = 100;
},
{
glyphname = eth;
kernLeft = o_1;
kernRight = o_2;
lastChange = "2022-08-23 06:31:59 +0000";
layers = (
{
layerId = m002;
name = Black;
shapes = (
{
closed = 1;
nodes = (
(464,-10,o),
(549,107,o),
(549,247,cs),
(549,456,o),
(383,657,o),
(153,710,c),
(133,625,l),
(337,565,o),
(463,414,o),
(463,292,cs),
(463,193,o),
(415,71,o),
(257,71,cs),
(189,71,o),
(130,108,o),
(130,149,cs),
(130,194,o),
(178,247,o),
(277,247,cs),
(343,247,o),
(422,226,o),
(490,139,c),
(489,245,l),
(431,299,o),
(329,328,o),
(228,328,cs),
(101,328,o),
(45,249,o),
(45,174,cs),
(45,82,o),
(128,-10,o),
(264,-10,cs)
);
},
{
closed = 1;
nodes = (
(493,616,l),
(462,678,l),
(109,466,l),
(151,382,l)
);
}
);
width = 594;
},
{
layerId = m003;
name = Black;
shapes = (
{
closed = 1;
nodes = (
(492,-10,o),
(587,107,o),
(587,247,cs),
(587,436,o),
(414,667,o),
(147,710,c),
(100,534,l),
(288,527,o),
(418,387,o),
(418,277,cs),
(418,206,o),
(363,148,o),
(234,148,cs),
(178,148,o),
(146,166,o),
(146,185,cs),
(146,206,o),
(185,228,o),
(275,228,cs),
(334,228,o),
(401,221,o),
(451,160,c),
(463,245,l),
(410,299,o),
(320,328,o),
(230,328,cs),
(89,328,o),
(27,259,o),
(27,184,cs),
(27,92,o),
(119,-10,o),
(270,-10,cs)
);
},
{
closed = 1;
nodes = (
(538,596,l),
(492,675,l),
(99,467,l),
(160,358,l)
);
}
);
width = 614;
}
);
metricLeft = o;
metricRight = o;
unicode = 240;
},
{
glyphname = dcroat;
kernLeft = o_1;
lastChange = "2022-08-23 06:31:59 +0000";
layers = (
{
layerId = m002;
name = Black;
shapes = (
{
ref = d;
},
{
closed = 1;
nodes = (
(587,590,l),
(587,661,l),
(186,673,l),
(184,577,l)
);
}
);
width = 576;
},
{
layerId = m003;
name = Black;
shapes = (
{
ref = d;
},
{
closed = 1;
nodes = (
(609,579,l),
(609,672,l),
(164,688,l),
(162,562,l)
);
}
);
width = 630;
}
);
metricLeft = o;
unicode = 273;
},
{
glyphname = e;
kernLeft = o_1;
kernRight = e_2;
lastChange = "2022-08-23 06:31:59 +0000";
layers = (
{
anchors = (
{
name = bottom;
pos = (314,-29);
},
{
name = ogonek;
pos = (419,-2);
},
{
name = top;
pos = (323,520);
}
);
guides = (
{
pos = (600,385);
},
{
pos = (600,135);
}
);
layerId = m002;
name = Black;
shapes = (
{
closed = 1;
nodes = (
(430,57,l),
(287,24,o),
(152,69,o),
(152,232,cs),
(152,313,o),
(224,395,o),
(295,395,cs),
(372,395,o),
(393,343,o),
(393,306,cs),
(393,238,o),
(335,213,o),
(274,213,cs),
(207,213,o),
(163,230,o),
(138,246,c),
(114,207,l),
(159,172,o),
(279,150,o),
(335,150,cs),
(455,150,o),
(492,221,o),
(492,288,cs),
(494,367,o),
(424,455,o),
(290,455,cs),
(172,455,o),
(45,378,o),
(45,219,cs),
(45,20,o),
(238,-21,o),
(419,-2,c)
);
}
);
width = 537;
},
{
anchors = (
{
name = bottom;
pos = (314,-29);
},
{
name = ogonek;
pos = (468,-2);
},
{
name = top;
pos = (323,520);
}
);
guides = (
{
pos = (622,385);
},
{
pos = (622,135);
}
);
layerId = m003;
name = Black;
shapes = (
{
closed = 1;
nodes = (
(480,93,l),
(293,58,o),
(233,143,o),
(233,232,cs),
(233,293,o),
(287,355,o),
(338,355,cs),
(371,355,o),
(387,332,o),
(387,307,cs),
(387,272,o),
(361,243,o),
(312,243,cs),
(271,243,o),
(237,250,o),
(208,266,c),
(179,207,l),
(232,172,o),
(303,150,o),
(369,150,cs),
(510,150,o),
(553,221,o),
(554,288,cs),
(556,367,o),
(473,455,o),
(316,455,cs),
(177,455,o),
(27,378,o),
(27,219,cs),
(27,5,o),
(255,-21,o),
(468,-2,c)
);
}
);
width = 581;
}
);
metricLeft = o;
metricRight = o;
unicode = 101;
},
{
glyphname = f;
kernLeft = f_1;
kernRight = f_2;
lastChange = "2022-08-23 06:31:59 +0000";
layers = (
{
guides = (
{
pos = (5,404);
}
);
layerId = m002;
name = Black;
shapes = (
{
closed = 1;
nodes = (
(170,156,o),
(162,349,o),
(155,435,cs),
(139,621,o),
(231,667,o),
(380,650,c),
(373,742,l),
(189,742,o),
(75,650,o),
(75,357,cs),
(75,262,o),
(79,133,o),
(81,0,c),
(184,-2,l)
);
},
{
closed = 1;
nodes = (
(312,451,l),
(216,463,o),
(136,460,o),
(28,452,c),
(35,401,l),
(136,408,o),
(210,404,o),
(300,386,c)
);
}
);
width = 427;
},
{
guides = (
{
pos = (-13,404);
}
);
layerId = m003;
name = Black;
shapes = (
{
closed = 1;
nodes = (
(272,156,o),
(232,364,o),
(221,450,cs),
(204,589,o),
(272,606,o),
(413,572,c),
(395,742,l),
(178,742,o),
(64,624,o),
(56,357,cs),
(53,262,o),
(49,133,o),
(51,0,c),
(307,-2,l)
);
},
{
closed = 1;
nodes = (
(352,445,l),
(239,468,o),
(133,470,o),
(5,456,c),
(21,380,l),
(140,386,o),
(232,377,o),
(338,344,c)
);
}
);
width = 432;
}
);
unicode = 102;
},
{
glyphname = g;
kernLeft = g_1;
kernRight = g_2;
lastChange = "2022-08-23 06:41:54 +0000";
layers = (
{
anchors = (
{
name = bottom;
pos = (281,-337);
},
{
name = top;
pos = (323,520);
}
);
guides = (
{
pos = (449,385);
},
{
pos = (449,135);
}
);
layerId = m002;
name = Black;
shapes = (
{
closed = 1;
nodes = (
(343,-311,o),
(499,-224,o),
(502,71,cs),
(503,208,o),
(500,371,o),
(496,465,c),
(392,461,l),
(417,227,o),
(422,103,o),
(427,-14,cs),
(433,-149,o),
(349,-249,o),
(99,-170,c),
(72,-260,l)
);
},
{
closed = 1;
nodes = (
(316,-14,o),
(455,82,o),
(470,319,c),
(412,270,l),
(414,144,o),
(317,74,o),
(240,74,cs),
(183,74,o),
(154,115,o),
(154,172,cs),
(154,230,o),
(189,353,o),
(416,403,c),
(392,461,l),
(135,387,o),
(45,263,o),
(45,150,cs),
(45,48,o),
(121,-14,o),
(208,-14,cs)
);
}
);
width = 577;
},
{
anchors = (
{
name = bottom;
pos = (314,-337);
},
{
name = top;
pos = (323,520);
}
);
guides = (
{
pos = (482,385);
},
{
pos = (482,135);
}
);
layerId = m003;
name = Black;
shapes = (
{
closed = 1;
nodes = (
(325,-356,o),
(542,-207,o),
(565,87,cs),
(573,198,o),
(574,371,o),
(570,465,c),
(344,461,l),
(373,227,o),
(386,135,o),
(394,18,cs),
(406,-155,o),
(290,-192,o),
(120,-71,c),
(47,-260,l)
);
},
{
closed = 1;
nodes = (
(284,-14,o),
(414,62,o),
(428,299,c),
(369,272,l),
(369,180,o),
(314,154,o),
(274,154,cs),
(246,154,o),
(220,179,o),
(220,215,cs),
(220,252,o),
(266,339,o),
(416,367,c),
(344,461,l),
(100,387,o),
(27,243,o),
(27,130,cs),
(27,28,o),
(99,-14,o),
(181,-14,cs)
);
}
);
width = 612;
}
);
metricRight = l;
unicode = 103;
},
{
glyphname = h;
kernLeft = l_1;
kernRight = n_2;
lastChange = "2022-08-23 06:31:59 +0000";
layers = (
{
guides = (
{
pos = (134,385);
},
{
pos = (134,135);
}
);
layerId = m002;
name = Black;
shapes = (
{
closed = 1;
nodes = (
(189,282,o),
(189,549,o),
(179,800,c),
(75,784,l),
(93,544,o),
(95,256,o),
(81,-2,c),
(161,5,l)
);
},
{
closed = 1;
nodes = (
(554,195,o),
(544,466,o),
(357,466,cs),
(194,466,o),
(110,249,o),
(99,125,c),
(161,5,l),
(174,222,o),
(241,411,o),
(335,411,cs),
(434,411,o),
(471,229,o),
(421,3,c),
(526,-8,l)
);
}
);
width = 603;
},
{
guides = (
{
pos = (174,385);
},
{
pos = (174,135);
}
);
layerId = m003;
name = Black;
shapes = (
{
closed = 1;
nodes = (
(281,281,o),
(299,565,o),
(299,816,c),
(40,777,l),
(63,537,o),
(68,225,o),
(58,-13,c),
(238,4,l)
);
},
{
closed = 1;
nodes = (
(647,152,o),
(635,465,o),
(443,465,cs),
(313,465,o),
(172,298,o),
(145,141,c),
(238,4,l),
(267,227,o),
(345,335,o),
(392,335,cs),
(481,335,o),
(412,72,o),
(378,-10,c),
(626,-22,l)
);
}
);
width = 667;
}
);
metricLeft = l;
unicode = 104;
},
{
glyphname = hbar;
kernRight = n_2;
lastChange = "2022-08-23 06:31:59 +0000";
layers = (
{
layerId = m002;
name = Black;
shapes = (
{
ref = h;
},
{
closed = 1;
nodes = (
(417,590,l),
(417,661,l),
(16,673,l),
(14,577,l)
);
}
);
width = 603;
},
{
layerId = m003;
name = Black;
shapes = (
{
ref = h;
},
{
closed = 1;
nodes = (
(439,579,l),
(439,672,l),
(-6,688,l),
(-8,562,l)
);
}
);
width = 667;
}
);
unicode = 295;
},
{
glyphname = i;
kernLeft = i_1;
kernRight = i_2;
lastChange = "2022-08-23 06:31:59 +0000";
layers = (
{
layerId = m002;
name = Black;
shapes = (
{
ref = idotless;
},
{
closed = 1;
nodes = (
(173,533,l),
(174,571,o),
(171,617,o),
(164,653,c),
(54,639,l),
(58,600,o),
(66,567,o),
(68,525,c)
);
}
);
width = 259;
},
{
layerId = m003;
name = Black;
shapes = (
{
ref = idotless;
},
{
closed = 1;
nodes = (
(268,533,l),
(271,597,o),
(257,687,o),
(238,752,c),
(32,717,l),
(45,652,o),
(56,588,o),
(56,517,c)
);
}
);
width = 333;
}
);
unicode = 105;
},
{
glyphname = idotless;
kernLeft = i_1;
kernRight = i_2;
lastChange = "2022-08-23 06:31:59 +0000";
layers = (
{
anchors = (
{
name = bottom;
pos = (123,-36);
},
{
name = ogonek;
pos = (159,5);
},
{
name = top;
pos = (123,520);
}
);
layerId = m002;
name = Black;
shapes = (
{
closed = 1;
nodes = (
(183,184,o),
(189,307,o),
(179,466,c),
(75,453,l),
(93,305,o),
(91,138,o),
(81,-2,c),
(159,5,l)
);
}
);
width = 259;
},
{
anchors = (
{
name = bottom;
pos = (142,0);
},
{
name = ogonek;
pos = (207,2);
},
{
name = top;
pos = (173,520);
}
);
layerId = m003;
name = Black;
shapes = (
{
closed = 1;
nodes = (
(280,181,o),
(286,307,o),
(286,473,c),
(47,448,l),
(70,288,o),
(79,149,o),
(75,-10,c),
(249,8,l)
);
}
);
width = 333;
}
);
unicode = 305;
},
{
glyphname = j;
kernLeft = j_1;
kernRight = j_2;
lastChange = "2022-08-23 06:31:59 +0000";
layers = (
{
layerId = m002;
name = Black;
shapes = (
{
ref = jdotless;
},
{
closed = 1;
nodes = (
(173,533,l),
(174,571,o),
(171,617,o),
(164,653,c),
(54,639,l),
(58,600,o),
(66,567,o),
(68,525,c)
);
}
);
width = 284;
},
{
layerId = m003;
name = Black;
shapes = (
{
ref = jdotless;
},
{
closed = 1;
nodes = (
(268,533,l),
(271,597,o),
(257,687,o),
(238,752,c),
(32,717,l),
(45,652,o),
(56,588,o),
(56,517,c)
);
}
);
width = 341;
}
);
unicode = 106;
},
{
glyphname = jdotless;
kernLeft = j_1;
kernRight = j_2;
lastChange = "2022-08-23 06:42:09 +0000";
layers = (
{
anchors = (
{
name = bottom;
pos = (85,-233);
},
{
name = top;
pos = (119,529);
}
);
layerId = m002;
name = Black;
shapes = (
{
closed = 1;
nodes = (
(165,-168,o),
(184,60,cs),
(194,179,o),
(192,290,o),
(185,468,c),
(75,451,l),
(98,234,o),
(100,127,o),
(96,22,cs),
(91,-105,o),
(56,-200,o),
(-116,-186,c),
(-107,-244,l),
(75,-260,o)
);
}
);
width = 256;
},
{
anchors = (
{
name = bottom;
pos = (176,-233);
},
{
name = top;
pos = (162,529);
}
);
layerId = m003;
name = Black;
shapes = (
{
closed = 1;
nodes = (
(279,-168,o),
(301,60,cs),
(313,179,o),
(311,296,o),
(303,474,c),
(41,436,l),
(74,236,o),
(98,127,o),
(98,22,cs),
(98,-105,o),
(70,-155,o),
(-59,-144,c),
(-41,-244,l),
(173,-260,o)
);
}
);
width = 342;
}
);
metricRight = n;
unicode = 567;
},
{
glyphname = k;
kernLeft = l_1;
kernRight = k_2;
lastChange = "2022-08-23 06:31:59 +0000";
layers = (
{
anchors = (
{
name = bottom;
pos = (311,0);
},
{
name = top;
pos = (67,800);
}
);
layerId = m002;
name = Black;
shapes = (
{
closed = 1;
nodes = (
(523,25,l),
(470,157,o),
(368,260,o),
(240,292,c),
(196,233,l),
(299,194,o),
(375,122,o),
(411,-6,c)
);
},
{
closed = 1;
nodes = (
(181,192,o),
(281,364,o),
(470,400,c),
(470,491,l),
(307,447,o),
(183,313,o),
(154,157,c),
(161,5,l)
);
},
{
closed = 1;
nodes = (
(189,282,o),
(189,549,o),
(179,800,c),
(75,784,l),
(93,544,o),
(95,256,o),
(81,-2,c),
(161,5,l)
);
}
);
width = 553;
},
{
anchors = (
{
name = bottom;
pos = (311,0);
},
{
name = top;
pos = (107,800);
}
);
layerId = m003;
name = Black;
shapes = (
{
closed = 1;
nodes = (
(610,57,l),
(551,191,o),
(459,270,o),
(320,286,c),
(259,200,l),
(323,149,o),
(345,122,o),
(388,-10,c)
);
},
{
closed = 1;
nodes = (
(262,191,o),
(372,302,o),
(564,281,c),
(560,491,l),
(368,447,o),
(253,312,o),
(218,147,c),
(238,4,l)
);
},
{
closed = 1;
nodes = (
(281,281,o),
(299,565,o),
(299,816,c),
(40,777,l),
(63,537,o),
(68,225,o),
(58,-13,c),
(238,4,l)
);
}
);
width = 630;
}
);
metricLeft = l;
unicode = 107;
},
{
glyphname = l;
kernLeft = l_1;
kernRight = l_2;
lastChange = "2022-08-23 06:31:59 +0000";
layers = (
{
anchors = (
{
name = bottom;
pos = (117,-40);
},
{
name = top;
pos = (133,830);
},
{
name = topright;
pos = (268,760);
}
);
layerId = m002;
name = Black;
shapes = (
{
closed = 1;
nodes = (
(189,282,o),
(189,549,o),
(179,800,c),
(75,784,l),
(93,544,o),
(95,256,o),
(81,-2,c),
(161,5,l)
);
}
);
width = 260;
},
{
anchors = (
{
name = bottom;
pos = (147,-40);
},
{
name = top;
pos = (163,830);
},
{
name = topright;
pos = (378,760);
}
);
layerId = m003;
name = Black;
shapes = (
{
closed = 1;
nodes = (
(282,281,o),
(300,565,o),
(300,816,c),
(40,777,l),
(63,537,o),
(68,225,o),
(58,-13,c),
(239,4,l)
);
}
);
width = 340;
}
);
unicode = 108;
},
{
glyphname = lslash;
lastChange = "2022-08-23 06:31:59 +0000";
layers = (
{
layerId = m002;
name = Black;
shapes = (
{
ref = l;
},
{
closed = 1;
nodes = (
(340,450,l),
(307,513,l),
(-39,290,l),
(2,212,l)
);
}
);
width = 260;
},
{
layerId = m003;
name = Black;
shapes = (
{
ref = l;
},
{
closed = 1;
nodes = (
(397,441,l),
(350,520,l),
(-43,312,l),
(18,203,l)
);
}
);
width = 340;
}
);
unicode = 322;
},
{
glyphname = m;
kernLeft = idotless_1;
kernRight = n_2;
lastChange = "2022-08-23 06:31:59 +0000";
layers = (
{
guides = (
{
pos = (37,98);
},
{
pos = (69,414);
}
);
layerId = m002;
name = Black;
shapes = (
{
closed = 1;
nodes = (
(536,199,o),
(512,466,o),
(348,466,cs),
(196,466,o),
(127,259,o),
(117,135,c),
(180,0,l),
(195,217,o),
(231,411,o),
(329,411,cs),
(403,411,o),
(449,226,o),
(403,0,c),
(511,-4,l)
);
},
{
closed = 1;
nodes = (
(189,161,o),
(190,285,o),
(166,462,c),
(82,446,l),
(95,298,o),
(94,141,o),
(75,-10,c),
(180,0,l)
);
},
{
closed = 1;
nodes = (
(848,232,o),
(836,465,o),
(676,465,cs),
(560,465,o),
(483,361,o),
(465,254,c),
(517,82,l),
(523,244,o),
(564,410,o),
(641,410,cs),
(739,410,o),
(752,208,o),
(711,1,c),
(816,-6,l)
);
}
);
width = 895;
},
{
guides = (
{
pos = (85,98);
},
{
pos = (117,414);
}
);
layerId = m003;
name = Black;
shapes = (
{
closed = 1;
nodes = (
(644,194,o),
(628,466,o),
(414,466,cs),
(294,466,o),
(204,321,o),
(192,197,c),
(279,0,l),
(295,217,o),
(312,343,o),
(359,343,cs),
(432,343,o),
(408,133,o),
(370,5,c),
(602,-9,l)
);
},
{
closed = 1;
nodes = (
(290,161,o),
(278,292,o),
(249,469,c),
(61,431,l),
(77,283,o),
(64,141,o),
(40,-10,c),
(279,0,l)
);
},
{
closed = 1;
nodes = (
(978,175,o),
(956,465,o),
(755,465,cs),
(666,465,o),
(576,392,o),
(554,285,c),
(617,113,l),
(618,275,o),
(649,334,o),
(694,334,cs),
(764,334,o),
(743,149,o),
(693,6,c),
(955,-9,l)
);
}
);
width = 995;
}
);
metricLeft = l;
unicode = 109;
},
{
glyphname = n;
kernLeft = idotless_1;
kernRight = n_2;
lastChange = "2022-08-23 06:31:59 +0000";
layers = (
{
anchors = (
{
name = bottom;
pos = (320,0);
},
{
name = top;
pos = (372,520);
}
);
guides = (
{
pos = (165,229);
showMeasurement = 1;
}
);
layerId = m002;
name = Black;
shapes = (
{
closed = 1;
nodes = (
(575,195,o),
(565,466,o),
(378,466,cs),
(215,466,o),
(131,249,o),
(120,125,c),
(180,0,l),
(193,217,o),
(262,411,o),
(356,411,cs),
(455,411,o),
(492,229,o),
(442,3,c),
(547,-8,l)
);
},
{
closed = 1;
nodes = (
(188,161,o),
(189,285,o),
(163,462,c),
(81,446,l),
(96,298,o),
(95,141,o),
(75,-10,c),
(180,0,l)
);
}
);
width = 624;
},
{
anchors = (
{
name = bottom;
pos = (333,0);
},
{
name = top;
pos = (353,520);
}
);
guides = (
{
pos = (198,229);
showMeasurement = 1;
}
);
layerId = m003;
name = Black;
shapes = (
{
closed = 1;
nodes = (
(661,162,o),
(649,465,o),
(457,465,cs),
(343,465,o),
(222,315,o),
(222,141,c),
(259,1,l),
(288,224,o),
(359,335,o),
(406,335,cs),
(495,335,o),
(426,82,o),
(392,0,c),
(640,-12,l)
);
},
{
closed = 1;
nodes = (
(270,185,o),
(259,287,o),
(229,469,c),
(61,431,l),
(76,285,o),
(66,153,o),
(40,-15,c),
(259,1,l)
);
}
);
width = 681;
}
);
metricLeft = l;
unicode = 110;
},
{
glyphname = o;
kernLeft = o_1;
kernRight = o_2;
lastChange = "2022-08-23 06:31:59 +0000";
layers = (
{
anchors = (
{
name = bottom;
pos = (269,-42);
},
{
name = top;
pos = (267,520);
}
);
guides = (
{
pos = (513,385);
},
{
pos = (513,135);
}
);
layerId = m002;
name = Black;
shapes = (
{
closed = 1;
nodes = (
(424,-12,o),
(502,107,o),
(502,226,cs),
(502,345,o),
(424,463,o),
(268,463,cs),
(121,463,o),
(45,343,o),
(45,223,cs),
(45,105,o),
(119,-12,o),
(270,-12,cs)
);
},
{
closed = 1;
nodes = (
(199,43,o),
(140,121,o),
(140,218,cs),
(140,298,o),
(190,376,o),
(275,376,cs),
(362,376,o),
(411,299,o),
(411,220,cs),
(411,132,o),
(375,43,o),
(279,43,cs)
);
}
);
width = 547;
},
{
anchors = (
{
name = bottom;
pos = (291,-42);
},
{
name = top;
pos = (267,520);
}
);
guides = (
{
pos = (535,385);
},
{
pos = (535,135);
}
);
layerId = m003;
name = Black;
shapes = (
{
closed = 1;
nodes = (
(472,-12,o),
(564,107,o),
(564,226,cs),
(564,345,o),
(473,463,o),
(289,463,cs),
(116,463,o),
(27,343,o),
(27,223,cs),
(27,105,o),
(114,-12,o),
(291,-12,cs)
);
},
{
closed = 1;
nodes = (
(239,78,o),
(218,133,o),
(218,186,cs),
(218,235,o),
(236,283,o),
(277,283,cs),
(317,283,o),
(335,236,o),
(335,187,cs),
(335,134,o),
(313,78,o),
(273,78,cs)
);
}
);
width = 591;
}
);
unicode = 111;
},
{
glyphname = oslash;
kernLeft = o_1;
kernRight = o_2;
lastChange = "2022-08-23 06:31:59 +0000";
layers = (
{
anchors = (
{
name = bottom;
pos = (269,-42);
},
{
name = top;
pos = (267,520);
}
);
layerId = m002;
name = Black;
shapes = (
{
closed = 1;
nodes = (
(475,488,l),
(385,512,l),
(108,-40,l),
(175,-62,l)
);
},
{
closed = 1;
nodes = (
(424,-12,o),
(502,107,o),
(502,226,cs),
(502,345,o),
(424,463,o),
(268,463,cs),
(121,463,o),
(45,343,o),
(45,223,cs),
(45,105,o),
(119,-12,o),
(270,-12,cs)
);
},
{
closed = 1;
nodes = (
(199,43,o),
(140,121,o),
(140,218,cs),
(140,298,o),
(190,376,o),
(275,376,cs),
(362,376,o),
(411,299,o),
(411,220,cs),
(411,132,o),
(375,43,o),
(279,43,cs)
);
}
);
width = 591;
},
{
anchors = (
{
name = bottom;
pos = (291,-42);
},
{
name = top;
pos = (267,520);
}
);
layerId = m003;
name = Black;
shapes = (
{
closed = 1;
nodes = (
(474,488,l),
(366,516,l),
(108,-39,l),
(197,-68,l)
);
},
{
closed = 1;
nodes = (
(472,-12,o),
(564,107,o),
(564,226,cs),
(564,345,o),
(473,463,o),
(289,463,cs),
(116,463,o),
(27,343,o),
(27,223,cs),
(27,105,o),
(114,-12,o),
(291,-12,cs)
);
},
{
closed = 1;
nodes = (
(196,36,o),
(156,113,o),
(156,188,cs),
(156,257,o),
(190,325,o),
(257,325,cs),
(343,325,o),
(377,259,o),
(377,190,cs),
(377,115,o),
(335,36,o),
(270,36,cs)
);
}
);
width = 591;
}
);
unicode = 248;
},
{
glyphname = p;
kernLeft = idotless_1;
kernRight = o_2;
lastChange = "2022-08-23 06:42:28 +0000";
layers = (
{
guides = (
{
pos = (314,405);
},
{
pos = (314,115);
}
);
layerId = m002;
name = Black;
shapes = (
{
closed = 1;
nodes = (
(179,-288,l),
(189,-37,o),
(189,180,o),
(161,457,c),
(81,444,l),
(95,186,o),
(93,-62,o),
(75,-302,c)
);
},
{
closed = 1;
nodes = (
(468,38,o),
(549,182,o),
(549,295,cs),
(549,397,o),
(469,459,o),
(378,459,cs),
(264,459,o),
(135,363,o),
(119,126,c),
(181,157,l),
(181,286,o),
(264,376,o),
(355,376,cs),
(408,376,o),
(444,340,o),
(444,288,cs),
(444,186,o),
(352,72,o),
(142,19,c),
(160,-34,l)
);
}
);
width = 594;
},
{
guides = (
{
pos = (332,405);
},
{
pos = (332,115);
}
);
layerId = m003;
name = Black;
shapes = (
{
closed = 1;
nodes = (
(299,-285,l),
(299,-16,o),
(288,156,o),
(244,459,c),
(60,432,l),
(71,124,o),
(71,-11,o),
(40,-308,c)
);
},
{
closed = 1;
nodes = (
(537,38,o),
(610,182,o),
(610,295,cs),
(610,397,o),
(538,459,o),
(456,459,cs),
(353,459,o),
(235,363,o),
(221,126,c),
(280,153,l),
(280,245,o),
(340,286,o),
(393,286,cs),
(427,286,o),
(442,257,o),
(442,229,cs),
(442,192,o),
(419,138,o),
(231,85,c),
(260,-34,l)
);
}
);
width = 637;
}
);
metricLeft = l;
metricRight = o;
unicode = 112;
},
{
glyphname = thorn;
kernLeft = idotless_1;
kernRight = o_2;
lastChange = "2022-08-23 06:31:59 +0000";
layers = (
{
layerId = m002;
name = Black;
shapes = (
{
closed = 1;
nodes = (
(179,-168,l),
(189,83,o),
(189,320,o),
(161,597,c),
(81,584,l),
(95,326,o),
(93,58,o),
(75,-182,c)
);
},
{
closed = 1;
nodes = (
(468,38,o),
(549,182,o),
(549,295,cs),
(549,397,o),
(469,459,o),
(378,459,cs),
(264,459,o),
(135,363,o),
(119,126,c),
(181,157,l),
(181,286,o),
(264,376,o),
(355,376,cs),
(408,376,o),
(444,340,o),
(444,288,cs),
(444,186,o),
(352,72,o),
(142,19,c),
(160,-34,l)
);
}
);
width = 594;
},
{
layerId = m003;
name = Black;
shapes = (
{
closed = 1;
nodes = (
(296,-165,l),
(296,104,o),
(285,306,o),
(241,609,c),
(57,582,l),
(68,274,o),
(68,109,o),
(37,-188,c)
);
},
{
closed = 1;
nodes = (
(534,38,o),
(607,182,o),
(607,295,cs),
(607,397,o),
(535,459,o),
(453,459,cs),
(350,459,o),
(232,363,o),
(218,126,c),
(277,153,l),
(277,245,o),
(337,286,o),
(390,286,cs),
(424,286,o),
(439,257,o),
(439,229,cs),
(439,192,o),
(416,138,o),
(228,85,c),
(257,-34,l)
);
}
);
width = 634;
}
);
metricRight = o;
unicode = 254;
},
{
glyphname = q;
kernLeft = o_1;
lastChange = "2022-08-23 06:42:43 +0000";
layers = (
{
guides = (
{
pos = (555,350);
},
{
pos = (547,98);
}
);
layerId = m002;
name = Black;
shapes = (
{
closed = 1;
nodes = (
(316,-9,o),
(427,82,o),
(442,319,c),
(384,270,l),
(378,144,o),
(317,69,o),
(240,69,cs),
(183,69,o),
(154,115,o),
(154,172,cs),
(154,230,o),
(195,339,o),
(422,389,c),
(398,447,l),
(141,373,o),
(45,263,o),
(45,150,cs),
(45,48,o),
(121,-9,o),
(208,-9,cs)
);
},
{
closed = 1;
nodes = (
(484,-284,l),
(457,-44,o),
(464,196,o),
(478,454,c),
(398,447,l),
(370,170,o),
(361,-54,o),
(380,-305,c)
);
}
);
width = 559;
},
{
guides = (
{
pos = (578,350);
},
{
pos = (570,98);
}
);
layerId = m003;
name = Black;
shapes = (
{
closed = 1;
nodes = (
(284,-14,o),
(398,62,o),
(412,299,c),
(356,268,l),
(341,176,o),
(308,154,o),
(274,154,cs),
(246,154,o),
(217,172,o),
(217,211,cs),
(217,268,o),
(292,328,o),
(442,347,c),
(380,441,l),
(136,367,o),
(27,243,o),
(27,130,cs),
(27,28,o),
(99,-14,o),
(181,-14,cs)
);
},
{
closed = 1;
nodes = (
(578,-272,l),
(555,-32,o),
(550,220,o),
(560,458,c),
(380,441,l),
(337,164,o),
(319,-60,o),
(319,-311,c)
);
}
);
width = 618;
}
);
metricLeft = o;
metricRight = l;
unicode = 113;
},
{
glyphname = r;
kernLeft = idotless_1;
kernRight = r_2;
lastChange = "2022-08-23 06:31:59 +0000";
layers = (
{
anchors = (
{
name = bottom;
pos = (143,-30);
},
{
name = top;
pos = (341,520);
}
);
layerId = m002;
name = Black;
shapes = (
{
closed = 1;
nodes = (
(200,289,o),
(255,423,o),
(424,348,c),
(445,449,l),
(294,517,o),
(145,339,o),
(138,110,c),
(180,-3,l)
);
},
{
closed = 1;
nodes = (
(188,158,o),
(189,282,o),
(163,459,c),
(81,443,l),
(96,295,o),
(95,138,o),
(75,-13,c),
(180,-3,l)
);
}
);
width = 475;
},
{
anchors = (
{
name = bottom;
pos = (156,-30);
},
{
name = top;
pos = (341,520);
}
);
layerId = m003;
name = Black;
shapes = (
{
closed = 1;
nodes = (
(281,228,o),
(316,317,o),
(500,218,c),
(528,449,l),
(374,528,o),
(253,400,o),
(243,171,c),
(260,-15,l)
);
},
{
closed = 1;
nodes = (
(271,169,o),
(269,287,o),
(239,469,c),
(61,431,l),
(76,285,o),
(66,183,o),
(40,15,c),
(260,-15,l)
);
}
);
width = 573;
}
);
metricLeft = l;
unicode = 114;
},
{
glyphname = s;
kernLeft = s_1;
kernRight = s_2;
lastChange = "2022-08-23 06:31:59 +0000";
layers = (
{
anchors = (
{
name = bottom;
pos = (214,-19);
},
{
name = cedilla;
pos = (223,17);
},
{
name = top;
pos = (227,520);
}
);
guides = (
{
pos = (-41,385);
},
{
pos = (-41,135);
}
);
layerId = m002;
name = Black;
shapes = (
{
closed = 1;
nodes = (
(325,-21,o),
(413,10,o),
(413,108,cs),
(413,258,o),
(174,231,o),
(174,345,cs),
(174,377,o),
(195,402,o),
(234,402,cs),
(274,402,o),
(329,387,o),
(366,347,c),
(399,400,l),
(350,447,o),
(278,474,o),
(215,474,cs),
(137,474,o),
(71,434,o),
(71,359,cs),
(71,204,o),
(307,198,o),
(307,108,cs),
(307,81,o),
(284,39,o),
(216,39,cs),
(149,39,o),
(98,54,o),
(51,71,c),
(45,7,l),
(97,-9,o),
(164,-21,o),
(226,-21,cs)
);
}
);
width = 458;
},
{
anchors = (
{
name = bottom;
pos = (228,-19);
},
{
name = cedilla;
pos = (237,17);
},
{
name = top;
pos = (212,520);
}
);
guides = (
{
pos = (-27,385);
},
{
pos = (-27,135);
}
);
layerId = m003;
name = Black;
shapes = (
{
closed = 1;
nodes = (
(356,-21,o),
(459,10,o),
(459,108,cs),
(459,244,o),
(242,214,o),
(242,301,cs),
(242,323,o),
(266,337,o),
(288,337,cs),
(312,337,o),
(342,324,o),
(381,284,c),
(443,400,l),
(385,447,o),
(301,474,o),
(226,474,cs),
(135,474,o),
(57,434,o),
(57,343,cs),
(57,192,o),
(235,225,o),
(235,149,cs),
(235,122,o),
(216,112,o),
(189,112,cs),
(150,112,o),
(81,139,o),
(42,160,c),
(27,7,l),
(88,-9,o),
(167,-21,o),
(239,-21,cs)
);
}
);
width = 486;
}
);
unicode = 115;
},
{
glyphname = germandbls;
kernRight = s_2;
lastChange = "2022-08-23 06:31:59 +0000";
layers = (
{
layerId = m002;
name = Black;
shapes = (
{
closed = 1;
nodes = (
(212,2,l),
(209,153,o),
(210,344,o),
(217,500,cs),
(224,671,o),
(304,745,o),
(377,745,cs),
(445,745,o),
(487,692,o),
(487,606,cs),
(487,512,o),
(420,453,o),
(305,436,c),
(312,379,l),
(470,392,o),
(592,484,o),
(592,606,cs),
(592,741,o),
(487,796,o),
(371,796,cs),
(234,796,o),
(113,692,o),
(113,465,cs),
(113,356,o),
(121,201,o),
(131,-13,c)
);
},
{
closed = 1;
nodes = (
(478,9,o),
(608,116,o),
(608,259,cs),
(608,439,o),
(423,439,o),
(318,417,c),
(312,379,l),
(360,383,o),
(508,381,o),
(508,240,cs),
(508,157,o),
(437,72,o),
(324,62,c),
(332,9,l)
);
}
);
width = 681;
},
{
layerId = m003;
name = Black;
shapes = (
{
closed = 1;
nodes = (
(262,2,l),
(259,153,o),
(257,344,o),
(265,500,cs),
(273,671,o),
(316,735,o),
(369,735,cs),
(404,735,o),
(435,701,o),
(435,639,cs),
(435,578,o),
(392,496,o),
(297,452,c),
(306,376,l),
(492,376,o),
(636,484,o),
(636,606,cs),
(636,741,o),
(512,796,o),
(376,796,cs),
(214,796,o),
(37,692,o),
(37,465,cs),
(37,356,o),
(46,201,o),
(58,-13,c)
);
},
{
closed = 1;
nodes = (
(514,9,o),
(654,116,o),
(654,259,cs),
(654,450,o),
(436,439,o),
(313,417,c),
(306,376,l),
(363,381,o),
(462,337,o),
(462,261,cs),
(462,195,o),
(434,151,o),
(310,122,c),
(330,9,l)
);
}
);
width = 681;
}
);
unicode = 223;
},
{
glyphname = t;
kernLeft = t_1;
kernRight = t_2;
lastChange = "2022-08-23 06:31:59 +0000";
layers = (
{
anchors = (
{
name = bottom;
pos = (277,-9);
},
{
name = cedilla;
pos = (289,20);
},
{
name = top;
pos = (172,787);
},
{
name = topright;
pos = (314,707);
}
);
guides = (
{
pos = (126,385);
},
{
pos = (126,135);
}
);
layerId = m002;
name = Black;
shapes = (
{
closed = 1;
nodes = (
(375,105,l),
(251,93,o),
(155,118,o),
(156,264,cs),
(157,412,o),
(171,548,o),
(191,733,c),
(76,717,l),
(74,589,o),
(73,479,o),
(81,309,cs),
(90,108,o),
(148,-16,o),
(369,-1,c)
);
},
{
closed = 1;
nodes = (
(356,457,l),
(253,469,o),
(124,463,o),
(10,436,c),
(22,376,l),
(129,394,o),
(244,399,o),
(343,377,c)
);
}
);
width = 405;
},
{
anchors = (
{
name = bottom;
pos = (297,-9);
},
{
name = cedilla;
pos = (309,20);
},
{
name = top;
pos = (192,787);
},
{
name = topright;
pos = (394,707);
}
);
guides = (
{
pos = (146,385);
},
{
pos = (146,135);
}
);
layerId = m003;
name = Black;
shapes = (
{
closed = 1;
nodes = (
(428,219,l),
(281,207,o),
(251,255,o),
(255,327,cs),
(261,441,o),
(287,588,o),
(312,743,c),
(76,717,l),
(74,589,o),
(78,432,o),
(78,339,cs),
(78,109,o),
(161,-16,o),
(420,-1,c)
);
},
{
closed = 1;
nodes = (
(404,457,l),
(283,469,o),
(132,463,o),
(-3,436,c),
(12,354,l),
(138,372,o),
(273,369,o),
(389,347,c)
);
}
);
width = 458;
}
);
unicode = 116;
},
{
glyphname = u;
kernLeft = u_1;
kernRight = i_2;
lastChange = "2022-08-23 06:42:58 +0000";
layers = (
{
anchors = (
{
name = bottom;
pos = (321,-50);
},
{
name = ogonek;
pos = (543,10);
},
{
name = top;
pos = (321,520);
}
);
guides = (
{
pos = (12,385);
},
{
pos = (12,135);
}
);
layerId = m002;
name = Black;
shapes = (
{
closed = 1;
nodes = (
(409,-10,o),
(493,207,o),
(504,331,c),
(444,456,l),
(431,239,o),
(362,45,o),
(268,45,cs),
(169,45,o),
(132,237,o),
(182,463,c),
(77,454,l),
(49,251,o),
(59,-10,o),
(246,-10,cs)
);
},
{
closed = 1;
nodes = (
(543,10,l),
(528,158,o),
(529,315,o),
(549,466,c),
(444,456,l),
(436,295,o),
(435,171,o),
(461,-6,c)
);
}
);
width = 624;
},
{
anchors = (
{
name = bottom;
pos = (341,-50);
},
{
name = ogonek;
pos = (620,16);
},
{
name = top;
pos = (341,520);
}
);
guides = (
{
pos = (48,385);
},
{
pos = (48,135);
}
);
layerId = m003;
name = Black;
shapes = (
{
closed = 1;
nodes = (
(338,-18,o),
(459,102,o),
(459,276,c),
(422,448,l),
(393,225,o),
(322,112,o),
(275,112,cs),
(186,112,o),
(255,375,o),
(289,457,c),
(41,439,l),
(20,265,o),
(32,-18,o),
(224,-18,cs)
);
},
{
closed = 1;
nodes = (
(620,16,l),
(605,162,o),
(615,296,o),
(641,464,c),
(422,448,l),
(411,264,o),
(422,160,o),
(452,-22,c)
);
}
);
width = 681;
}
);
metricRight = l;
unicode = 117;
},
{
glyphname = v;
kernLeft = v_1;
kernRight = v_2;
lastChange = "2022-08-23 06:31:59 +0000";
layers = (
{
layerId = m002;
name = Black;
shapes = (
{
closed = 1;
nodes = (
(345,0,l),
(326,36,l),
(289,163,o),
(191,337,o),
(121,465,c),
(30,451,l),
(146,278,o),
(226,147,o),
(290,-9,c)
);
},
{
closed = 1;
nodes = (
(396,141,o),
(490,320,o),
(566,456,c),
(455,471,l),
(400,353,o),
(327,178,o),
(288,37,c),
(345,0,l)
);
}
);
width = 596;
},
{
layerId = m003;
name = Black;
shapes = (
{
closed = 1;
nodes = (
(410,0,l),
(353,95,l),
(310,222,o),
(253,344,o),
(177,472,c),
(20,451,l),
(156,278,o),
(210,147,o),
(286,-9,c)
);
},
{
closed = 1;
nodes = (
(470,141,o),
(568,320,o),
(650,456,c),
(397,471,l),
(353,349,o),
(325,259,o),
(286,83,c),
(410,0,l)
);
}
);
width = 670;
}
);
unicode = 118;
},
{
glyphname = w;
kernLeft = w_1;
kernRight = w_2;
lastChange = "2022-08-23 06:31:59 +0000";
layers = (
{
anchors = (
{
name = bottom;
pos = (367,-30);
},
{
name = top;
pos = (467,520);
}
);
layerId = m002;
name = Black;
shapes = (
{
closed = 1;
nodes = (
(825,-18,o),
(860,190,o),
(829,473,c),
(727,457,l),
(770,244,o),
(733,38,o),
(620,38,cs),
(495,38,o),
(466,209,o),
(529,449,c),
(431,465,l),
(394,159,o),
(424,-18,o),
(589,-18,cs)
);
},
{
closed = 1;
nodes = (
(397,-19,o),
(442,159,o),
(454,225,c),
(431,465,l),
(396,239,o),
(353,36,o),
(249,36,cs),
(138,36,o),
(155,303,o),
(180,454,c),
(76,473,l),
(50,244,o),
(58,-19,o),
(241,-19,cs)
);
}
);
width = 904;
},
{
anchors = (
{
name = bottom;
pos = (422,-30);
},
{
name = top;
pos = (522,520);
}
);
layerId = m003;
name = Black;
shapes = (
{
closed = 1;
nodes = (
(1013,-20,o),
(1016,200,o),
(978,483,c),
(706,448,l),
(780,277,o),
(818,73,o),
(674,73,cs),
(538,73,o),
(580,284,o),
(632,441,c),
(410,472,l),
(365,181,o),
(362,-16,o),
(673,-18,cs)
);
},
{
closed = 1;
nodes = (
(362,-18,o),
(429,108,o),
(443,174,c),
(410,472,l),
(409,365,o),
(340,83,o),
(257,83,cs),
(191,83,o),
(252,343,o),
(318,448,c),
(46,483,l),
(15,254,o),
(25,-21,o),
(248,-19,cs)
);
}
);
width = 1027;
}
);
unicode = 119;
},
{
glyphname = x;
lastChange = "2022-08-23 06:31:59 +0000";
layers = (
{
layerId = m002;
name = Black;
shapes = (
{
closed = 1;
nodes = (
(521,24,l),
(411,209,o),
(251,387,o),
(76,468,c),
(30,423,l),
(154,344,o),
(318,187,o),
(416,0,c)
);
},
{
closed = 1;
nodes = (
(218,118,o),
(366,273,o),
(445,435,c),
(395,460,l),
(334,344,o),
(205,185,o),
(31,54,c),
(74,-12,l)
);
}
);
width = 551;
},
{
layerId = m003;
name = Black;
shapes = (
{
closed = 1;
nodes = (
(609,57,l),
(503,219,o),
(261,410,o),
(114,468,c),
(20,371,l),
(117,290,o),
(270,160,o),
(329,-10,c)
);
},
{
closed = 1;
nodes = (
(255,100,o),
(459,278,o),
(534,429,c),
(437,473,l),
(366,373,o),
(196,192,o),
(23,108,c),
(96,-22,l)
);
}
);
width = 629;
}
);
unicode = 120;
},
{
glyphname = y;
kernLeft = u_1;
kernRight = y_2;
lastChange = "2022-08-23 06:43:14 +0000";
layers = (
{
anchors = (
{
name = bottom;
pos = (253,-347);
},
{
name = top;
pos = (343,520);
}
);
layerId = m002;
name = Black;
shapes = (
{
closed = 1;
nodes = (
(296,-315,o),
(478,-286,o),
(520,-35,cs),
(546,119,o),
(545,299,o),
(541,482,c),
(445,450,l),
(445,190,o),
(457,132,o),
(436,-23,cs),
(406,-249,o),
(246,-246,o),
(77,-122,c),
(40,-219,l)
);
},
{
closed = 1;
nodes = (
(407,-10,o),
(481,207,o),
(492,331,c),
(445,450,l),
(432,233,o),
(360,45,o),
(266,45,cs),
(167,45,o),
(130,237,o),
(180,463,c),
(75,454,l),
(47,251,o),
(57,-10,o),
(244,-10,cs)
);
}
);
width = 618;
},
{
anchors = (
{
name = bottom;
pos = (295,-347);
},
{
name = top;
pos = (343,520);
}
);
layerId = m003;
name = Black;
shapes = (
{
closed = 1;
nodes = (
(318,-356,o),
(540,-315,o),
(600,-25,cs),
(624,91,o),
(641,299,o),
(633,482,c),
(397,450,l),
(435,231,o),
(451,87,o),
(435,-30,cs),
(412,-200,o),
(328,-195,o),
(159,-71,c),
(62,-260,l)
);
},
{
closed = 1;
nodes = (
(342,-16,o),
(464,116,o),
(464,290,c),
(397,450,l),
(368,227,o),
(326,114,o),
(279,114,cs),
(190,114,o),
(259,367,o),
(293,449,c),
(45,461,l),
(24,287,o),
(46,-16,o),
(228,-16,cs)
);
}
);
width = 675;
}
);
metricRight = l;
unicode = 121;
},
{
glyphname = z;
kernLeft = z_1;
kernRight = z_2;
lastChange = "2022-08-23 06:31:59 +0000";
layers = (
{
anchors = (
{
name = bottom;
pos = (319,-20);
},
{
name = top;
pos = (319,520);
}
);
guides = (
{
pos = (109,389);
},
{
pos = (162,135);
}
);
layerId = m002;
name = Black;
shapes = (
{
closed = 1;
nodes = (
(296,135,o),
(419,263,o),
(503,400,c),
(396,420,l),
(313,282,o),
(193,159,o),
(55,63,c),
(129,39,l)
);
},
{
closed = 1;
nodes = (
(485,70,l),
(366,84,o),
(220,68,o),
(111,53,c),
(55,63,l),
(66,-2,l),
(169,9,o),
(297,15,o),
(461,-9,c)
);
},
{
closed = 1;
nodes = (
(242,369,o),
(366,370,o),
(503,400,c),
(492,442,l),
(396,425,o),
(243,420,o),
(79,459,c),
(61,384,l)
);
}
);
width = 558;
},
{
anchors = (
{
name = bottom;
pos = (299,-20);
},
{
name = top;
pos = (299,520);
}
);
guides = (
{
pos = (106,389);
},
{
pos = (159,135);
}
);
layerId = m003;
name = Black;
shapes = (
{
closed = 1;
nodes = (
(360,154,o),
(464,263,o),
(550,400,c),
(291,423,l),
(244,312,o),
(164,185,o),
(32,85,c),
(179,35,l)
);
},
{
closed = 1;
nodes = (
(516,116,l),
(392,116,o),
(265,96,o),
(173,76,c),
(32,85,l),
(44,-2,l),
(166,0,o),
(296,15,o),
(489,-11,c)
);
},
{
closed = 1;
nodes = (
(249,349,o),
(357,339,o),
(550,400,c),
(537,472,l),
(425,455,o),
(254,439,o),
(61,489,c),
(37,364,l)
);
}
);
width = 582;
}
);
unicode = 122;
},
{
glyphname = f_f;
kernLeft = f_1;
kernRight = f_2;
lastChange = "2022-08-23 06:43:24 +0000";
layers = (
{
layerId = m002;
shapes = (
{
closed = 1;
nodes = (
(480,156,o),
(472,349,o),
(465,435,cs),
(449,621,o),
(541,667,o),
(690,650,c),
(683,742,l),
(499,742,o),
(385,650,o),
(385,357,cs),
(385,262,o),
(389,133,o),
(391,0,c),
(494,-2,l)
);
},
{
closed = 1;
nodes = (
(170,156,o),
(162,349,o),
(155,435,cs),
(139,621,o),
(231,667,o),
(380,650,c),
(373,742,l),
(189,742,o),
(75,650,o),
(75,357,cs),
(75,262,o),
(79,133,o),
(81,0,c),
(184,-2,l)
);
},
{
closed = 1;
nodes = (
(622,451,l),
(447,463,o),
(224,460,o),
(28,452,c),
(41,401,l),
(224,408,o),
(436,404,o),
(600,386,c)
);
}
);
width = 737;
},
{
layerId = m003;
shapes = (
{
closed = 1;
nodes = (
(659,156,o),
(619,364,o),
(608,450,cs),
(591,589,o),
(659,606,o),
(800,572,c),
(782,742,l),
(565,742,o),
(451,624,o),
(443,357,cs),
(440,262,o),
(436,133,o),
(438,0,c),
(694,-2,l)
);
},
{
closed = 1;
nodes = (
(302,156,o),
(262,364,o),
(251,450,cs),
(234,589,o),
(302,606,o),
(443,572,c),
(425,742,l),
(208,742,o),
(94,624,o),
(86,357,cs),
(83,262,o),
(79,133,o),
(81,0,c),
(337,-2,l)
);
},
{
closed = 1;
nodes = (
(752,435,l),
(632,458,o),
(142,470,o),
(5,456,c),
(23,380,l),
(150,386,o),
(624,367,o),
(737,334,c)
);
}
);
width = 819;
}
);
metricLeft = f;
metricRight = f;
},
{
glyphname = f_i;
kernLeft = f_1;
kernRight = i_2;
lastChange = "2022-08-23 06:31:59 +0000";
layers = (
{
layerId = m002;
shapes = (
{
closed = 1;
nodes = (
(170,156,o),
(162,349,o),
(155,435,cs),
(139,621,o),
(231,667,o),
(380,650,c),
(373,742,l),
(189,742,o),
(75,650,o),
(75,357,cs),
(75,262,o),
(79,133,o),
(81,0,c),
(184,-2,l)
);
},
{
closed = 1;
nodes = (
(479,456,l),
(304,457,o),
(224,459,o),
(28,452,c),
(41,401,l),
(224,407,o),
(293,398,o),
(457,391,c)
);
},
{
closed = 1;
nodes = (
(483,184,o),
(489,297,o),
(479,456,c),
(375,443,l),
(393,295,o),
(391,138,o),
(381,-2,c),
(459,5,l)
);
}
);
width = 559;
},
{
layerId = m003;
shapes = (
{
closed = 1;
nodes = (
(302,156,o),
(262,364,o),
(251,450,cs),
(234,589,o),
(302,606,o),
(443,572,c),
(425,742,l),
(208,742,o),
(94,624,o),
(86,357,cs),
(83,262,o),
(79,133,o),
(81,0,c),
(337,-2,l)
);
},
{
closed = 1;
nodes = (
(625,435,l),
(505,458,o),
(142,470,o),
(5,456,c),
(23,380,l),
(150,386,o),
(497,367,o),
(610,334,c)
);
},
{
closed = 1;
nodes = (
(620,181,o),
(625,319,o),
(625,435,c),
(387,448,l),
(410,298,o),
(419,149,o),
(415,-10,c),
(589,8,l)
);
}
);
width = 672;
}
);
metricLeft = f;
metricRight = i;
},
{
glyphname = f_j;
kernLeft = f_1;
kernRight = j_2;
lastChange = "2022-08-23 06:31:59 +0000";
layers = (
{
layerId = m002;
shapes = (
{
closed = 1;
nodes = (
(170,156,o),
(162,349,o),
(155,435,cs),
(139,621,o),
(231,667,o),
(380,650,c),
(373,742,l),
(189,742,o),
(75,650,o),
(75,357,cs),
(75,262,o),
(79,133,o),
(81,0,c),
(184,-2,l)
);
},
{
closed = 1;
nodes = (
(369,-272,o),
(459,-180,o),
(478,48,cs),
(488,167,o),
(486,278,o),
(479,456,c),
(369,439,l),
(392,222,o),
(394,115,o),
(390,10,cs),
(385,-117,o),
(350,-212,o),
(178,-198,c),
(187,-256,l)
);
},
{
closed = 1;
nodes = (
(479,456,l),
(304,457,o),
(224,459,o),
(28,452,c),
(41,401,l),
(224,407,o),
(293,398,o),
(457,391,c)
);
}
);
width = 578;
},
{
layerId = m003;
shapes = (
{
closed = 1;
nodes = (
(302,156,o),
(262,364,o),
(251,450,cs),
(234,589,o),
(302,606,o),
(443,572,c),
(425,742,l),
(208,742,o),
(94,624,o),
(86,357,cs),
(83,262,o),
(79,133,o),
(81,0,c),
(337,-2,l)
);
},
{
closed = 1;
nodes = (
(495,-299,o),
(601,-207,o),
(623,21,cs),
(635,140,o),
(633,257,o),
(625,435,c),
(363,397,l),
(396,197,o),
(420,88,o),
(420,-17,cs),
(420,-144,o),
(392,-194,o),
(263,-183,c),
(281,-283,l)
);
},
{
closed = 1;
nodes = (
(625,435,l),
(505,458,o),
(142,470,o),
(5,456,c),
(23,380,l),
(150,386,o),
(497,367,o),
(610,334,c)
);
}
);
width = 663;
}
);
metricLeft = f;
metricRight = j;
},
{
glyphname = f_t;
kernLeft = f_1;
kernRight = t_2;
lastChange = "2022-08-23 06:43:38 +0000";
layers = (
{
layerId = m002;
shapes = (
{
closed = 1;
nodes = (
(170,156,o),
(162,349,o),
(155,435,cs),
(139,621,o),
(231,667,o),
(380,650,c),
(373,742,l),
(189,742,o),
(75,650,o),
(75,357,cs),
(75,262,o),
(79,133,o),
(81,0,c),
(184,-2,l)
);
},
{
closed = 1;
nodes = (
(622,451,l),
(447,463,o),
(224,460,o),
(28,452,c),
(41,401,l),
(224,408,o),
(436,404,o),
(600,386,c)
);
},
{
closed = 1;
nodes = (
(715,105,l),
(591,93,o),
(495,118,o),
(496,264,cs),
(497,412,o),
(511,548,o),
(531,733,c),
(416,717,l),
(414,589,o),
(413,479,o),
(421,309,cs),
(430,108,o),
(488,-16,o),
(709,-1,c)
);
}
);
width = 745;
},
{
layerId = m003;
shapes = (
{
closed = 1;
nodes = (
(302,156,o),
(262,364,o),
(251,450,cs),
(234,589,o),
(302,606,o),
(443,572,c),
(425,742,l),
(208,742,o),
(94,624,o),
(86,357,cs),
(83,262,o),
(79,133,o),
(81,0,c),
(337,-2,l)
);
},
{
closed = 1;
nodes = (
(752,435,l),
(632,458,o),
(142,470,o),
(5,456,c),
(23,380,l),
(150,386,o),
(624,367,o),
(737,334,c)
);
},
{
closed = 1;
nodes = (
(818,219,l),
(671,207,o),
(641,255,o),
(645,327,cs),
(651,441,o),
(677,588,o),
(702,743,c),
(466,717,l),
(464,589,o),
(468,432,o),
(468,339,cs),
(468,109,o),
(551,-16,o),
(810,-1,c)
);
}
);
width = 848;
}
);
metricLeft = f;
metricRight = t;
},
{
glyphname = f_y;
kernLeft = f_1;
kernRight = y_2;
lastChange = "2022-08-23 06:43:52 +0000";
layers = (
{
layerId = m002;
shapes = (
{
closed = 1;
nodes = (
(170,156,o),
(162,349,o),
(155,435,cs),
(139,621,o),
(231,667,o),
(380,650,c),
(373,742,l),
(189,742,o),
(75,650,o),
(75,357,cs),
(75,262,o),
(79,133,o),
(81,0,c),
(184,-2,l)
);
},
{
closed = 1;
nodes = (
(479,456,l),
(304,457,o),
(224,459,o),
(28,452,c),
(41,401,l),
(224,407,o),
(293,398,o),
(457,391,c)
);
},
{
closed = 1;
nodes = (
(595,-322,o),
(767,-293,o),
(819,-42,cs),
(851,112,o),
(844,292,o),
(850,475,c),
(744,443,l),
(744,183,o),
(756,125,o),
(735,-30,cs),
(705,-256,o),
(545,-253,o),
(376,-129,c),
(339,-226,l)
);
},
{
closed = 1;
nodes = (
(706,-17,o),
(790,200,o),
(801,324,c),
(744,443,l),
(731,226,o),
(659,38,o),
(565,38,cs),
(466,38,o),
(429,230,o),
(479,456,c),
(374,447,l),
(346,244,o),
(356,-17,o),
(543,-17,cs)
);
}
);
width = 925;
},
{
layerId = m003;
shapes = (
{
closed = 1;
nodes = (
(302,156,o),
(262,364,o),
(251,450,cs),
(234,589,o),
(302,606,o),
(443,572,c),
(425,742,l),
(208,742,o),
(94,624,o),
(86,357,cs),
(83,262,o),
(79,133,o),
(81,0,c),
(337,-2,l)
);
},
{
closed = 1;
nodes = (
(625,435,l),
(505,458,o),
(142,470,o),
(5,456,c),
(23,380,l),
(150,386,o),
(497,367,o),
(560,334,c)
);
},
{
closed = 1;
nodes = (
(650,-370,o),
(872,-329,o),
(932,-39,cs),
(956,77,o),
(969,285,o),
(975,468,c),
(729,436,l),
(767,217,o),
(783,73,o),
(767,-44,cs),
(744,-214,o),
(660,-209,o),
(491,-85,c),
(394,-274,l)
);
},
{
closed = 1;
nodes = (
(674,-30,o),
(796,102,o),
(796,276,c),
(729,436,l),
(700,213,o),
(658,100,o),
(611,100,cs),
(522,100,o),
(591,353,o),
(625,435,c),
(377,447,l),
(356,273,o),
(378,-30,o),
(560,-30,cs)
);
}
);
width = 1015;
}
);
metricLeft = f;
metricRight = y;
},
{
glyphname = t_t;
kernLeft = t_1;
kernRight = t_2;
lastChange = "2022-08-23 06:31:59 +0000";
layers = (
{
layerId = m002;
shapes = (
{
closed = 1;
nodes = (
(362,90,l),
(213,73,o),
(121,119,o),
(137,305,cs),
(144,391,o),
(152,584,o),
(166,742,c),
(63,740,l),
(61,607,o),
(57,478,o),
(57,383,cs),
(57,90,o),
(171,-2,o),
(355,-2,c)
);
},
{
closed = 1;
nodes = (
(604,451,l),
(429,463,o),
(206,460,o),
(10,452,c),
(23,401,l),
(206,408,o),
(418,404,o),
(582,386,c)
);
},
{
closed = 1;
nodes = (
(697,105,l),
(573,93,o),
(477,118,o),
(478,264,cs),
(479,412,o),
(493,548,o),
(513,733,c),
(398,717,l),
(396,589,o),
(395,479,o),
(403,309,cs),
(412,108,o),
(470,-16,o),
(691,-1,c)
);
}
);
width = 727;
},
{
layerId = m003;
shapes = (
{
closed = 1;
nodes = (
(435,168,l),
(294,134,o),
(226,151,o),
(243,290,cs),
(254,376,o),
(294,584,o),
(329,742,c),
(73,740,l),
(71,607,o),
(75,478,o),
(78,383,cs),
(86,116,o),
(200,-2,o),
(417,-2,c)
);
},
{
closed = 1;
nodes = (
(744,435,l),
(624,458,o),
(134,470,o),
(-3,456,c),
(15,380,l),
(142,386,o),
(616,367,o),
(729,334,c)
);
},
{
closed = 1;
nodes = (
(810,219,l),
(663,207,o),
(633,255,o),
(637,327,cs),
(643,441,o),
(669,588,o),
(694,743,c),
(458,717,l),
(456,589,o),
(460,432,o),
(460,339,cs),
(460,109,o),
(543,-16,o),
(802,-1,c)
);
}
);
width = 840;
}
);
metricLeft = t;
metricRight = t;
},
{
glyphname = "hamza-ar";
lastChange = "2022-08-23 06:31:59 +0000";
layers = (
{
anchors = (
{
name = bottom;
pos = (242,-150);
},
{
name = top;
pos = (233,450);
}
);
layerId = m002;
shapes = (
{
closed = 1;
nodes = (
(440,61,l),
(402,141,l),
(347,116,o),
(283,96,o),
(230,96,cs),
(167,96,o),
(117,122,o),
(117,187,cs),
(117,241,o),
(161,276,o),
(215,276,cs),
(251,276,o),
(293,259,o),
(332,214,c),
(400,291,l),
(353,345,o),
(289,368,o),
(228,368,cs),
(128,368,o),
(40,310,o),
(40,202,cs),
(40,111,o),
(107,36,o),
(236,36,c),
(281,42,l)
);
},
{
closed = 1;
nodes = (
(220,-25,o),
(295,29,o),
(440,61,c),
(359,95,l),
(241,72,o),
(129,22,o),
(71,-32,c),
(140,-110,l)
);
}
);
width = 480;
},
{
anchors = (
{
name = bottom;
pos = (242,-150);
},
{
name = top;
pos = (233,450);
}
);
layerId = m003;
shapes = (
{
closed = 1;
nodes = (
(460,47,l),
(408,156,l),
(359,126,o),
(304,104,o),
(236,104,cs),
(183,104,o),
(141,124,o),
(141,156,cs),
(141,183,o),
(171,198,o),
(202,198,cs),
(236,198,o),
(271,186,o),
(298,160,c),
(417,296,l),
(362,360,o),
(290,374,o),
(222,374,cs),
(115,374,o),
(20,313,o),
(20,202,cs),
(20,111,o),
(87,31,o),
(226,31,c),
(262,15,l)
);
},
{
closed = 1;
nodes = (
(241,-46,o),
(311,8,o),
(460,47,c),
(357,83,l),
(229,70,o),
(85,49,o),
(27,-5,c),
(149,-143,l)
);
}
);
width = 480;
}
);
unicode = 1569;
},
{
glyphname = "alef-ar";
kernRight = Alef_1;
lastChange = "2022-08-23 06:31:59 +0000";
layers = (
{
anchors = (
{
name = bottom;
pos = (136,-100);
},
{
name = top;
pos = (136,770);
}
);
layerId = m002;
shapes = (
{
closed = 1;
nodes = (
(166,1,l),
(191,218,o),
(198,463,o),
(190,734,c),
(80,717,l),
(112,455,o),
(116,238,o),
(106,-14,c)
);
}
);
width = 273;
},
{
anchors = (
{
name = bottom;
pos = (166,-100);
},
{
name = top;
pos = (166,770);
}
);
layerId = m003;
shapes = (
{
closed = 1;
nodes = (
(221,5,l),
(274,222,o),
(300,463,o),
(296,734,c),
(40,692,l),
(80,430,o),
(97,266,o),
(97,-31,c)
);
}
);
width = 336;
}
);
unicode = 1575;
},
{
glyphname = "alef-ar.salt";
kernRight = Alef_1;
lastChange = "2022-08-23 06:31:59 +0000";
layers = (
{
anchors = (
{
name = bottom;
pos = (141,-100);
},
{
name = top;
pos = (131,720);
}
);
layerId = m002;
shapes = (
{
closed = 1;
nodes = (
(166,-1,l),
(191,199,o),
(198,426,o),
(190,676,c),
(80,661,l),
(112,419,o),
(116,218,o),
(106,-15,c)
);
}
);
width = 273;
},
{
anchors = (
{
name = bottom;
pos = (166,-100);
},
{
name = top;
pos = (166,720);
}
);
layerId = m003;
shapes = (
{
closed = 1;
nodes = (
(211,-1,l),
(264,180,o),
(300,461,o),
(296,687,c),
(40,652,l),
(80,433,o),
(87,217,o),
(87,-31,c)
);
}
);
width = 336;
}
);
},
{
glyphname = "alef-ar.fina";
lastChange = "2022-09-17 02:47:06 +0000";
layers = (
{
anchors = (
{
name = bottom;
pos = (136,-100);
},
{
name = top;
pos = (136,770);
}
);
layerId = m002;
shapes = (
{
closed = 1;
nodes = (
(313,25,l),
(293,50,l),
(220,50,o),
(183,101,o),
(175,202,cs),
(163,356,o),
(175,521,o),
(188,730,c),
(80,718,l),
(78,496,o),
(83,325,o),
(99,194,cs),
(118,42,o),
(201,0,o),
(293,0,c)
);
}
);
width = 293;
},
{
anchors = (
{
name = bottom;
pos = (166,-100);
},
{
name = top;
pos = (166,770);
}
);
layerId = m003;
shapes = (
{
closed = 1;
nodes = (
(346,50,l),
(326,100,l),
(259,100,o),
(246,161,o),
(248,254,cs),
(251,383,o),
(272,573,o),
(296,740,c),
(40,712,l),
(41,559,o),
(45,383,o),
(70,225,cs),
(93,78,o),
(183,0,o),
(326,0,c)
);
}
);
width = 326;
}
);
},
{
glyphname = "alef-ar.fina.salt";
lastChange = "2022-09-17 02:48:31 +0000";
layers = (
{
anchors = (
{
name = bottom;
pos = (141,-100);
},
{
name = top;
pos = (131,720);
}
);
layerId = m002;
shapes = (
{
closed = 1;
nodes = (
(313,25,l),
(293,50,l),
(220,50,o),
(183,101,o),
(175,202,cs),
(163,356,o),
(175,518,o),
(188,682,c),
(80,670,l),
(78,493,o),
(83,325,o),
(99,194,cs),
(118,42,o),
(201,0,o),
(293,0,c)
);
}
);
width = 293;
},
{
anchors = (
{
name = bottom;
pos = (166,-100);
},
{
name = top;
pos = (166,720);
}
);
layerId = m003;
shapes = (
{
closed = 1;
nodes = (
(347,50,l),
(327,100,l),
(260,100,o),
(242,161,o),
(249,254,cs),
(257,363,o),
(275,536,o),
(296,690,c),
(40,662,l),
(44,522,o),
(51,363,o),
(71,225,cs),
(92,78,o),
(184,0,o),
(327,0,c)
);
}
);
width = 327;
}
);
},
{
color = 11;
glyphname = "behDotless-ar";
kernRight = "beh-isol_1";
lastChange = "2022-08-23 06:31:59 +0000";
layers = (
{
anchors = (
{
name = bottom;
pos = (487,-107);
},
{
name = top;
pos = (447,500);
}
);
layerId = m002;
shapes = (
{
closed = 1;
nodes = (
(684,-7,o),
(780,96,o),
(780,239,cs),
(780,296,o),
(771,347,o),
(753,400,c),
(651,366,l),
(672,316,o),
(685,258,o),
(685,215,cs),
(685,117,o),
(614,50,o),
(490,50,cs),
(380,50,o),
(210,95,o),
(135,280,c),
(40,220,l),
(156,37,o),
(343,-7,o),
(487,-7,cs)
);
}
);
width = 840;
},
{
anchors = (
{
name = bottom;
pos = (476,-75);
},
{
name = top;
pos = (447,500);
}
);
layerId = m003;
shapes = (
{
closed = 1;
nodes = (
(719,-7,o),
(820,117,o),
(820,269,cs),
(820,315,o),
(813,362,o),
(801,410,c),
(552,329,l),
(575,272,o),
(587,232,o),
(587,191,cs),
(587,137,o),
(549,100,o),
(484,100,cs),
(387,100,o),
(282,177,o),
(236,350,c),
(20,220,l),
(138,37,o),
(321,-7,o),
(481,-7,cs)
);
}
);
width = 850;
}
);
unicode = 1646;
},
{
color = 11;
glyphname = "behDotless-ar.fina";
lastChange = "2022-09-17 02:47:16 +0000";
layers = (
{
anchors = (
{
name = bottom;
pos = (487,-107);
},
{
name = top;
pos = (447,500);
}
);
layerId = m002;
shapes = (
{
closed = 1;
nodes = (
(650,-7,o),
(747,74,o),
(747,172,c),
(775,202,l),
(775,265,o),
(771,302,o),
(760,350,c),
(650,318,l),
(693,217,o),
(689,50,o),
(490,50,cs),
(380,50,o),
(210,95,o),
(135,280,c),
(40,220,l),
(156,37,o),
(343,-7,o),
(487,-7,cs)
);
},
{
closed = 1;
nodes = (
(890,25,l),
(870,50,l),
(816,50,o),
(775,96,o),
(775,202,c),
(712,202,l),
(712,50,o),
(788,0,o),
(870,0,c)
);
}
);
width = 870;
},
{
anchors = (
{
name = bottom;
pos = (476,-75);
},
{
name = top;
pos = (447,500);
}
);
layerId = m003;
shapes = (
{
closed = 1;
nodes = (
(651,-7,o),
(750,64,o),
(750,172,c),
(812,202,l),
(812,265,o),
(815,306,o),
(806,360,c),
(552,289,l),
(595,202,o),
(595,100,o),
(484,100,cs),
(387,100,o),
(282,177,o),
(236,350,c),
(20,220,l),
(138,37,o),
(321,-7,o),
(481,-7,c)
);
},
{
closed = 1;
nodes = (
(900,50,l),
(880,100,l),
(840,100,o),
(812,131,o),
(812,202,c),
(705,202,l),
(705,68,o),
(769,0,o),
(880,0,c)
);
}
);
width = 880;
}
);
},
{
color = 11;
glyphname = "behDotless-ar.medi";
lastChange = "2022-09-17 02:47:25 +0000";
layers = (
{
anchors = (
{
name = bottom;
pos = (180,-107);
},
{
name = top;
pos = (181,500);
}
);
layerId = m002;
shapes = (
{
closed = 1;
nodes = (
(110,0,o),
(207,74,o),
(207,172,c),
(235,202,l),
(235,244,o),
(237,287,o),
(240,331,c),
(130,317,l),
(145,139,o),
(113,50,o),
(0,50,c),
(0,0,l)
);
},
{
closed = 1;
nodes = (
(370,25,l),
(350,50,l),
(277,50,o),
(235,101,o),
(235,202,c),
(172,202,l),
(172,50,o),
(258,0,o),
(350,0,c)
);
}
);
width = 350;
},
{
anchors = (
{
name = bottom;
pos = (175,-75);
},
{
name = top;
pos = (186,500);
}
);
layerId = m003;
shapes = (
{
closed = 1;
nodes = (
(138,0,o),
(241,64,o),
(241,172,c),
(308,202,l),
(308,232,o),
(311,275,o),
(320,340,c),
(52,305,l),
(91,173,o),
(65,100,o),
(0,100,c),
(0,0,l)
);
},
{
closed = 1;
nodes = (
(400,50,l),
(380,100,l),
(330,100,o),
(308,131,o),
(308,202,c),
(196,202,l),
(196,68,o),
(259,0,o),
(380,0,c)
);
}
);
width = 380;
}
);
},
{
color = 11;
glyphname = "behDotless-ar.medi.calt";
lastChange = "2022-09-17 02:49:14 +0000";
layers = (
{
anchors = (
{
name = bottom;
pos = (180,-107);
},
{
name = top;
pos = (186,500);
}
);
layerId = m002;
shapes = (
{
closed = 1;
nodes = (
(183,0,o),
(247,103,o),
(238,261,c),
(133,246,l),
(146,111,o),
(106,50,o),
(0,50,c),
(0,0,l)
);
},
{
closed = 1;
nodes = (
(370,25,l),
(350,50,l),
(245,50,o),
(213,128,o),
(213,224,c),
(168,190,l),
(168,98,o),
(213,0,o),
(350,0,c)
);
}
);
width = 350;
},
{
anchors = (
{
name = bottom;
pos = (175,-75);
},
{
name = top;
pos = (186,550);
}
);
layerId = m003;
shapes = (
{
closed = 1;
nodes = (
(177,0,o),
(334,61,o),
(317,270,c),
(64,235,l),
(94,137,o),
(57,100,o),
(0,100,c),
(0,0,l)
);
},
{
closed = 1;
nodes = (
(400,50,l),
(380,100,l),
(341,100,o),
(280,124,o),
(280,222,c),
(196,207,l),
(196,70,o),
(280,0,o),
(380,0,c)
);
}
);
width = 380;
}
);
},
{
color = 11;
glyphname = "behDotless-ar.init";
kernRight = "behDotless-init_1";
lastChange = "2022-08-23 06:31:59 +0000";
layers = (
{
anchors = (
{
name = bottom;
pos = (173,-107);
},
{
name = top;
pos = (173,500);
}
);
layerId = m002;
shapes = (
{
closed = 1;
nodes = (
(182,0,o),
(250,106,o),
(250,287,cs),
(250,332,o),
(246,370,o),
(238,421,c),
(128,396,l),
(143,339,o),
(155,285,o),
(155,226,cs),
(155,125,o),
(119,50,o),
(0,50,c),
(0,0,l)
);
}
);
width = 310;
},
{
anchors = (
{
name = bottom;
pos = (175,-75);
},
{
name = top;
pos = (186,500);
}
);
layerId = m003;
shapes = (
{
closed = 1;
nodes = (
(225,0,o),
(310,115,o),
(310,306,cs),
(310,345,o),
(307,386,o),
(300,429,c),
(50,369,l),
(65,314,o),
(82,249,o),
(82,197,cs),
(82,141,o),
(63,100,o),
(0,100,c),
(0,0,l)
);
}
);
width = 350;
}
);
},
{
glyphname = "tcheh-ar";
lastChange = "2022-08-23 06:31:59 +0000";
layers = (
{
anchors = (
{
name = _center;
pos = (345,-95);
},
{
name = bottom;
pos = (341,-471);
},
{
name = top;
pos = (336,500);
}
);
layerId = m002;
shapes = (
{
ref = "hah-ar";
},
{
closed = 1;
nodes = (
(406,-153,l),
(383,-138,o),
(365,-122,o),
(347,-102,c),
(298,-155,l),
(312,-174,o),
(334,-191,o),
(356,-205,c)
);
},
{
closed = 1;
nodes = (
(352,-53,l),
(327,-36,o),
(308,-18,o),
(288,4,c),
(233,-55,l),
(249,-76,o),
(273,-95,o),
(297,-110,c)
);
},
{
closed = 1;
nodes = (
(457,-53,l),
(432,-36,o),
(413,-18,o),
(393,4,c),
(338,-55,l),
(354,-76,o),
(378,-95,o),
(402,-110,c)
);
}
);
width = 640;
},
{
anchors = (
{
name = _center;
pos = (356.5,-89.75);
},
{
name = bottom;
pos = (338,-470);
},
{
name = top;
pos = (338,521);
}
);
layerId = m003;
shapes = (
{
ref = "hah-ar";
},
{
closed = 1;
nodes = (
(425,-145,l),
(398,-127,o),
(378,-109,o),
(357,-85,c),
(298,-148,l),
(315,-170,o),
(341,-190,o),
(366,-206,c)
);
},
{
closed = 1;
nodes = (
(381,-40,l),
(350,-20,o),
(327,0,o),
(304,27,c),
(239,-43,l),
(258,-67,o),
(287,-90,o),
(315,-108,c)
);
},
{
closed = 1;
nodes = (
(474,-40,l),
(444,-20,o),
(421,0,o),
(398,27,c),
(333,-43,l),
(352,-67,o),
(381,-90,o),
(408,-108,c)
);
}
);
width = 630;
}
);
unicode = 1670;
},
{
glyphname = "tcheh-ar.fina";
lastChange = "2022-08-23 06:31:59 +0000";
layers = (
{
anchors = (
{
name = _center;
pos = (345,-95);
},
{
name = bottom;
pos = (341,-471);
},
{
name = top;
pos = (336,500);
}
);
layerId = m002;
shapes = (
{
ref = "hah-ar.fina";
},
{
closed = 1;
nodes = (
(406,-153,l),
(383,-138,o),
(365,-122,o),
(347,-102,c),
(298,-155,l),
(312,-174,o),
(334,-191,o),
(356,-205,c)
);
},
{
closed = 1;
nodes = (
(352,-53,l),
(327,-36,o),
(308,-18,o),
(288,4,c),
(233,-55,l),
(249,-76,o),
(273,-95,o),
(297,-110,c)
);
},
{
closed = 1;
nodes = (
(457,-53,l),
(432,-36,o),
(413,-18,o),
(393,4,c),
(338,-55,l),
(354,-76,o),
(378,-95,o),
(402,-110,c)
);
}
);
width = 620;
},
{
anchors = (
{
name = _center;
pos = (356.5,-79.75);
},
{
name = bottom;
pos = (338,-470);
},
{
name = top;
pos = (338,521);
}
);
layerId = m003;
shapes = (
{
ref = "hah-ar.fina";
},
{
closed = 1;
nodes = (
(425,-135,l),
(398,-117,o),
(378,-99,o),
(357,-75,c),
(298,-138,l),
(315,-160,o),
(341,-180,o),
(366,-196,c)
);
},
{
closed = 1;
nodes = (
(381,-30,l),
(350,-10,o),
(327,10,o),
(304,37,c),
(239,-33,l),
(258,-57,o),
(287,-80,o),
(315,-98,c)
);
},
{
closed = 1;
nodes = (
(474,-30,l),
(444,-10,o),
(421,10,o),
(398,37,c),
(333,-33,l),
(352,-57,o),
(381,-80,o),
(408,-98,c)
);
}
);
width = 630;
}
);
},
{
color = 4;
glyphname = "hah-ar";
lastChange = "2022-08-23 06:31:59 +0000";
layers = (
{
anchors = (
{
name = bottom;
pos = (341,-471);
},
{
name = top;
pos = (336,500);
}
);
layerId = m002;
shapes = (
{
closed = 1;
nodes = (
(442,-421,o),
(522,-406,o),
(600,-378,c),
(553,-284,l),
(491,-317,o),
(419,-334,o),
(352,-334,cs),
(227,-334,o),
(115,-272,o),
(115,-140,cs),
(115,44,o),
(317,162,o),
(580,162,c),
(592,249,l),
(508,247,l),
(282,247,o),
(60,87,o),
(60,-140,cs),
(60,-337,o),
(198,-421,o),
(369,-421,cs)
);
},
{
closed = 1;
nodes = (
(592,249,l),
(422,322,o),
(232,411,o),
(62,390,c),
(84,285,l),
(271,321,o),
(399,262,o),
(574,212,c)
);
}
);
width = 640;
},
{
anchors = (
{
name = bottom;
pos = (338,-470);
},
{
name = top;
pos = (338,521);
}
);
layerId = m003;
shapes = (
{
closed = 1;
nodes = (
(428,-420,o),
(515,-404,o),
(600,-372,c),
(499,-173,l),
(437,-213,o),
(357,-236,o),
(290,-236,cs),
(210,-236,o),
(147,-204,o),
(147,-129,cs),
(147,-20,o),
(289,95,o),
(562,95,c),
(590,319,l),
(448,251,l),
(229,217,o),
(40,80,o),
(40,-147,cs),
(40,-337,o),
(175,-420,o),
(350,-420,cs)
);
},
{
closed = 1;
nodes = (
(590,319,l),
(351,413,o),
(190,449,o),
(40,420,c),
(84,185,l),
(226,270,o),
(403,259,o),
(557,220,c)
);
}
);
width = 630;
}
);
unicode = 1581;
},
{
color = 4;
glyphname = "hah-ar.fina";
lastChange = "2022-09-17 02:51:00 +0000";
layers = (
{
anchors = (
{
name = bottom;
pos = (341,-471);
},
{
name = top;
pos = (336,500);
}
);
layerId = m002;
shapes = (
{
closed = 1;
nodes = (
(255,320,o),
(389,252,o),
(562,212,c),
(580,249,l),
(400,321,o),
(220,411,o),
(50,390,c),
(72,285,l)
);
},
{
closed = 1;
nodes = (
(422,-420,o),
(496,-408,o),
(580,-385,c),
(535,-291,l),
(466,-317,o),
(400,-331,o),
(339,-331,cs),
(213,-331,o),
(105,-273,o),
(105,-140,cs),
(105,44,o),
(295,162,o),
(568,162,c),
(580,249,l),
(486,243,l),
(247,243,o),
(50,87,o),
(50,-140,cs),
(50,-339,o),
(182,-420,o),
(355,-420,cs)
);
},
{
closed = 1;
nodes = (
(640,25,l),
(620,50,l),
(537,50,o),
(475,101,o),
(475,202,c),
(412,202,l),
(412,50,o),
(518,0,o),
(620,0,c)
);
}
);
width = 620;
},
{
anchors = (
{
name = bottom;
pos = (338,-470);
},
{
name = top;
pos = (338,521);
}
);
layerId = m003;
shapes = (
{
closed = 1;
nodes = (
(232,294,o),
(398,301,o),
(557,260,c),
(590,359,l),
(380,440,o),
(183,468,o),
(40,440,c),
(84,205,l)
);
},
{
closed = 1;
nodes = (
(417,-422,o),
(488,-409,o),
(600,-372,c),
(499,-173,l),
(435,-214,o),
(362,-236,o),
(299,-236,cs),
(214,-236,o),
(147,-195,o),
(147,-106,cs),
(147,0,o),
(289,145,o),
(562,145,c),
(590,359,l),
(448,291,l),
(229,257,o),
(40,80,o),
(40,-147,cs),
(40,-321,o),
(178,-422,o),
(336,-422,cs)
);
},
{
closed = 1;
nodes = (
(650,50,l),
(630,100,l),
(547,100,o),
(497,119,o),
(497,202,c),
(375,202,l),
(376,68,o),
(479,0,o),
(630,0,c)
);
}
);
width = 630;
}
);
},
{
color = 4;
glyphname = "hah-ar.medi";
lastChange = "2022-09-17 03:59:54 +0000";
layers = (
{
anchors = (
{
name = bottom;
pos = (334,-100);
},
{
name = top;
pos = (334,500);
}
);
layerId = m002;
shapes = (
{
closed = 1;
nodes = (
(241,0,o),
(371,184,o),
(543,184,c),
(550,289,l),
(324,289,o),
(211,50,o),
(0,50,c),
(0,0,l)
);
},
{
closed = 1;
nodes = (
(630,25,l),
(610,50,l),
(537,50,o),
(475,101,o),
(475,202,c),
(412,202,l),
(412,50,o),
(518,0,o),
(610,0,c)
);
},
{
closed = 1;
nodes = (
(246,340,o),
(393,282,o),
(532,252,c),
(550,289,l),
(415,349,o),
(254,436,o),
(50,410,c),
(72,305,l)
);
}
);
width = 610;
},
{
anchors = (
{
name = bottom;
pos = (285,-75);
},
{
name = top;
pos = (313,580);
}
);
layerId = m003;
shapes = (
{
closed = 1;
nodes = (
(273,0,o),
(373,139,o),
(555,139,c),
(570,369,l),
(446,369,o),
(259,100,o),
(0,100,c),
(0,0,l)
);
},
{
closed = 1;
nodes = (
(630,50,l),
(610,100,l),
(547,100,o),
(497,119,o),
(497,202,c),
(375,202,l),
(376,68,o),
(479,0,o),
(610,0,c)
);
},
{
closed = 1;
nodes = (
(230,281,o),
(388,280,o),
(537,280,c),
(570,369,l),
(373,419,o),
(248,460,o),
(40,420,c),
(85,195,l)
);
}
);
width = 610;
}
);
},
{
color = 4;
glyphname = "hah-ar.init";
kernRight = "hah-init_1";
lastChange = "2022-08-23 06:31:59 +0000";
layers = (
{
anchors = (
{
name = bottom;
pos = (334,-100);
},
{
name = top;
pos = (334,500);
}
);
layerId = m002;
shapes = (
{
closed = 1;
nodes = (
(231,0,o),
(361,184,o),
(543,184,c),
(550,289,l),
(314,289,o),
(201,50,o),
(0,50,c),
(0,0,l)
);
},
{
closed = 1;
nodes = (
(246,340,o),
(383,282,o),
(532,252,c),
(550,289,l),
(405,349,o),
(254,436,o),
(50,410,c),
(72,305,l)
);
}
);
width = 600;
},
{
anchors = (
{
name = bottom;
pos = (285,-75);
},
{
name = top;
pos = (313,580);
}
);
layerId = m003;
shapes = (
{
closed = 1;
nodes = (
(244,0,o),
(362,119,o),
(552,119,c),
(570,349,l),
(471,349,o),
(230,100,o),
(0,100,c),
(0,0,l)
);
},
{
closed = 1;
nodes = (
(230,281,o),
(388,260,o),
(537,260,c),
(570,349,l),
(373,409,o),
(248,460,o),
(40,420,c),
(85,195,l)
);
}
);
width = 600;
}
);
},
{
glyphname = "dal-ar";
kernRight = "beh-isol_1";
lastChange = "2022-08-23 06:31:59 +0000";
layers = (
{
anchors = (
{
name = bottom;
pos = (211,-100);
},
{
name = top;
pos = (211,550);
}
);
layerId = m002;
shapes = (
{
closed = 1;
nodes = (
(207,0,o),
(320,47,o),
(320,183,cs),
(320,244,o),
(300,357,o),
(264,440,c),
(158,417,l),
(203,350,o),
(257,218,o),
(257,164,cs),
(257,57,o),
(96,63,o),
(30,70,c),
(39,0,l)
);
}
);
width = 380;
},
{
anchors = (
{
name = bottom;
pos = (227,-75);
},
{
name = top;
pos = (214,600);
}
);
layerId = m003;
shapes = (
{
closed = 1;
nodes = (
(223,0,o),
(393,26,o),
(393,199,cs),
(393,257,o),
(378,345,o),
(336,460,c),
(85,399,l),
(144,294,o),
(192,213,o),
(192,167,cs),
(192,100,o),
(94,90,o),
(20,110,c),
(31,0,l)
);
}
);
width = 433;
}
);
unicode = 1583;
},
{
glyphname = "dal-ar.fina";
lastChange = "2022-09-17 02:51:42 +0000";
layers = (
{
anchors = (
{
name = bottom;
pos = (211,-100);
},
{
name = top;
pos = (211,550);
}
);
layerId = m002;
shapes = (
{
closed = 1;
nodes = (
(204,0,o),
(298,57,o),
(298,165,c),
(268,172,l),
(268,80,o),
(313,0,o),
(440,0,c),
(460,25,l),
(440,50,l),
(353,50,o),
(325,121,o),
(325,229,cs),
(325,264,o),
(320,364,o),
(305,438,c),
(199,417,l),
(224,347,o),
(249,230,o),
(249,178,cs),
(249,70,o),
(117,59,o),
(30,70,c),
(39,0,l)
);
}
);
width = 440;
},
{
anchors = (
{
name = bottom;
pos = (257,-75);
},
{
name = top;
pos = (244,600);
}
);
layerId = m003;
shapes = (
{
closed = 1;
nodes = (
(228,0,o),
(332,62,o),
(332,150,c),
(273,150,l),
(273,71,o),
(341,0,o),
(450,0,c),
(470,50,l),
(450,100,l),
(407,100,o),
(379,122,o),
(379,217,cs),
(379,254,o),
(378,366,o),
(360,450,c),
(119,402,l),
(152,328,o),
(188,236,o),
(188,187,cs),
(188,100,o),
(96,90,o),
(20,110,c),
(31,0,l)
);
}
);
width = 450;
}
);
},
{
glyphname = "reh-ar";
kernLeft = reh;
kernRight = "reh-isol_1";
lastChange = "2022-08-23 06:31:59 +0000";
layers = (
{
anchors = (
{
name = bottom;
pos = (116,-390);
},
{
name = top;
pos = (147,550);
}
);
layerId = m002;
shapes = (
{
closed = 1;
nodes = (
(170,-180,o),
(240,9,o),
(240,150,cs),
(240,259,o),
(226,333,o),
(200,400,c),
(140,378,l),
(162,326,o),
(174,268,o),
(174,207,cs),
(174,56,o),
(99,-113,o),
(-80,-261,c),
(-3,-340,l)
);
}
);
width = 300;
},
{
anchors = (
{
name = bottom;
pos = (157,-450);
},
{
name = top;
pos = (202,550);
}
);
layerId = m003;
shapes = (
{
closed = 1;
nodes = (
(300,-234,o),
(364,-50,o),
(364,99,cs),
(364,207,o),
(342,311,o),
(307,400,c),
(177,353,l),
(195,312,o),
(202,269,o),
(202,227,cs),
(202,50,o),
(93,-64,o),
(-80,-209,c),
(101,-400,l)
);
}
);
width = 404;
}
);
unicode = 1585;
},
{
glyphname = "reh-ar.fina";
kernLeft = "reh-fina";
lastChange = "2022-09-17 02:52:14 +0000";
layers = (
{
anchors = (
{
name = bottom;
pos = (116,-480);
},
{
name = top;
pos = (145,250);
}
);
layerId = m002;
shapes = (
{
closed = 1;
nodes = (
(112,-329,o),
(158,-210,o),
(179,-88,cs),
(192,-11,o),
(241,0,o),
(286,0,c),
(306,25,l),
(286,50,l),
(211,50,o),
(135,39,o),
(109,-67,cs),
(79,-189,o),
(43,-258,o),
(-80,-351,c),
(-3,-430,l)
);
}
);
width = 286;
},
{
anchors = (
{
name = bottom;
pos = (170,-540);
},
{
name = top;
pos = (245,300);
}
);
layerId = m003;
shapes = (
{
closed = 1;
nodes = (
(278,-375,o),
(303,-182,o),
(309,-86,cs),
(312,-37,o),
(334,0,o),
(389,0,c),
(409,50,l),
(389,100,l),
(304,100,o),
(190,96,o),
(142,-30,cs),
(95,-153,o),
(51,-214,o),
(-80,-299,c),
(101,-490,l)
);
}
);
width = 389;
}
);
},
{
color = 4;
glyphname = "seen-ar";
kernRight = "beh-isol_1";
lastChange = "2022-08-23 06:31:59 +0000";
layers = (
{
anchors = (
{
name = bottom;
pos = (831,-100);
},
{
name = top;
pos = (801,550);
}
);
layerId = m002;
shapes = (
{
closed = 1;
nodes = (
(530,-247,o),
(594,-28,o),
(594,187,cs),
(594,201,o),
(594,216,o),
(593,231,cs),
(592,253,o),
(590,286,o),
(585,324,c),
(471,306,l),
(490,237,o),
(498,177,o),
(498,102,cs),
(498,-55,o),
(453,-192,o),
(315,-192,cs),
(220,-192,o),
(136,-139,o),
(136,-26,cs),
(136,59,o),
(186,135,o),
(264,184,c),
(213,262,l),
(120,198,o),
(60,108,o),
(60,-6,cs),
(60,-136,o),
(158,-247,o),
(305,-247,cs)
);
},
{
closed = 1;
nodes = (
(794,-9,o),
(875,55,o),
(875,248,cs),
(875,285,o),
(875,302,o),
(875,328,c),
(762,312,l),
(774,258,o),
(781,235,o),
(781,174,cs),
(781,103,o),
(761,50,o),
(692,50,cs),
(614,50,o),
(595,107,o),
(594,187,c),
(544,179,l),
(544,59,o),
(602,-9,o),
(691,-9,cs)
);
},
{
closed = 1;
nodes = (
(1122,-11,o),
(1160,88,o),
(1160,211,cs),
(1160,284,o),
(1154,327,o),
(1136,419,c),
(1026,398,l),
(1049,319,o),
(1066,237,o),
(1066,173,cs),
(1066,103,o),
(1046,50,o),
(983,50,cs),
(897,50,o),
(875,147,o),
(875,248,c),
(839,132,l),
(839,65,o),
(897,-11,o),
(983,-11,cs)
);
}
);
width = 1220;
},
{
anchors = (
{
name = bottom;
pos = (822,-100);
},
{
name = top;
pos = (792,550);
}
);
layerId = m003;
shapes = (
{
closed = 1;
nodes = (
(552,-257,o),
(610,-26,o),
(604,201,cs),
(603,212,o),
(603,222,o),
(602,233,cs),
(600,262,o),
(599,281,o),
(593,324,c),
(357,285,l),
(385,183,o),
(409,93,o),
(409,-27,cs),
(409,-92,o),
(387,-152,o),
(330,-152,cs),
(265,-152,o),
(235,-102,o),
(235,-47,cs),
(235,8,o),
(266,51,o),
(315,88,c),
(193,262,l),
(83,198,o),
(40,87,o),
(40,-17,cs),
(40,-157,o),
(163,-257,o),
(301,-257,cs)
);
},
{
closed = 1;
nodes = (
(829,-9,o),
(906,100,o),
(906,252,cs),
(906,278,o),
(908,317,o),
(909,334,c),
(677,301,l),
(694,245,o),
(698,212,o),
(698,183,cs),
(698,145,o),
(688,117,o),
(657,117,cs),
(621,117,o),
(606,146,o),
(604,201,c),
(507,183,l),
(507,45,o),
(598,-9,o),
(698,-9,cs)
);
},
{
closed = 1;
nodes = (
(1154,-11,o),
(1220,97,o),
(1220,212,cs),
(1220,274,o),
(1214,335,o),
(1202,430,c),
(966,380,l),
(1001,278,o),
(1013,212,o),
(1013,168,cs),
(1013,129,o),
(1001,102,o),
(970,102,cs),
(920,102,o),
(906,153,o),
(906,252,c),
(814,132,l),
(827,65,o),
(886,-11,o),
(1011,-11,cs)
);
}
);
width = 1260;
}
);
unicode = 1587;
},
{
color = 4;
glyphname = "seen-ar.fina";
lastChange = "2022-09-17 02:53:44 +0000";
layers = (
{
anchors = (
{
name = bottom;
pos = (831,-100);
},
{
name = top;
pos = (801,550);
}
);
layerId = m002;
shapes = (
{
closed = 1;
nodes = (
(530,-247,o),
(594,-28,o),
(594,187,cs),
(594,201,o),
(594,216,o),
(593,231,cs),
(592,253,o),
(590,286,o),
(585,324,c),
(471,306,l),
(490,237,o),
(498,177,o),
(498,102,cs),
(498,-55,o),
(453,-192,o),
(315,-192,cs),
(220,-192,o),
(136,-139,o),
(136,-26,cs),
(136,59,o),
(186,135,o),
(264,184,c),
(213,262,l),
(120,198,o),
(60,108,o),
(60,-6,cs),
(60,-136,o),
(158,-247,o),
(305,-247,cs)
);
},
{
closed = 1;
nodes = (
(794,-9,o),
(875,55,o),
(875,248,cs),
(875,285,o),
(875,302,o),
(875,328,c),
(762,312,l),
(774,258,o),
(781,235,o),
(781,174,cs),
(781,103,o),
(761,50,o),
(692,50,cs),
(614,50,o),
(595,107,o),
(594,187,c),
(544,179,l),
(544,59,o),
(602,-9,o),
(691,-9,cs)
);
},
{
closed = 1;
nodes = (
(1122,-11,o),
(1160,88,o),
(1160,211,cs),
(1160,284,o),
(1155,327,o),
(1141,399,c),
(1031,378,l),
(1050,319,o),
(1066,237,o),
(1066,173,cs),
(1066,103,o),
(1046,50,o),
(983,50,cs),
(897,50,o),
(875,147,o),
(875,248,c),
(839,132,l),
(839,65,o),
(897,-11,o),
(983,-11,cs)
);
},
{
closed = 1;
nodes = (
(1290,25,l),
(1270,50,l),
(1207,50,o),
(1160,110,o),
(1160,211,c),
(1095,202,l),
(1095,50,o),
(1188,0,o),
(1270,0,c)
);
}
);
width = 1270;
},
{
anchors = (
{
name = bottom;
pos = (822,-100);
},
{
name = top;
pos = (792,550);
}
);
layerId = m003;
shapes = (
{
closed = 1;
nodes = (
(562,-257,o),
(620,-26,o),
(614,201,cs),
(613,212,o),
(613,222,o),
(612,233,cs),
(610,262,o),
(609,281,o),
(603,324,c),
(367,285,l),
(395,183,o),
(419,93,o),
(419,-27,cs),
(419,-92,o),
(397,-152,o),
(340,-152,cs),
(275,-152,o),
(245,-102,o),
(245,-47,cs),
(245,8,o),
(276,51,o),
(325,88,c),
(203,262,l),
(93,198,o),
(50,87,o),
(50,-17,cs),
(50,-157,o),
(173,-257,o),
(311,-257,cs)
);
},
{
closed = 1;
nodes = (
(839,-9,o),
(916,100,o),
(916,252,cs),
(916,278,o),
(918,317,o),
(919,334,c),
(687,301,l),
(704,245,o),
(708,212,o),
(708,183,cs),
(708,145,o),
(698,117,o),
(667,117,cs),
(631,117,o),
(616,146,o),
(614,201,c),
(517,183,l),
(517,45,o),
(608,-9,o),
(708,-9,cs)
);
},
{
closed = 1;
nodes = (
(1164,-11,o),
(1229,97,o),
(1229,212,cs),
(1229,310,o),
(1227,345,o),
(1215,410,c),
(979,360,l),
(1009,281,o),
(1023,222,o),
(1023,171,cs),
(1023,129,o),
(1011,102,o),
(980,102,cs),
(930,102,o),
(916,153,o),
(916,252,c),
(824,132,l),
(837,65,o),
(896,-11,o),
(1021,-11,cs)
);
},
{
closed = 1;
nodes = (
(1315,50,l),
(1295,100,l),
(1255,100,o),
(1229,135,o),
(1229,212,c),
(1111,202,l),
(1111,68,o),
(1174,0,o),
(1295,0,c)
);
}
);
width = 1295;
}
);
},
{
color = 4;
glyphname = "seen-ar.medi";
lastChange = "2022-09-17 02:54:03 +0000";
layers = (
{
anchors = (
{
name = bottom;
pos = (479,-100);
},
{
name = top;
pos = (449,550);
}
);
layerId = m002;
shapes = (
{
closed = 1;
nodes = (
(762,-11,o),
(800,88,o),
(800,211,cs),
(800,284,o),
(792,343,o),
(781,392,c),
(671,368,l),
(691,309,o),
(706,249,o),
(706,173,cs),
(706,103,o),
(686,50,o),
(623,50,cs),
(537,50,o),
(515,147,o),
(515,238,c),
(479,132,l),
(479,65,o),
(537,-11,o),
(623,-11,cs)
);
},
{
closed = 1;
nodes = (
(118,0,o),
(207,74,o),
(207,172,c),
(235,202,l),
(235,265,o),
(238,297,o),
(242,332,c),
(132,318,l),
(136,289,o),
(138,258,o),
(138,228,cs),
(138,159,o),
(117,50,o),
(0,50,c),
(0,0,l)
);
},
{
closed = 1;
nodes = (
(434,-9,o),
(515,55,o),
(515,238,cs),
(515,285,o),
(515,302,o),
(515,328,c),
(402,312,l),
(414,258,o),
(421,225,o),
(421,174,cs),
(421,103,o),
(401,50,o),
(332,50,cs),
(254,50,o),
(235,132,o),
(235,202,c),
(184,179,l),
(184,59,o),
(242,-9,o),
(331,-9,cs)
);
},
{
closed = 1;
nodes = (
(930,25,l),
(910,50,l),
(847,50,o),
(800,110,o),
(800,211,c),
(735,202,l),
(735,50,o),
(828,0,o),
(910,0,c)
);
}
);
width = 910;
},
{
anchors = (
{
name = bottom;
pos = (479,-100);
},
{
name = top;
pos = (449,550);
}
);
layerId = m003;
shapes = (
{
closed = 1;
nodes = (
(859,-11,o),
(924,97,o),
(924,212,cs),
(924,310,o),
(918,353,o),
(910,410,c),
(674,361,l),
(699,288,o),
(718,222,o),
(718,171,cs),
(718,129,o),
(711,102,o),
(670,102,cs),
(630,102,o),
(611,153,o),
(611,252,c),
(519,132,l),
(532,65,o),
(591,-11,o),
(716,-11,cs)
);
},
{
closed = 1;
nodes = (
(138,0,o),
(241,64,o),
(241,172,c),
(308,202,l),
(308,265,o),
(310,287,o),
(317,340,c),
(62,305,l),
(72,263,o),
(73,239,o),
(73,202,cs),
(73,167,o),
(57,100,o),
(0,100,c),
(0,0,l)
);
},
{
closed = 1;
nodes = (
(534,-9,o),
(611,100,o),
(611,252,cs),
(611,299,o),
(613,317,o),
(614,334,c),
(381,304,l),
(397,249,o),
(403,221,o),
(403,183,cs),
(403,145,o),
(393,117,o),
(362,117,cs),
(326,117,o),
(308,147,o),
(308,202,c),
(212,183,l),
(212,45,o),
(303,-9,o),
(403,-9,cs)
);
},
{
closed = 1;
nodes = (
(1010,50,l),
(990,100,l),
(950,100,o),
(924,135,o),
(924,212,c),
(806,202,l),
(806,68,o),
(869,0,o),
(990,0,c)
);
}
);
width = 990;
}
);
},
{
color = 4;
glyphname = "seen-ar.init";
kernRight = "behDotless-init_1";
lastChange = "2022-08-23 06:31:59 +0000";
layers = (
{
anchors = (
{
name = bottom;
pos = (479,-100);
},
{
name = top;
pos = (449,550);
}
);
layerId = m002;
shapes = (
{
closed = 1;
nodes = (
(759,-11,o),
(804,86,o),
(804,208,cs),
(804,276,o),
(791,351,o),
(771,422,c),
(661,398,l),
(686,339,o),
(710,250,o),
(710,177,cs),
(710,106,o),
(688,50,o),
(623,50,cs),
(537,50,o),
(515,147,o),
(515,238,c),
(479,132,l),
(479,65,o),
(537,-11,o),
(623,-11,cs)
);
},
{
closed = 1;
nodes = (
(118,0,o),
(207,74,o),
(207,172,c),
(235,202,l),
(235,265,o),
(238,297,o),
(242,332,c),
(132,318,l),
(136,289,o),
(138,258,o),
(138,228,cs),
(138,159,o),
(117,50,o),
(0,50,c),
(0,0,l)
);
},
{
closed = 1;
nodes = (
(434,-9,o),
(515,55,o),
(515,238,cs),
(515,285,o),
(515,302,o),
(515,328,c),
(402,312,l),
(414,258,o),
(421,225,o),
(421,174,cs),
(421,103,o),
(401,50,o),
(332,50,cs),
(254,50,o),
(235,132,o),
(235,202,c),
(184,179,l),
(184,59,o),
(242,-9,o),
(331,-9,cs)
);
}
);
width = 860;
},
{
anchors = (
{
name = bottom;
pos = (479,-100);
},
{
name = top;
pos = (449,550);
}
);
layerId = m003;
shapes = (
{
closed = 1;
nodes = (
(873,-11,o),
(930,93,o),
(930,231,cs),
(930,293,o),
(918,361,o),
(900,430,c),
(664,381,l),
(688,319,o),
(721,229,o),
(721,168,cs),
(721,129,o),
(708,102,o),
(670,102,cs),
(630,102,o),
(611,153,o),
(611,252,c),
(519,132,l),
(532,65,o),
(591,-11,o),
(716,-11,cs)
);
},
{
closed = 1;
nodes = (
(138,0,o),
(241,64,o),
(241,172,c),
(308,202,l),
(308,265,o),
(310,287,o),
(317,340,c),
(62,305,l),
(72,263,o),
(73,239,o),
(73,202,cs),
(73,167,o),
(57,100,o),
(0,100,c),
(0,0,l)
);
},
{
closed = 1;
nodes = (
(534,-9,o),
(611,100,o),
(611,252,cs),
(611,299,o),
(613,317,o),
(614,334,c),
(381,304,l),
(397,249,o),
(403,221,o),
(403,183,cs),
(403,145,o),
(393,117,o),
(362,117,cs),
(326,117,o),
(308,147,o),
(308,202,c),
(212,183,l),
(212,45,o),
(303,-9,o),
(403,-9,cs)
);
}
);
width = 970;
}
);
},
{
glyphname = "sad-ar";
kernRight = "beh-isol_1";
lastChange = "2022-08-23 06:31:59 +0000";
layers = (
{
anchors = (
{
name = bottom;
pos = (834,-100);
},
{
name = top;
pos = (893,550);
}
);
layerId = m002;
shapes = (
{
closed = 1;
nodes = (
(596,-247,o),
(615,120,o),
(577,341,c),
(467,325,l),
(519,131,o),
(528,-192,o),
(315,-192,cs),
(220,-192,o),
(136,-139,o),
(136,-26,cs),
(136,59,o),
(186,135,o),
(264,184,c),
(213,262,l),
(120,198,o),
(60,108,o),
(60,-6,cs),
(60,-136,o),
(158,-247,o),
(305,-247,cs)
);
},
{
closed = 1;
nodes = (
(944,-10,o),
(1090,85,o),
(1090,238,cs),
(1090,347,o),
(1013,410,o),
(908,410,cs),
(789,410,o),
(631,305,o),
(599,106,c),
(641,88,l),
(687,237,o),
(789,325,o),
(876,325,cs),
(940,325,o),
(984,285,o),
(984,220,cs),
(984,128,o),
(893,50,o),
(801,50,cs),
(666,50,o),
(611,145,o),
(577,341,c),
(517,317,l),
(543,136,o),
(618,-10,o),
(806,-10,cs)
);
}
);
width = 1150;
},
{
anchors = (
{
name = bottom;
pos = (867,-100);
},
{
name = top;
pos = (926,550);
}
);
layerId = m003;
shapes = (
{
closed = 1;
nodes = (
(625,-246,o),
(659,90,o),
(614,344,c),
(351,305,l),
(435,106,o),
(471,-151,o),
(351,-151,cs),
(284,-151,o),
(254,-102,o),
(254,-47,cs),
(254,8,o),
(285,51,o),
(334,88,c),
(203,283,l),
(93,219,o),
(40,108,o),
(40,4,cs),
(40,-161,o),
(168,-246,o),
(306,-246,cs)
);
},
{
closed = 1;
nodes = (
(985,-10,o),
(1120,87,o),
(1120,241,cs),
(1120,341,o),
(1053,410,o),
(938,410,cs),
(819,410,o),
(660,305,o),
(628,106,c),
(694,68,l),
(740,207,o),
(792,249,o),
(840,249,cs),
(867,249,o),
(892,227,o),
(892,193,cs),
(892,155,o),
(861,115,o),
(796,115,cs),
(721,115,o),
(647,163,o),
(614,344,c),
(499,281,l),
(559,104,o),
(634,-10,o),
(827,-10,cs)
);
}
);
width = 1160;
}
);
unicode = 1589;
},
{
glyphname = "sad-ar.fina";
lastChange = "2022-09-17 02:54:35 +0000";
layers = (
{
anchors = (
{
name = bottom;
pos = (834,-100);
},
{
name = top;
pos = (893,550);
}
);
layerId = m002;
shapes = (
{
closed = 1;
nodes = (
(586,-247,o),
(605,120,o),
(567,341,c),
(457,325,l),
(509,131,o),
(518,-192,o),
(305,-192,cs),
(210,-192,o),
(126,-139,o),
(126,-26,cs),
(126,59,o),
(176,135,o),
(254,184,c),
(203,262,l),
(110,198,o),
(50,108,o),
(50,-6,cs),
(50,-136,o),
(148,-247,o),
(295,-247,cs)
);
},
{
closed = 1;
nodes = (
(934,-10,o),
(1080,85,o),
(1080,238,cs),
(1080,347,o),
(1003,410,o),
(898,410,cs),
(779,410,o),
(621,305,o),
(589,106,c),
(631,88,l),
(677,237,o),
(779,325,o),
(866,325,cs),
(930,325,o),
(974,285,o),
(974,220,cs),
(974,128,o),
(883,50,o),
(791,50,cs),
(656,50,o),
(601,145,o),
(567,341,c),
(507,317,l),
(533,136,o),
(608,-10,o),
(796,-10,cs)
);
},
{
closed = 1;
nodes = (
(1200,25,l),
(1180,50,l),
(1106,50,o),
(1080,137,o),
(1080,238,c),
(1015,229,l),
(1015,77,o),
(1087,0,o),
(1180,0,c)
);
}
);
width = 1180;
},
{
anchors = (
{
name = bottom;
pos = (867,-100);
},
{
name = top;
pos = (926,550);
}
);
layerId = m003;
shapes = (
{
closed = 1;
nodes = (
(625,-246,o),
(659,90,o),
(614,344,c),
(351,305,l),
(435,106,o),
(471,-151,o),
(351,-151,cs),
(284,-151,o),
(254,-102,o),
(254,-47,cs),
(254,8,o),
(285,51,o),
(334,88,c),
(203,283,l),
(93,219,o),
(40,108,o),
(40,4,cs),
(40,-161,o),
(168,-246,o),
(306,-246,cs)
);
},
{
closed = 1;
nodes = (
(985,-10,o),
(1120,87,o),
(1120,241,cs),
(1120,341,o),
(1053,410,o),
(938,410,cs),
(819,410,o),
(660,305,o),
(628,106,c),
(694,68,l),
(740,207,o),
(792,249,o),
(840,249,cs),
(867,249,o),
(892,227,o),
(892,193,cs),
(892,155,o),
(861,115,o),
(796,115,cs),
(721,115,o),
(647,163,o),
(614,344,c),
(499,281,l),
(559,104,o),
(634,-10,o),
(827,-10,cs)
);
},
{
closed = 1;
nodes = (
(1205,50,l),
(1185,100,l),
(1145,100,o),
(1119,125,o),
(1120,241,c),
(1001,202,l),
(1001,68,o),
(1064,0,o),
(1185,0,c)
);
}
);
width = 1185;
}
);
},
{
glyphname = "sad-ar.medi";
lastChange = "2022-09-17 02:54:50 +0000";
layers = (
{
anchors = (
{
name = bottom;
pos = (496,-100);
},
{
name = top;
pos = (555,550);
}
);
layerId = m002;
shapes = (
{
closed = 1;
nodes = (
(594,-10,o),
(740,85,o),
(740,238,cs),
(740,347,o),
(663,410,o),
(558,410,cs),
(439,410,o),
(280,305,o),
(248,106,c),
(290,88,l),
(336,237,o),
(439,325,o),
(526,325,cs),
(590,325,o),
(634,285,o),
(634,220,cs),
(634,128,o),
(543,50,o),
(451,50,cs),
(316,50,o),
(248,162,o),
(222,358,c),
(166,317,l),
(192,136,o),
(268,-10,o),
(456,-10,cs)
);
},
{
closed = 1;
nodes = (
(185,0,o),
(230,143,o),
(222,358,c),
(117,334,l),
(134,209,o),
(128,50,o),
(0,50,c),
(0,0,l)
);
},
{
closed = 1;
nodes = (
(860,25,l),
(840,50,l),
(766,50,o),
(740,137,o),
(740,238,c),
(675,229,l),
(675,77,o),
(747,0,o),
(840,0,c)
);
}
);
width = 840;
},
{
anchors = (
{
name = bottom;
pos = (527,-100);
},
{
name = top;
pos = (586,550);
}
);
layerId = m003;
shapes = (
{
closed = 1;
nodes = (
(645,-10,o),
(780,87,o),
(780,241,cs),
(780,341,o),
(713,410,o),
(598,410,cs),
(479,410,o),
(320,305,o),
(288,106,c),
(354,68,l),
(400,207,o),
(452,249,o),
(500,249,cs),
(527,249,o),
(552,227,o),
(552,193,cs),
(552,155,o),
(521,115,o),
(456,115,cs),
(381,115,o),
(294,163,o),
(275,370,c),
(159,281,l),
(219,104,o),
(294,-10,o),
(487,-10,cs)
);
},
{
closed = 1;
nodes = (
(216,0,o),
(294,139,o),
(275,370,c),
(40,319,l),
(74,215,o),
(90,100,o),
(0,100,c),
(0,0,l)
);
},
{
closed = 1;
nodes = (
(860,50,l),
(840,100,l),
(803,100,o),
(779,125,o),
(780,241,c),
(659,202,l),
(659,68,o),
(722,0,o),
(840,0,c)
);
}
);
width = 840;
}
);
},
{
glyphname = "sad-ar.init";
kernRight = "behDotless-init_1";
lastChange = "2022-08-23 06:31:59 +0000";
layers = (
{
anchors = (
{
name = bottom;
pos = (496,-100);
},
{
name = top;
pos = (555,550);
}
);
layerId = m002;
shapes = (
{
closed = 1;
nodes = (
(594,-10,o),
(740,85,o),
(740,238,cs),
(740,347,o),
(663,410,o),
(558,410,cs),
(439,410,o),
(280,305,o),
(248,106,c),
(290,88,l),
(336,237,o),
(439,325,o),
(526,325,cs),
(590,325,o),
(634,285,o),
(634,220,cs),
(634,128,o),
(543,50,o),
(451,50,cs),
(316,50,o),
(248,162,o),
(222,358,c),
(166,317,l),
(192,136,o),
(268,-10,o),
(456,-10,cs)
);
},
{
closed = 1;
nodes = (
(185,0,o),
(230,143,o),
(222,358,c),
(117,334,l),
(134,209,o),
(128,50,o),
(0,50,c),
(0,0,l)
);
}
);
width = 800;
},
{
anchors = (
{
name = bottom;
pos = (527,-100);
},
{
name = top;
pos = (586,550);
}
);
layerId = m003;
shapes = (
{
closed = 1;
nodes = (
(645,-10,o),
(780,87,o),
(780,241,cs),
(780,341,o),
(713,410,o),
(598,410,cs),
(479,410,o),
(320,305,o),
(288,106,c),
(354,68,l),
(400,207,o),
(452,249,o),
(500,249,cs),
(527,249,o),
(552,227,o),
(552,193,cs),
(552,155,o),
(521,115,o),
(456,115,cs),
(381,115,o),
(294,163,o),
(275,370,c),
(159,281,l),
(219,104,o),
(294,-10,o),
(487,-10,cs)
);
},
{
closed = 1;
nodes = (
(216,0,o),
(294,139,o),
(275,370,c),
(40,319,l),
(74,215,o),
(90,100,o),
(0,100,c),
(0,0,l)
);
}
);
width = 820;
}
);
},
{
glyphname = "tah-ar";
kernRight = "beh-isol_1";
lastChange = "2022-08-23 06:31:59 +0000";
layers = (
{
anchors = (
{
name = bottom;
pos = (337,-100);
},
{
name = top;
pos = (440,550);
}
);
layerId = m002;
shapes = (
{
closed = 1;
nodes = (
(474,-10,o),
(620,85,o),
(620,238,cs),
(620,347,o),
(543,410,o),
(438,410,cs),
(319,410,o),
(178,305,o),
(138,70,c),
(180,52,l),
(230,237,o),
(319,325,o),
(406,325,cs),
(470,325,o),
(514,285,o),
(514,220,cs),
(514,128,o),
(423,55,o),
(254,55,cs),
(151,55,o),
(101,73,o),
(56,88,c),
(40,30,l),
(80,13,o),
(178,-10,o),
(259,-10,cs)
);
},
{
closed = 1;
nodes = (
(176,54,l),
(201,254,o),
(208,501,o),
(200,751,c),
(90,736,l),
(122,494,o),
(126,273,o),
(116,40,c)
);
}
);
width = 680;
},
{
anchors = (
{
name = bottom;
pos = (337,-60);
},
{
name = top;
pos = (470,550);
}
);
layerId = m003;
shapes = (
{
closed = 1;
nodes = (
(522,-10,o),
(640,61,o),
(640,208,cs),
(640,331,o),
(563,410,o),
(458,410,cs),
(339,410,o),
(198,292,o),
(166,93,c),
(232,68,l),
(278,207,o),
(312,249,o),
(360,249,cs),
(387,249,o),
(412,227,o),
(412,193,cs),
(412,155,o),
(373,100,o),
(251,100,cs),
(176,100,o),
(117,116,o),
(56,130,c),
(30,34,l),
(121,6,o),
(244,-10,o),
(296,-10,cs)
);
},
{
closed = 1;
nodes = (
(221,69,l),
(274,250,o),
(320,531,o),
(316,757,c),
(60,722,l),
(100,503,o),
(107,287,o),
(107,39,c)
);
}
);
width = 680;
}
);
unicode = 1591;
},
{
glyphname = "tah-ar.fina";
lastChange = "2022-09-17 02:55:22 +0000";
layers = (
{
anchors = (
{
name = bottom;
pos = (327,-100);
},
{
name = top;
pos = (430,550);
}
);
layerId = m002;
shapes = (
{
closed = 1;
nodes = (
(464,-10,o),
(610,85,o),
(610,238,cs),
(610,347,o),
(533,410,o),
(428,410,cs),
(309,410,o),
(168,305,o),
(128,70,c),
(170,52,l),
(220,237,o),
(309,325,o),
(396,325,cs),
(460,325,o),
(504,285,o),
(504,220,cs),
(504,128,o),
(413,55,o),
(244,55,cs),
(141,55,o),
(91,73,o),
(46,88,c),
(30,30,l),
(70,13,o),
(168,-10,o),
(249,-10,cs)
);
},
{
closed = 1;
nodes = (
(166,54,l),
(191,254,o),
(198,501,o),
(190,751,c),
(80,736,l),
(112,494,o),
(116,273,o),
(106,40,c)
);
},
{
closed = 1;
nodes = (
(730,25,l),
(710,50,l),
(636,50,o),
(610,137,o),
(610,238,c),
(545,229,l),
(545,77,o),
(617,0,o),
(710,0,c)
);
}
);
width = 710;
},
{
anchors = (
{
name = bottom;
pos = (307,-60);
},
{
name = top;
pos = (470,550);
}
);
layerId = m003;
shapes = (
{
closed = 1;
nodes = (
(522,-10,o),
(640,61,o),
(640,208,cs),
(640,331,o),
(563,410,o),
(458,410,cs),
(339,410,o),
(198,292,o),
(166,93,c),
(232,68,l),
(278,207,o),
(312,249,o),
(360,249,cs),
(387,249,o),
(412,227,o),
(412,193,cs),
(412,155,o),
(373,100,o),
(251,100,cs),
(176,100,o),
(117,116,o),
(56,130,c),
(30,34,l),
(121,6,o),
(244,-10,o),
(296,-10,cs)
);
},
{
closed = 1;
nodes = (
(221,69,l),
(274,250,o),
(320,531,o),
(316,757,c),
(60,722,l),
(100,503,o),
(107,287,o),
(107,39,c)
);
},
{
closed = 1;
nodes = (
(730,50,l),
(710,100,l),
(670,100,o),
(639,125,o),
(640,208,c),
(521,202,l),
(521,68,o),
(589,0,o),
(710,0,c)
);
}
);
width = 710;
}
);
},
{
glyphname = "tah-ar.medi";
lastChange = "2022-09-17 02:55:42 +0000";
layers = (
{
anchors = (
{
name = bottom;
pos = (297,-100);
},
{
name = top;
pos = (400,550);
}
);
layerId = m002;
shapes = (
{
closed = 1;
nodes = (
(434,0,o),
(580,91,o),
(580,238,cs),
(580,347,o),
(503,410,o),
(398,410,cs),
(279,410,o),
(138,307,o),
(93,50,c),
(140,44,l),
(190,239,o),
(279,325,o),
(366,325,cs),
(430,325,o),
(474,285,o),
(474,230,cs),
(474,122,o),
(327,50,o),
(0,50,c),
(0,0,l)
);
},
{
closed = 1;
nodes = (
(136,44,l),
(161,244,o),
(168,501,o),
(160,751,c),
(50,736,l),
(82,494,o),
(86,263,o),
(76,30,c)
);
},
{
closed = 1;
nodes = (
(700,25,l),
(680,50,l),
(606,50,o),
(580,137,o),
(580,238,c),
(515,229,l),
(515,77,o),
(587,0,o),
(680,0,c)
);
}
);
width = 680;
},
{
anchors = (
{
name = bottom;
pos = (297,-60);
},
{
name = top;
pos = (450,550);
}
);
layerId = m003;
shapes = (
{
closed = 1;
nodes = (
(247,0,o),
(610,15,o),
(610,208,cs),
(610,346,o),
(533,410,o),
(428,410,cs),
(309,410,o),
(170,292,o),
(138,93,c),
(204,68,l),
(250,207,o),
(287,249,o),
(335,249,cs),
(362,249,o),
(382,227,o),
(382,203,cs),
(382,100,o),
(192,100,o),
(0,100,c),
(0,0,l)
);
},
{
closed = 1;
nodes = (
(193,69,l),
(246,250,o),
(292,531,o),
(288,757,c),
(32,722,l),
(72,503,o),
(79,287,o),
(79,39,c)
);
},
{
closed = 1;
nodes = (
(700,50,l),
(680,100,l),
(640,100,o),
(609,125,o),
(610,208,c),
(491,202,l),
(491,68,o),
(559,0,o),
(680,0,c)
);
}
);
width = 680;
}
);
},
{
glyphname = "tah-ar.init";
kernRight = "behDotless-init_1";
lastChange = "2022-08-23 06:31:59 +0000";
layers = (
{
anchors = (
{
name = bottom;
pos = (307,-100);
},
{
name = top;
pos = (410,550);
}
);
layerId = m002;
shapes = (
{
closed = 1;
nodes = (
(444,0,o),
(590,83,o),
(590,248,cs),
(590,347,o),
(513,410,o),
(408,410,cs),
(289,410,o),
(148,307,o),
(103,50,c),
(150,44,l),
(200,239,o),
(289,325,o),
(376,325,cs),
(440,325,o),
(484,285,o),
(484,230,cs),
(484,122,o),
(337,50,o),
(0,50,c),
(0,0,l)
);
},
{
closed = 1;
nodes = (
(146,44,l),
(171,244,o),
(178,501,o),
(170,751,c),
(60,736,l),
(92,494,o),
(96,263,o),
(86,30,c)
);
}
);
width = 650;
},
{
anchors = (
{
name = bottom;
pos = (317,-60);
},
{
name = top;
pos = (450,550);
}
);
layerId = m003;
shapes = (
{
closed = 1;
nodes = (
(247,0,o),
(610,0,o),
(610,227,cs),
(610,346,o),
(533,410,o),
(428,410,cs),
(309,410,o),
(170,292,o),
(138,93,c),
(204,68,l),
(250,207,o),
(287,249,o),
(335,249,cs),
(362,249,o),
(382,227,o),
(382,203,cs),
(382,100,o),
(192,100,o),
(0,100,c),
(0,0,l)
);
},
{
closed = 1;
nodes = (
(193,69,l),
(246,250,o),
(292,531,o),
(288,757,c),
(32,722,l),
(72,503,o),
(79,287,o),
(79,39,c)
);
}
);
width = 650;
}
);
},
{
glyphname = "ain-ar";
lastChange = "2022-08-23 06:31:59 +0000";
layers = (
{
anchors = (
{
name = bottom;
pos = (294,-472);
},
{
name = top;
pos = (294,550);
}
);
layerId = m002;
shapes = (
{
closed = 1;
nodes = (
(387,-422,o),
(451,-411,o),
(559,-381,c),
(515,-288,l),
(432,-324,o),
(355,-334,o),
(304,-334,cs),
(214,-334,o),
(95,-309,o),
(95,-190,cs),
(95,-46,o),
(256,56,o),
(488,56,c),
(444,119,l),
(256,109,l),
(117,53,o),
(40,-50,o),
(40,-181,cs),
(40,-333,o),
(162,-422,o),
(328,-422,cs)
);
},
{
closed = 1;
nodes = (
(459,157,l),
(416,157,o),
(358,127,o),
(262,127,cs),
(192,127,o),
(136,176,o),
(136,234,cs),
(136,290,o),
(184,340,o),
(259,340,cs),
(319,340,o),
(375,306,o),
(399,281,c),
(459,352,l),
(404,411,o),
(337,430,o),
(272,430,cs),
(169,430,o),
(78,369,o),
(78,258,cs),
(78,167,o),
(142,69,o),
(276,69,c),
(488,56,l)
);
}
);
width = 579;
},
{
anchors = (
{
name = bottom;
pos = (294,-472);
},
{
name = top;
pos = (294,550);
}
);
layerId = m003;
shapes = (
{
closed = 1;
nodes = (
(386,-422,o),
(457,-409,o),
(570,-372,c),
(480,-176,l),
(403,-223,o),
(318,-242,o),
(265,-242,cs),
(194,-242,o),
(137,-214,o),
(137,-148,cs),
(137,-70,o),
(249,28,o),
(520,28,c),
(450,140,l),
(249,128,l),
(122,68,o),
(30,-26,o),
(30,-166,cs),
(30,-340,o),
(163,-422,o),
(304,-422,cs)
);
},
{
closed = 1;
nodes = (
(477,187,l),
(403,187,o),
(309,140,o),
(254,140,cs),
(221,140,o),
(191,159,o),
(191,191,cs),
(191,222,o),
(224,244,o),
(264,244,cs),
(291,244,o),
(322,237,o),
(346,220,c),
(477,365,l),
(433,408,o),
(364,430,o),
(295,430,cs),
(182,430,o),
(70,371,o),
(70,251,cs),
(70,120,o),
(169,45,o),
(355,45,c),
(520,28,l)
);
}
);
width = 590;
}
);
unicode = 1593;
},
{
glyphname = "ain-ar.fina";
lastChange = "2022-09-17 02:56:18 +0000";
layers = (
{
anchors = (
{
name = bottom;
pos = (294,-472);
},
{
name = top;
pos = (334,550);
}
);
layerId = m002;
shapes = (
{
closed = 1;
nodes = (
(387,-422,o),
(451,-411,o),
(559,-381,c),
(515,-288,l),
(432,-324,o),
(355,-334,o),
(304,-334,cs),
(214,-334,o),
(95,-309,o),
(95,-181,cs),
(95,72,o),
(550,60,o),
(550,284,cs),
(550,377,o),
(486,430,o),
(368,430,cs),
(276,430,o),
(179,390,o),
(80,321,c),
(95,272,l),
(187,326,o),
(269,359,o),
(334,359,cs),
(413,359,o),
(445,316,o),
(445,280,cs),
(445,131,o),
(40,103,o),
(40,-181,cs),
(40,-333,o),
(162,-422,o),
(328,-422,cs)
);
},
{
closed = 1;
nodes = (
(650,25,l),
(630,50,l),
(409,50,o),
(306,321,o),
(80,321,c),
(87,231,l),
(259,231,o),
(389,0,o),
(630,0,c)
);
}
);
width = 630;
},
{
anchors = (
{
name = bottom;
pos = (294,-472);
},
{
name = top;
pos = (306,550);
}
);
layerId = m003;
shapes = (
{
closed = 1;
nodes = (
(389,-422,o),
(481,-409,o),
(594,-372,c),
(504,-159,l),
(426,-219,o),
(320,-242,o),
(267,-242,cs),
(195,-242,o),
(138,-214,o),
(138,-148,cs),
(138,34,o),
(578,18,o),
(578,266,cs),
(578,378,o),
(489,421,o),
(364,421,cs),
(268,421,o),
(163,395,o),
(50,347,c),
(109,229,l),
(173,270,o),
(247,294,o),
(294,294,cs),
(348,294,o),
(368,271,o),
(368,241,cs),
(368,121,o),
(30,100,o),
(30,-166,cs),
(30,-340,o),
(164,-422,o),
(306,-422,cs)
);
},
{
closed = 1;
nodes = (
(650,50,l),
(630,100,l),
(382,100,o),
(250,288,o),
(50,347,c),
(66,158,l),
(260,158,o),
(367,0,o),
(630,0,c)
);
}
);
width = 630;
}
);
},
{
glyphname = "ain-ar.medi";
lastChange = "2022-09-17 02:56:40 +0000";
layers = (
{
anchors = (
{
name = bottom;
pos = (292,-60);
},
{
name = top;
pos = (334,550);
}
);
layerId = m002;
shapes = (
{
closed = 1;
nodes = (
(171,0,o),
(530,82,o),
(530,284,cs),
(530,377,o),
(466,430,o),
(348,430,cs),
(256,430,o),
(159,390,o),
(60,321,c),
(75,272,l),
(167,326,o),
(249,359,o),
(314,359,cs),
(393,359,o),
(425,316,o),
(425,270,cs),
(425,148,o),
(200,50,o),
(0,50,c),
(0,0,l)
);
},
{
closed = 1;
nodes = (
(630,25,l),
(610,50,l),
(389,50,o),
(286,321,o),
(60,321,c),
(67,231,l),
(239,231,o),
(369,0,o),
(610,0,c)
);
}
);
width = 610;
},
{
anchors = (
{
name = bottom;
pos = (320,-100);
},
{
name = top;
pos = (320,561);
}
);
layerId = m003;
shapes = (
{
closed = 1;
nodes = (
(108,0,o),
(568,31,o),
(568,266,cs),
(568,378,o),
(479,421,o),
(354,421,cs),
(258,421,o),
(153,395,o),
(40,347,c),
(99,229,l),
(163,270,o),
(237,294,o),
(284,294,cs),
(338,294,o),
(358,271,o),
(358,241,cs),
(358,139,o),
(141,100,o),
(0,100,c),
(0,0,l)
);
},
{
closed = 1;
nodes = (
(640,50,l),
(620,100,l),
(372,100,o),
(240,288,o),
(40,347,c),
(56,158,l),
(250,158,o),
(357,0,o),
(620,0,c)
);
}
);
width = 620;
}
);
},
{
glyphname = "ain-ar.init";
kernRight = "ain-init_1";
lastChange = "2022-08-23 06:31:59 +0000";
layers = (
{
anchors = (
{
name = bottom;
pos = (262,-60);
},
{
name = top;
pos = (254,550);
}
);
layerId = m002;
shapes = (
{
closed = 1;
nodes = (
(470,86,l),
(440,187,l),
(381,155,o),
(336,127,o),
(249,127,cs),
(172,127,o),
(118,176,o),
(118,234,cs),
(118,290,o),
(166,340,o),
(241,340,cs),
(301,340,o),
(357,306,o),
(381,281,c),
(441,352,l),
(386,411,o),
(319,430,o),
(254,430,cs),
(151,430,o),
(60,369,o),
(60,258,cs),
(60,167,o),
(124,67,o),
(258,67,c)
);
},
{
closed = 1;
nodes = (
(148,0,o),
(326,25,o),
(470,86,c),
(415,169,l),
(297,89,o),
(137,50,o),
(0,50,c),
(0,0,l)
);
}
);
width = 520;
},
{
anchors = (
{
name = bottom;
pos = (260,-100);
},
{
name = top;
pos = (260,561);
}
);
layerId = m003;
shapes = (
{
closed = 1;
nodes = (
(490,51,l),
(444,200,l),
(375,163,o),
(297,140,o),
(247,140,cs),
(195,140,o),
(161,159,o),
(161,191,cs),
(161,222,o),
(194,244,o),
(234,244,cs),
(261,244,o),
(292,237,o),
(316,220,c),
(447,365,l),
(403,408,o),
(334,430,o),
(265,430,cs),
(152,430,o),
(40,371,o),
(40,251,cs),
(40,120,o),
(143,35,o),
(329,35,c)
);
},
{
closed = 1;
nodes = (
(100,0,o),
(331,6,o),
(490,51,c),
(316,145,l),
(183,101,o),
(93,100,o),
(0,100,c),
(0,0,l)
);
}
);
width = 520;
}
);
},
{
glyphname = "fehDotless-ar";
kernRight = "beh-isol_1";
lastChange = "2022-08-23 06:31:59 +0000";
layers = (
{
anchors = (
{
name = bottom;
pos = (664,-100);
},
{
name = top;
pos = (675,550);
}
);
layerId = m002;
shapes = (
{
closed = 1;
nodes = (
(649,-7,o),
(880,90,o),
(880,245,cs),
(880,358,o),
(786,422,o),
(681,422,cs),
(523,422,o),
(459,327,o),
(459,241,cs),
(459,146,o),
(533,81,o),
(635,40,c),
(678,81,l),
(586,115,o),
(529,171,o),
(529,241,cs),
(529,295,o),
(579,338,o),
(654,338,cs),
(724,338,o),
(775,305,o),
(775,245,cs),
(775,143,o),
(626,50,o),
(489,50,cs),
(353,50,o),
(200,95,o),
(128,280,c),
(30,220,l),
(145,37,o),
(314,-7,o),
(486,-7,cs)
);
}
);
width = 940;
},
{
anchors = (
{
name = bottom;
pos = (664,-75);
},
{
name = top;
pos = (708,550);
}
);
layerId = m003;
shapes = (
{
closed = 1;
nodes = (
(714,-7,o),
(920,86,o),
(920,255,cs),
(920,368,o),
(830,432,o),
(696,432,cs),
(538,432,o),
(469,337,o),
(469,251,cs),
(469,162,o),
(553,107,o),
(649,78,c),
(714,135,l),
(632,162,o),
(590,200,o),
(590,234,cs),
(590,258,o),
(612,280,o),
(645,280,cs),
(674,280,o),
(700,264,o),
(700,236,cs),
(700,169,o),
(614,100,o),
(499,100,cs),
(391,100,o),
(282,177,o),
(236,350,c),
(20,220,l),
(138,37,o),
(325,-7,o),
(496,-7,c)
);
}
);
width = 960;
}
);
unicode = 1697;
},
{
glyphname = "fehDotless-ar.fina";
lastChange = "2022-09-17 02:57:10 +0000";
layers = (
{
anchors = (
{
name = bottom;
pos = (664,-100);
},
{
name = top;
pos = (675,550);
}
);
layerId = m002;
shapes = (
{
closed = 1;
nodes = (
(671,-7,o),
(881,100,o),
(881,255,cs),
(881,368,o),
(787,432,o),
(682,432,cs),
(524,432,o),
(460,337,o),
(460,251,cs),
(460,76,o),
(732,0,o),
(960,0,c),
(980,25,l),
(960,50,l),
(745,50,o),
(530,128,o),
(530,251,cs),
(530,305,o),
(580,348,o),
(655,348,cs),
(725,348,o),
(776,315,o),
(776,255,cs),
(776,153,o),
(642,50,o),
(499,50,cs),
(353,50,o),
(200,95,o),
(128,280,c),
(30,220,l),
(145,37,o),
(314,-7,o),
(496,-7,cs)
);
}
);
width = 960;
},
{
anchors = (
{
name = bottom;
pos = (664,-75);
},
{
name = top;
pos = (708,550);
}
);
layerId = m003;
shapes = (
{
closed = 1;
nodes = (
(708,-7,o),
(920,86,o),
(920,255,cs),
(920,368,o),
(831,432,o),
(697,432,cs),
(529,432,o),
(450,337,o),
(450,251,cs),
(450,76,o),
(743,0,o),
(970,0,c),
(990,50,l),
(970,100,l),
(743,100,o),
(575,174,o),
(575,231,cs),
(575,256,o),
(598,280,o),
(638,280,cs),
(674,280,o),
(701,262,o),
(701,223,cs),
(701,162,o),
(608,100,o),
(500,100,cs),
(387,100,o),
(282,177,o),
(236,350,c),
(20,220,l),
(138,37,o),
(321,-7,o),
(482,-7,cs)
);
}
);
width = 970;
}
);
},
{
glyphname = "fehDotless-ar.medi";
lastChange = "2022-09-17 02:57:28 +0000";
layers = (
{
anchors = (
{
name = bottom;
pos = (271,-100);
},
{
name = top;
pos = (282,550);
}
);
layerId = m002;
shapes = (
{
closed = 1;
nodes = (
(256,0,o),
(481,100,o),
(481,255,cs),
(481,368,o),
(387,432,o),
(282,432,cs),
(124,432,o),
(60,337,o),
(60,251,cs),
(60,76,o),
(332,0,o),
(560,0,c),
(580,25,l),
(560,50,l),
(345,50,o),
(130,128,o),
(130,251,cs),
(130,305,o),
(180,348,o),
(255,348,cs),
(325,348,o),
(376,315,o),
(376,255,cs),
(376,153,o),
(224,50,o),
(0,50,c),
(0,0,l)
);
}
);
width = 560;
},
{
anchors = (
{
name = bottom;
pos = (238,-75);
},
{
name = top;
pos = (290,550);
}
);
layerId = m003;
shapes = (
{
closed = 1;
nodes = (
(291,0,o),
(511,86,o),
(511,255,cs),
(511,368,o),
(421,432,o),
(287,432,cs),
(119,432,o),
(40,337,o),
(40,251,cs),
(40,76,o),
(333,0,o),
(560,0,c),
(580,50,l),
(560,100,l),
(333,100,o),
(165,174,o),
(165,231,cs),
(165,256,o),
(188,280,o),
(228,280,cs),
(264,280,o),
(291,262,o),
(291,233,cs),
(291,169,o),
(170,100,o),
(0,100,c),
(0,0,l)
);
}
);
width = 560;
}
);
},
{
glyphname = "fehDotless-ar.init";
kernRight = "behDotless-init_1";
lastChange = "2022-08-23 06:31:59 +0000";
layers = (
{
anchors = (
{
name = bottom;
pos = (271,-100);
},
{
name = top;
pos = (282,550);
}
);
layerId = m002;
shapes = (
{
closed = 1;
nodes = (
(256,0,o),
(480,90,o),
(480,245,cs),
(480,358,o),
(386,422,o),
(281,422,cs),
(123,422,o),
(59,327,o),
(59,241,cs),
(59,146,o),
(134,83,o),
(236,42,c),
(278,81,l),
(186,115,o),
(129,171,o),
(129,241,cs),
(129,295,o),
(179,338,o),
(254,338,cs),
(324,338,o),
(375,305,o),
(375,245,cs),
(375,143,o),
(224,50,o),
(0,50,c),
(0,0,l)
);
}
);
width = 540;
},
{
anchors = (
{
name = bottom;
pos = (241,-75);
},
{
name = top;
pos = (286,550);
}
);
layerId = m003;
shapes = (
{
closed = 1;
nodes = (
(291,0,o),
(511,86,o),
(511,255,cs),
(511,368,o),
(421,432,o),
(287,432,cs),
(119,432,o),
(40,337,o),
(40,251,cs),
(40,159,o),
(138,96,o),
(241,75,c),
(311,131,l),
(220,152,o),
(165,198,o),
(165,231,cs),
(165,256,o),
(188,280,o),
(228,280,cs),
(264,280,o),
(291,262,o),
(291,233,cs),
(291,169,o),
(170,100,o),
(0,100,c),
(0,0,l)
);
}
);
width = 551;
}
);
},
{
glyphname = "qafDotless-ar";
kernRight = "Qaf-isol_1";
lastChange = "2022-08-23 06:31:59 +0000";
layers = (
{
anchors = (
{
name = bottom;
pos = (540,-299);
},
{
name = top;
pos = (556,550);
}
);
layerId = m002;
shapes = (
{
closed = 1;
nodes = (
(551,-249,o),
(780,-116,o),
(780,127,cs),
(780,323,o),
(669,404,o),
(562,404,cs),
(461,404,o),
(364,333,o),
(364,221,cs),
(364,126,o),
(434,0,o),
(704,0,c),
(704,50,l),
(489,50,o),
(436,151,o),
(436,221,cs),
(436,278,o),
(492,319,o),
(551,319,cs),
(616,319,o),
(686,268,o),
(686,130,cs),
(686,-85,o),
(501,-194,o),
(347,-194,cs),
(209,-194,o),
(135,-110,o),
(135,-12,cs),
(135,55,o),
(170,128,o),
(244,184,c),
(193,262,l),
(101,188,o),
(58,95,o),
(58,8,cs),
(58,-129,o),
(165,-249,o),
(352,-249,cs)
);
}
);
width = 840;
},
{
anchors = (
{
name = bottom;
pos = (540,-270);
},
{
name = top;
pos = (597,550);
}
);
layerId = m003;
shapes = (
{
closed = 1;
nodes = (
(576,-249,o),
(820,-116,o),
(820,159,cs),
(820,314,o),
(730,402,o),
(596,402,cs),
(428,402,o),
(349,295,o),
(349,198,cs),
(349,95,o),
(463,0,o),
(609,0,c),
(646,100,l),
(555,100,o),
(474,134,o),
(474,190,cs),
(474,221,o),
(497,251,o),
(537,251,cs),
(573,251,o),
(600,220,o),
(600,168,cs),
(600,-45,o),
(454,-149,o),
(348,-149,cs),
(283,-149,o),
(235,-114,o),
(235,-46,cs),
(235,9,o),
(266,52,o),
(315,89,c),
(193,263,l),
(83,199,o),
(40,88,o),
(40,9,cs),
(40,-171,o),
(190,-249,o),
(361,-249,cs)
);
}
);
width = 860;
}
);
unicode = 1647;
},
{
glyphname = "qafDotless-ar.fina";
lastChange = "2022-08-23 06:31:59 +0000";
layers = (
{
anchors = (
{
name = bottom;
pos = (540,-299);
},
{
name = top;
pos = (556,550);
}
);
layerId = m002;
shapes = (
{
closed = 1;
nodes = (
(551,-249,o),
(780,-116,o),
(780,127,cs),
(780,323,o),
(669,404,o),
(562,404,cs),
(445,404,o),
(362,311,o),
(362,214,cs),
(362,109,o),
(459,0,o),
(715,0,cs),
(860,0,l),
(880,28,l),
(860,50,l),
(718,50,ls),
(512,50,o),
(434,136,o),
(434,210,cs),
(434,268,o),
(481,319,o),
(551,319,cs),
(616,319,o),
(686,268,o),
(686,130,cs),
(686,-85,o),
(501,-194,o),
(347,-194,cs),
(209,-194,o),
(135,-110,o),
(135,-12,cs),
(135,55,o),
(170,128,o),
(244,184,c),
(193,262,l),
(101,188,o),
(58,95,o),
(58,8,cs),
(58,-129,o),
(165,-249,o),
(352,-249,cs)
);
}
);
width = 860;
},
{
anchors = (
{
name = bottom;
pos = (541,-270);
},
{
name = top;
pos = (591,550);
}
);
layerId = m003;
shapes = (
{
closed = 1;
nodes = (
(576,-249,o),
(820,-116,o),
(820,159,cs),
(820,314,o),
(730,402,o),
(596,402,cs),
(436,402,o),
(350,304,o),
(350,205,cs),
(350,103,o),
(441,0,o),
(635,0,cs),
(870,0,l),
(890,50,l),
(870,100,l),
(647,100,ls),
(520,100,o),
(474,149,o),
(474,192,cs),
(474,223,o),
(500,251,o),
(537,251,cs),
(573,251,o),
(600,220,o),
(600,168,cs),
(600,-45,o),
(454,-149,o),
(348,-149,cs),
(283,-149,o),
(235,-114,o),
(235,-46,cs),
(235,9,o),
(266,52,o),
(315,89,c),
(193,263,l),
(83,199,o),
(40,88,o),
(40,9,cs),
(40,-171,o),
(190,-249,o),
(361,-249,cs)
);
}
);
width = 870;
}
);
},
{
glyphname = "kaf-ar";
kernRight = Alef_1;
lastChange = "2022-08-23 06:31:59 +0000";
layers = (
{
anchors = (
{
name = bottom;
pos = (472,-107);
},
{
name = top;
pos = (634,794);
}
);
layerId = m002;
shapes = (
{
closed = 1;
nodes = (
(700,-7,o),
(770,128,o),
(770,339,cs),
(770,462,o),
(759,610,o),
(744,734,c),
(634,717,l),
(666,557,o),
(698,376,o),
(694,237,cs),
(691,123,o),
(620,50,o),
(491,50,cs),
(378,50,o),
(215,95,o),
(145,280,c),
(50,220,l),
(161,37,o),
(341,-7,o),
(465,-7,cs)
);
},
{
closed = 1;
nodes = (
(522,204,o),
(560,277,o),
(560,313,cs),
(560,398,o),
(418,329,o),
(418,366,cs),
(418,389,o),
(460,411,o),
(516,397,c),
(523,449,l),
(431,459,o),
(380,403,o),
(380,354,cs),
(380,274,o),
(483,298,o),
(525,305,c),
(522,278,o),
(454,251,o),
(404,253,c),
(403,247,l),
(444,204,l)
);
}
);
width = 850;
},
{
anchors = (
{
name = bottom;
pos = (502,-107);
},
{
name = top;
pos = (534,794);
}
);
layerId = m003;
shapes = (
{
closed = 1;
nodes = (
(768,-7,o),
(830,172,o),
(830,397,cs),
(830,506,o),
(821,624,o),
(812,744,c),
(536,702,l),
(597,503,o),
(651,319,o),
(651,217,cs),
(651,120,o),
(570,100,o),
(505,100,cs),
(407,100,o),
(297,172,o),
(250,346,c),
(30,210,l),
(148,27,o),
(341,-7,o),
(502,-7,cs)
);
},
{
closed = 1;
nodes = (
(526,199,o),
(560,264,o),
(560,309,cs),
(560,403,o),
(426,333,o),
(426,373,cs),
(426,385,o),
(460,406,o),
(516,386,c),
(523,449,l),
(431,459,o),
(380,403,o),
(380,354,cs),
(380,271,o),
(482,296,o),
(525,299,c),
(523,276,o),
(453,268,o),
(402,270,c),
(399,260,l),
(459,199,l)
);
}
);
width = 870;
}
);
unicode = 1603;
},
{
glyphname = "kaf-ar.fina";
lastChange = "2022-09-17 02:58:35 +0000";
layers = (
{
anchors = (
{
name = bottom;
pos = (472,-107);
},
{
name = top;
pos = (634,794);
}
);
layerId = m002;
shapes = (
{
closed = 1;
nodes = (
(603,-7,o),
(683,40,o),
(725,121,c),
(766,202,l),
(766,365,o),
(762,533,o),
(744,734,c),
(634,717,l),
(667,557,o),
(695,385,o),
(695,247,cs),
(695,123,o),
(620,50,o),
(491,50,cs),
(378,50,o),
(215,95,o),
(145,280,c),
(50,220,l),
(161,37,o),
(341,-7,o),
(465,-7,cs)
);
},
{
closed = 1;
nodes = (
(522,204,o),
(560,277,o),
(560,313,cs),
(560,398,o),
(418,329,o),
(418,366,cs),
(418,389,o),
(460,411,o),
(516,397,c),
(523,449,l),
(431,459,o),
(380,403,o),
(380,354,cs),
(380,274,o),
(483,298,o),
(525,305,c),
(522,278,o),
(454,251,o),
(404,253,c),
(403,247,l),
(444,204,l)
);
},
{
closed = 1;
nodes = (
(890,25,l),
(870,50,l),
(807,50,o),
(766,101,o),
(766,202,c),
(703,202,l),
(703,50,o),
(788,0,o),
(870,0,c)
);
}
);
width = 870;
},
{
anchors = (
{
name = bottom;
pos = (502,-107);
},
{
name = top;
pos = (534,794);
}
);
layerId = m003;
shapes = (
{
closed = 1;
nodes = (
(634,-7,o),
(721,41,o),
(769,113,c),
(818,202,l),
(818,327,o),
(834,501,o),
(816,744,c),
(540,702,l),
(601,503,o),
(655,319,o),
(655,217,cs),
(655,120,o),
(570,100,o),
(505,100,cs),
(407,100,o),
(297,172,o),
(250,346,c),
(30,210,l),
(148,27,o),
(341,-7,o),
(502,-7,cs)
);
},
{
closed = 1;
nodes = (
(526,199,o),
(560,264,o),
(560,309,cs),
(560,403,o),
(426,333,o),
(426,373,cs),
(426,385,o),
(460,406,o),
(516,386,c),
(523,449,l),
(431,459,o),
(380,403,o),
(380,354,cs),
(380,271,o),
(482,296,o),
(525,299,c),
(523,276,o),
(453,268,o),
(402,270,c),
(399,260,l),
(459,199,l)
);
},
{
closed = 1;
nodes = (
(910,50,l),
(890,100,l),
(850,100,o),
(818,121,o),
(818,202,c),
(706,202,l),
(706,68,o),
(769,0,o),
(890,0,c)
);
}
);
width = 890;
}
);
},
{
glyphname = "kaf-ar.medi";
lastChange = "2022-09-17 02:58:52 +0000";
layers = (
{
anchors = (
{
name = bottom;
pos = (306,-100);
},
{
name = top;
pos = (310,780);
}
);
layerId = m002;
shapes = (
{
closed = 1;
nodes = (
(248,440,o),
(337,546,o),
(442,704,c),
(349,761,l),
(284,625,o),
(159,440,o),
(60,336,c),
(90,292,l)
);
},
{
closed = 1;
nodes = (
(77,0,o),
(315,8,o),
(393,128,c),
(419,202,l),
(419,346,o),
(285,419,o),
(119,350,c),
(60,336,l),
(97,271,l),
(221,350,o),
(314,307,o),
(314,218,cs),
(314,98,o),
(147,50,o),
(0,50,c),
(0,0,l)
);
},
{
closed = 1;
nodes = (
(540,25,l),
(520,50,l),
(461,50,o),
(419,101,o),
(419,202,c),
(356,202,l),
(356,50,o),
(442,0,o),
(520,0,c)
);
}
);
width = 520;
},
{
anchors = (
{
name = bottom;
pos = (231,-100);
},
{
name = top;
pos = (235,800);
}
);
layerId = m003;
shapes = (
{
closed = 1;
nodes = (
(241,386,o),
(388,499,o),
(490,657,c),
(285,781,l),
(231,645,o),
(120,440,o),
(30,336,c),
(55,305,l)
);
},
{
closed = 1;
nodes = (
(84,0,o),
(305,0,o),
(405,97,c),
(455,202,l),
(455,336,o),
(307,420,o),
(149,357,c),
(30,336,l),
(89,232,l),
(144,291,o),
(225,276,o),
(225,213,cs),
(225,114,o),
(30,100,o),
(0,100,c),
(0,0,l)
);
},
{
closed = 1;
nodes = (
(540,50,l),
(520,100,l),
(488,100,o),
(455,125,o),
(455,202,c),
(343,202,l),
(343,68,o),
(406,0,o),
(520,0,c)
);
}
);
width = 520;
}
);
},
{
glyphname = "kaf-ar.medi.calt";
lastChange = "2022-09-17 03:00:22 +0000";
layers = (
{
anchors = (
{
name = bottom;
pos = (159,-100);
},
{
name = top;
pos = (163,780);
}
);
layerId = m002;
shapes = (
{
closed = 1;
nodes = (
(98,440,o),
(187,546,o),
(292,704,c),
(199,761,l),
(134,625,o),
(9,440,o),
(-90,336,c),
(-60,292,l)
);
},
{
closed = 1;
nodes = (
(59,0,o),
(192,23,o),
(247,119,c),
(272,202,l),
(272,346,o),
(136,419,o),
(-30,350,c),
(-90,336,l),
(-52,271,l),
(72,350,o),
(167,307,o),
(167,218,cs),
(167,89,o),
(55,50,o),
(0,50,c),
(0,0,l)
);
},
{
closed = 1;
nodes = (
(390,25,l),
(370,50,l),
(314,50,o),
(272,101,o),
(272,202,c),
(209,202,l),
(209,50,o),
(295,0,o),
(370,0,c)
);
}
);
width = 370;
},
{
anchors = (
{
name = bottom;
pos = (111,-100);
},
{
name = top;
pos = (115,800);
}
);
layerId = m003;
shapes = (
{
closed = 1;
nodes = (
(111,386,o),
(258,499,o),
(360,657,c),
(155,781,l),
(101,645,o),
(-10,440,o),
(-100,336,c),
(-75,305,l)
);
},
{
closed = 1;
nodes = (
(30,0,o),
(195,0,o),
(277,89,c),
(325,202,l),
(325,336,o),
(177,420,o),
(19,357,c),
(-100,336,l),
(-41,232,l),
(19,296,o),
(95,270,o),
(95,201,cs),
(95,126,o),
(37,100,o),
(0,100,c),
(0,0,l)
);
},
{
closed = 1;
nodes = (
(410,50,l),
(390,100,l),
(358,100,o),
(325,125,o),
(325,202,c),
(213,202,l),
(213,68,o),
(276,0,o),
(390,0,c)
);
}
);
width = 390;
}
);
},
{
glyphname = "kaf-ar.init";
kernRight = "behDotless-init_1";
lastChange = "2022-08-23 06:31:59 +0000";
layers = (
{
anchors = (
{
name = bottom;
pos = (306,-100);
},
{
name = top;
pos = (310,780);
}
);
layerId = m002;
shapes = (
{
closed = 1;
nodes = (
(248,440,o),
(337,546,o),
(442,704,c),
(349,761,l),
(284,625,o),
(159,440,o),
(60,336,c),
(90,292,l)
);
},
{
closed = 1;
nodes = (
(93,0,o),
(419,11,o),
(419,218,cs),
(419,346,o),
(285,419,o),
(119,350,c),
(60,336,l),
(97,271,l),
(221,350,o),
(314,307,o),
(314,218,cs),
(314,98,o),
(147,50,o),
(0,50,c),
(0,0,l)
);
}
);
width = 479;
},
{
anchors = (
{
name = bottom;
pos = (231,-100);
},
{
name = top;
pos = (235,800);
}
);
layerId = m003;
shapes = (
{
closed = 1;
nodes = (
(241,386,o),
(388,499,o),
(490,657,c),
(285,781,l),
(231,645,o),
(120,440,o),
(30,336,c),
(55,305,l)
);
},
{
closed = 1;
nodes = (
(110,0,o),
(455,0,o),
(455,218,cs),
(455,336,o),
(307,420,o),
(149,357,c),
(30,336,l),
(89,232,l),
(144,291,o),
(225,276,o),
(225,213,cs),
(225,114,o),
(30,100,o),
(0,100,c),
(0,0,l)
);
}
);
width = 500;
}
);
},
{
glyphname = "kaf-ar.init.calt";
kernRight = "behDotless-init_1";
lastChange = "2022-08-23 06:31:59 +0000";
layers = (
{
anchors = (
{
name = bottom;
pos = (159,-100);
},
{
name = top;
pos = (163,780);
}
);
layerId = m002;
shapes = (
{
closed = 1;
nodes = (
(98,440,o),
(187,546,o),
(292,704,c),
(199,761,l),
(134,625,o),
(9,440,o),
(-90,336,c),
(-60,292,l)
);
},
{
closed = 1;
nodes = (
(75,0,o),
(272,37,o),
(272,218,cs),
(272,346,o),
(136,419,o),
(-30,350,c),
(-89,336,l),
(-52,271,l),
(72,350,o),
(167,307,o),
(167,218,cs),
(167,89,o),
(55,50,o),
(0,50,c),
(0,0,l)
);
}
);
width = 332;
},
{
anchors = (
{
name = bottom;
pos = (111,-100);
},
{
name = top;
pos = (115,800);
}
);
layerId = m003;
shapes = (
{
closed = 1;
nodes = (
(111,386,o),
(258,499,o),
(360,657,c),
(155,781,l),
(101,645,o),
(-10,440,o),
(-100,336,c),
(-75,305,l)
);
},
{
closed = 1;
nodes = (
(40,0,o),
(325,0,o),
(325,218,cs),
(325,336,o),
(177,420,o),
(19,357,c),
(-100,336,l),
(-41,232,l),
(19,296,o),
(95,270,o),
(95,201,cs),
(95,126,o),
(37,100,o),
(0,100,c),
(0,0,l)
);
}
);
width = 360;
}
);
},
{
glyphname = "keheh-ar";
kernRight = "beh-isol_1";
lastChange = "2022-08-23 06:31:59 +0000";
layers = (
{
anchors = (
{
name = bottom;
pos = (529,-100);
},
{
name = top;
pos = (533,780);
}
);
layerId = m002;
shapes = (
{
closed = 1;
nodes = (
(552,-7,o),
(752,37,o),
(752,218,cs),
(752,346,o),
(616,419,o),
(450,350,c),
(391,336,l),
(428,271,l),
(552,350,o),
(647,297,o),
(647,208,cs),
(647,89,o),
(537,50,o),
(453,50,cs),
(368,50,o),
(205,95,o),
(135,280,c),
(40,220,l),
(151,37,o),
(331,-7,o),
(450,-7,cs)
);
},
{
closed = 1;
nodes = (
(578,440,o),
(667,546,o),
(772,704,c),
(679,761,l),
(614,625,o),
(489,440,o),
(390,336,c),
(420,292,l)
);
}
);
width = 812;
},
{
anchors = (
{
name = bottom;
pos = (563,-100);
},
{
name = top;
pos = (567,800);
}
);
layerId = m003;
shapes = (
{
closed = 1;
nodes = (
(609,-7,o),
(833,27,o),
(833,218,cs),
(833,336,o),
(685,420,o),
(527,357,c),
(408,336,l),
(467,232,l),
(532,301,o),
(603,262,o),
(603,198,cs),
(603,130,o),
(542,100,o),
(486,100,cs),
(387,100,o),
(282,177,o),
(236,350,c),
(20,220,l),
(138,37,o),
(321,-7,o),
(481,-7,cs)
);
},
{
closed = 1;
nodes = (
(619,386,o),
(766,499,o),
(868,657,c),
(663,781,l),
(609,645,o),
(498,440,o),
(408,336,c),
(433,305,l)
);
}
);
width = 868;
}
);
unicode = 1705;
},
{
glyphname = "keheh-ar.fina";
lastChange = "2022-09-17 03:01:31 +0000";
layers = (
{
anchors = (
{
name = bottom;
pos = (529,-100);
},
{
name = top;
pos = (533,780);
}
);
layerId = m002;
shapes = (
{
closed = 1;
nodes = (
(524,-7,o),
(660,19,o),
(719,113,c),
(748,202,l),
(748,346,o),
(612,419,o),
(446,350,c),
(387,336,l),
(424,271,l),
(548,350,o),
(643,297,o),
(643,208,cs),
(643,89,o),
(533,50,o),
(449,50,cs),
(364,50,o),
(205,95,o),
(135,280,c),
(40,220,l),
(151,37,o),
(327,-7,o),
(446,-7,cs)
);
},
{
closed = 1;
nodes = (
(870,25,l),
(850,50,l),
(791,50,o),
(748,101,o),
(748,202,c),
(685,202,l),
(685,50,o),
(772,0,o),
(850,0,c)
);
},
{
closed = 1;
nodes = (
(575,440,o),
(664,546,o),
(769,704,c),
(676,761,l),
(611,625,o),
(486,440,o),
(387,336,c),
(417,292,l)
);
}
);
width = 850;
},
{
anchors = (
{
name = bottom;
pos = (563,-100);
},
{
name = top;
pos = (567,800);
}
);
layerId = m003;
shapes = (
{
closed = 1;
nodes = (
(574,-7,o),
(712,10,o),
(786,88,c),
(835,202,l),
(835,336,o),
(687,420,o),
(529,357,c),
(410,336,l),
(469,232,l),
(534,301,o),
(605,262,o),
(605,198,cs),
(605,130,o),
(544,100,o),
(488,100,cs),
(389,100,o),
(282,177,o),
(236,350,c),
(20,220,l),
(138,37,o),
(323,-7,o),
(483,-7,cs)
);
},
{
closed = 1;
nodes = (
(920,50,l),
(900,100,l),
(868,100,o),
(835,125,o),
(835,202,c),
(723,202,l),
(723,68,o),
(786,0,o),
(900,0,c)
);
},
{
closed = 1;
nodes = (
(621,386,o),
(768,499,o),
(870,657,c),
(665,781,l),
(611,645,o),
(500,440,o),
(410,336,c),
(435,305,l)
);
}
);
width = 900;
}
);
},
{
glyphname = "lam-ar";
kernRight = Alef_1;
lastChange = "2022-08-23 06:31:59 +0000";
layers = (
{
anchors = (
{
name = bottom;
pos = (295,-297);
},
{
name = top;
pos = (355,750);
}
);
layerId = m002;
shapes = (
{
closed = 1;
nodes = (
(484,-247,o),
(590,-86,o),
(590,161,cs),
(590,361,o),
(588,522,o),
(566,733,c),
(456,716,l),
(488,536,o),
(515,232,o),
(505,75,cs),
(495,-74,o),
(424,-192,o),
(308,-192,cs),
(210,-192,o),
(136,-139,o),
(136,-26,cs),
(136,59,o),
(186,135,o),
(264,184,c),
(213,262,l),
(120,198,o),
(60,108,o),
(60,-6,cs),
(60,-136,o),
(148,-247,o),
(298,-247,cs)
);
}
);
width = 670;
},
{
anchors = (
{
name = bottom;
pos = (296,-296);
},
{
name = top;
pos = (366,750);
}
);
layerId = m003;
shapes = (
{
closed = 1;
nodes = (
(559,-246,o),
(650,18,o),
(650,265,cs),
(650,403,o),
(643,581,o),
(631,744,c),
(355,702,l),
(416,503,o),
(459,247,o),
(459,93,cs),
(459,-33,o),
(431,-151,o),
(332,-151,cs),
(274,-151,o),
(235,-102,o),
(235,-47,cs),
(235,8,o),
(266,71,o),
(315,108,c),
(193,283,l),
(83,219,o),
(30,108,o),
(30,4,cs),
(30,-161,o),
(158,-246,o),
(296,-246,cs)
);
}
);
width = 690;
}
);
unicode = 1604;
},
{
glyphname = "lam-ar.fina";
kernRight = Alef_1;
lastChange = "2022-09-17 03:02:07 +0000";
layers = (
{
anchors = (
{
name = bottom;
pos = (295,-297);
},
{
name = top;
pos = (355,750);
}
);
layerId = m002;
shapes = (
{
closed = 1;
nodes = (
(484,-247,o),
(590,-86,o),
(590,202,cs),
(590,361,o),
(588,522,o),
(566,733,c),
(456,716,l),
(488,536,o),
(515,232,o),
(505,75,cs),
(495,-74,o),
(424,-192,o),
(308,-192,cs),
(210,-192,o),
(136,-139,o),
(136,-26,cs),
(136,59,o),
(186,135,o),
(264,184,c),
(213,262,l),
(120,198,o),
(60,108,o),
(60,-6,cs),
(60,-136,o),
(148,-247,o),
(298,-247,cs)
);
},
{
closed = 1;
nodes = (
(730,25,l),
(710,50,l),
(639,50,o),
(590,101,o),
(590,202,c),
(530,202,l),
(530,50,o),
(618,0,o),
(710,0,c)
);
}
);
width = 710;
},
{
anchors = (
{
name = bottom;
pos = (296,-296);
},
{
name = top;
pos = (366,750);
}
);
layerId = m003;
shapes = (
{
closed = 1;
nodes = (
(559,-246,o),
(653,11,o),
(653,247,cs),
(653,396,o),
(643,581,o),
(631,744,c),
(355,702,l),
(416,503,o),
(459,247,o),
(459,93,cs),
(459,-33,o),
(431,-151,o),
(332,-151,cs),
(274,-151,o),
(235,-102,o),
(235,-47,cs),
(235,8,o),
(266,71,o),
(315,108,c),
(193,283,l),
(83,219,o),
(30,108,o),
(30,4,cs),
(30,-161,o),
(158,-246,o),
(296,-246,cs)
);
},
{
closed = 1;
nodes = (
(750,50,l),
(730,100,l),
(670,100,o),
(653,157,o),
(653,247,c),
(536,216,l),
(536,77,o),
(608,0,o),
(730,0,c)
);
}
);
width = 730;
}
);
},
{
glyphname = "lam-ar.medi";
kernRight = Alef_1;
lastChange = "2022-09-17 03:02:23 +0000";
layers = (
{
anchors = (
{
name = bottom;
pos = (168,-100);
},
{
name = top;
pos = (168,750);
}
);
layerId = m002;
shapes = (
{
closed = 1;
nodes = (
(118,0,o),
(207,74,o),
(207,172,c),
(231,202,l),
(233,385,o),
(231,569,o),
(210,723,c),
(100,706,l),
(128,575,o),
(147,392,o),
(147,275,cs),
(147,118,o),
(100,50,o),
(0,50,c),
(0,0,l)
);
},
{
closed = 1;
nodes = (
(370,25,l),
(350,50,l),
(283,50,o),
(231,101,o),
(231,202,c),
(172,202,l),
(172,50,o),
(258,0,o),
(350,0,c)
);
}
);
width = 350;
},
{
anchors = (
{
name = bottom;
pos = (181,-100);
},
{
name = top;
pos = (181,760);
}
);
layerId = m003;
shapes = (
{
closed = 1;
nodes = (
(136,0,o),
(213,68,o),
(244,153,c),
(301,247,l),
(301,400,o),
(313,556,o),
(296,741,c),
(45,690,l),
(80,545,o),
(107,337,o),
(107,249,cs),
(107,140,o),
(61,100,o),
(0,100,c),
(0,0,l)
);
},
{
closed = 1;
nodes = (
(400,50,l),
(380,100,l),
(320,100,o),
(301,157,o),
(301,247,c),
(185,216,l),
(185,53,o),
(258,0,o),
(380,0,c)
);
}
);
width = 380;
}
);
},
{
glyphname = "lam-ar.init";
kernRight = Alef_1;
lastChange = "2022-08-23 06:31:59 +0000";
layers = (
{
anchors = (
{
name = bottom;
pos = (168,-100);
},
{
name = top;
pos = (168,750);
}
);
layerId = m002;
shapes = (
{
closed = 1;
nodes = (
(174,0,o),
(226,148,o),
(232,269,cs),
(239,400,o),
(230,533,o),
(210,723,c),
(100,706,l),
(128,575,o),
(153,392,o),
(152,260,cs),
(150,118,o),
(100,50,o),
(0,50,c),
(0,0,l)
);
}
);
width = 314;
},
{
anchors = (
{
name = bottom;
pos = (171,-100);
},
{
name = top;
pos = (171,750);
}
);
layerId = m003;
shapes = (
{
closed = 1;
nodes = (
(186,0,o),
(255,113,o),
(282,266,cs),
(299,361,o),
(305,546,o),
(298,741,c),
(30,690,l),
(66,546,o),
(83,382,o),
(83,259,cs),
(83,162,o),
(57,100,o),
(0,100,c),
(0,0,l)
);
}
);
width = 341;
}
);
},
{
glyphname = "meem-ar";
lastChange = "2022-08-23 06:31:59 +0000";
layers = (
{
anchors = (
{
name = bottom;
pos = (402,-105);
},
{
name = top;
pos = (361,550);
}
);
layerId = m002;
shapes = (
{
closed = 1;
nodes = (
(206,-365,l),
(164,-244,o),
(147,-148,o),
(147,-93,cs),
(147,-42,o),
(162,11,o),
(249,11,cs),
(333,11,o),
(380,-9,o),
(452,-9,cs),
(519,-9,o),
(590,15,o),
(590,131,cs),
(590,268,o),
(500,400,o),
(358,400,cs),
(198,400,o),
(146,157,o),
(146,45,c),
(216,63,l),
(216,147,o),
(262,320,o),
(358,320,cs),
(429,320,o),
(486,237,o),
(486,139,cs),
(486,31,o),
(332,72,o),
(194,72,cs),
(117,72,o),
(65,-10,o),
(65,-112,cs),
(65,-192,o),
(76,-277,o),
(102,-400,c)
);
}
);
width = 650;
},
{
anchors = (
{
name = bottom;
pos = (462,-105);
},
{
name = top;
pos = (352,550);
}
);
layerId = m003;
shapes = (
{
closed = 1;
nodes = (
(317,-314,l),
(285,-255,o),
(241,-132,o),
(241,-65,cs),
(241,-26,o),
(255,0,o),
(293,0,cs),
(342,0,o),
(418,-29,o),
(479,-29,cs),
(554,-29,o),
(630,12,o),
(630,124,cs),
(630,283,o),
(501,420,o),
(351,420,cs),
(180,420,o),
(136,192,o),
(136,57,c),
(248,85,l),
(248,147,o),
(248,219,o),
(307,219,cs),
(341,219,o),
(380,186,o),
(380,148,cs),
(380,82,o),
(271,111,o),
(223,111,cs),
(80,111,o),
(40,-8,o),
(40,-149,cs),
(40,-225,o),
(52,-326,o),
(66,-400,c)
);
}
);
width = 670;
}
);
unicode = 1605;
},
{
glyphname = "meem-ar.fina";
lastChange = "2022-09-17 03:02:59 +0000";
layers = (
{
anchors = (
{
name = bottom;
pos = (402,-105);
},
{
name = top;
pos = (361,550);
}
);
layerId = m002;
shapes = (
{
closed = 1;
nodes = (
(206,-365,l),
(164,-244,o),
(147,-148,o),
(147,-93,cs),
(147,-42,o),
(162,11,o),
(249,11,cs),
(333,11,o),
(406,-9,o),
(452,-9,cs),
(512,-9,o),
(590,25,o),
(590,141,cs),
(590,154,o),
(589,166,o),
(587,178,cs),
(573,291,o),
(477,400,o),
(358,400,cs),
(198,400,o),
(146,157,o),
(146,45,c),
(216,63,l),
(216,147,o),
(262,320,o),
(358,320,cs),
(429,320,o),
(485,241,o),
(485,143,cs),
(485,35,o),
(332,72,o),
(194,72,cs),
(117,72,o),
(65,-10,o),
(65,-112,cs),
(65,-192,o),
(76,-277,o),
(102,-400,c)
);
},
{
closed = 1;
nodes = (
(700,25,l),
(680,50,l),
(629,50,o),
(599,89,o),
(587,178,c),
(521,202,l),
(521,50,o),
(605,0,o),
(680,0,c)
);
}
);
width = 680;
},
{
anchors = (
{
name = bottom;
pos = (462,-105);
},
{
name = top;
pos = (352,550);
}
);
layerId = m003;
shapes = (
{
closed = 1;
nodes = (
(317,-314,l),
(285,-255,o),
(241,-132,o),
(241,-65,cs),
(241,-26,o),
(255,0,o),
(293,0,cs),
(342,0,o),
(418,-29,o),
(479,-29,cs),
(554,-29,o),
(630,12,o),
(630,124,cs),
(630,142,o),
(628,160,o),
(625,177,cs),
(600,313,o),
(484,420,o),
(351,420,cs),
(180,420,o),
(125,190,o),
(125,55,c),
(248,85,l),
(248,147,o),
(248,239,o),
(307,239,cs),
(341,239,o),
(380,186,o),
(380,148,cs),
(380,82,o),
(271,111,o),
(223,111,cs),
(80,111,o),
(40,-8,o),
(40,-149,cs),
(40,-225,o),
(52,-326,o),
(66,-400,c)
);
},
{
closed = 1;
nodes = (
(710,50,l),
(690,100,l),
(661,100,o),
(635,124,o),
(625,177,c),
(513,202,l),
(513,68,o),
(596,0,o),
(690,0,c)
);
}
);
width = 690;
}
);
},
{
glyphname = "meem-ar.medi";
lastChange = "2022-09-17 03:03:16 +0000";
layers = (
{
anchors = (
{
name = bottom;
pos = (302,-105);
},
{
name = top;
pos = (302,550);
}
);
layerId = m002;
shapes = (
{
closed = 1;
nodes = (
(425,-9,o),
(510,31,o),
(510,141,cs),
(510,153,o),
(509,166,o),
(507,178,cs),
(493,291,o),
(399,400,o),
(284,400,cs),
(187,400,o),
(135,311,o),
(108,215,cs),
(90,157,o),
(68,50,o),
(0,50,c),
(0,0,l),
(80,0,o),
(115,44,o),
(137,90,cs),
(157,133,o),
(191,320,o),
(287,320,cs),
(345,320,o),
(409,241,o),
(409,143,cs),
(409,90,o),
(371,68,o),
(319,68,cs),
(266,68,o),
(205,91,o),
(133,123,c),
(114,73,l),
(224,13,o),
(292,-9,o),
(363,-9,cs)
);
},
{
closed = 1;
nodes = (
(620,25,l),
(600,50,l),
(549,50,o),
(518,89,o),
(507,178,c),
(441,202,l),
(441,50,o),
(525,0,o),
(600,0,c)
);
}
);
width = 600;
},
{
anchors = (
{
name = bottom;
pos = (302,-105);
},
{
name = top;
pos = (302,550);
}
);
layerId = m003;
shapes = (
{
closed = 1;
nodes = (
(464,-29,o),
(540,12,o),
(540,124,cs),
(540,142,o),
(538,160,o),
(536,177,cs),
(513,312,o),
(404,420,o),
(271,420,cs),
(159,420,o),
(104,329,o),
(78,227,cs),
(62,162,o),
(54,100,o),
(0,100,c),
(0,0,l),
(70,0,o),
(131,21,o),
(153,97,cs),
(169,152,o),
(171,239,o),
(227,239,cs),
(261,239,o),
(300,186,o),
(300,148,cs),
(300,118,o),
(279,109,o),
(252,109,cs),
(218,109,o),
(175,124,o),
(147,134,c),
(104,55,l),
(164,21,o),
(266,-29,o),
(389,-29,cs)
);
},
{
closed = 1;
nodes = (
(620,50,l),
(600,100,l),
(571,100,o),
(545,124,o),
(536,177,c),
(424,202,l),
(424,68,o),
(506,0,o),
(600,0,c)
);
}
);
width = 600;
}
);
},
{
glyphname = "meem-ar.init";
lastChange = "2022-08-23 06:31:59 +0000";
layers = (
{
anchors = (
{
name = bottom;
pos = (302,-105);
},
{
name = top;
pos = (302,550);
}
);
layerId = m002;
shapes = (
{
closed = 1;
nodes = (
(437,-9,o),
(524,15,o),
(524,141,cs),
(524,258,o),
(424,400,o),
(292,400,cs),
(197,400,o),
(140,315,o),
(110,222,cs),
(90,157,o),
(68,50,o),
(0,50,c),
(0,0,l),
(80,0,o),
(114,43,o),
(133,90,cs),
(166,170,o),
(205,320,o),
(292,320,cs),
(363,320,o),
(419,241,o),
(419,143,cs),
(419,86,o),
(383,67,o),
(324,67,cs),
(265,67,o),
(186,94,o),
(126,121,c),
(100,71,l),
(193,28,o),
(293,-9,o),
(377,-9,cs)
);
}
);
width = 584;
},
{
anchors = (
{
name = bottom;
pos = (302,-105);
},
{
name = top;
pos = (302,550);
}
);
layerId = m003;
shapes = (
{
closed = 1;
nodes = (
(464,-29,o),
(540,12,o),
(540,124,cs),
(540,283,o),
(421,420,o),
(271,420,cs),
(159,420,o),
(104,329,o),
(78,227,cs),
(62,162,o),
(54,100,o),
(0,100,c),
(0,0,l),
(70,0,o),
(131,21,o),
(153,97,cs),
(169,152,o),
(171,239,o),
(227,239,cs),
(261,239,o),
(300,186,o),
(300,148,cs),
(300,118,o),
(279,109,o),
(252,109,cs),
(218,109,o),
(175,124,o),
(147,134,c),
(104,55,l),
(164,21,o),
(266,-29,o),
(389,-29,cs)
);
}
);
width = 580;
}
);
},
{
glyphname = "noonghunna-ar";
kernRight = "Noon-isol_1";
lastChange = "2022-08-23 06:31:59 +0000";
layers = (
{
anchors = (
{
name = bottom;
pos = (306,-297);
},
{
name = top;
pos = (306,550);
}
);
layerId = m002;
shapes = (
{
closed = 1;
nodes = (
(596,-247,o),
(633,60,o),
(547,342,c),
(437,326,l),
(537,71,o),
(528,-192,o),
(315,-192,cs),
(220,-192,o),
(136,-139,o),
(136,-26,cs),
(136,59,o),
(186,135,o),
(264,184,c),
(213,262,l),
(120,198,o),
(60,108,o),
(60,-6,cs),
(60,-136,o),
(158,-247,o),
(305,-247,cs)
);
}
);
width = 648;
},
{
anchors = (
{
name = bottom;
pos = (336,-297);
},
{
name = top;
pos = (336,550);
}
);
layerId = m003;
shapes = (
{
closed = 1;
nodes = (
(634,-246,o),
(717,112,o),
(634,355,c),
(371,316,l),
(455,116,o),
(500,-151,o),
(332,-151,cs),
(274,-151,o),
(235,-102,o),
(235,-47,cs),
(235,8,o),
(266,71,o),
(315,108,c),
(193,283,l),
(83,219,o),
(30,108,o),
(30,4,cs),
(30,-161,o),
(158,-246,o),
(296,-246,cs)
);
}
);
width = 694;
}
);
unicode = 1722;
},
{
glyphname = "noonghunna-ar.fina";
lastChange = "2022-09-17 03:40:47 +0000";
layers = (
{
anchors = (
{
name = bottom;
pos = (306,-297);
},
{
name = top;
pos = (306,550);
}
);
layerId = m002;
shapes = (
{
closed = 1;
nodes = (
(534,-247,o),
(598,-43,o),
(587,178,cs),
(583,253,o),
(576,290,o),
(560,352,c),
(450,336,l),
(540,91,o),
(518,-192,o),
(315,-192,cs),
(220,-192,o),
(136,-139,o),
(136,-26,cs),
(136,59,o),
(186,135,o),
(264,184,c),
(213,262,l),
(120,198,o),
(60,108,o),
(60,-6,cs),
(60,-136,o),
(158,-247,o),
(305,-247,cs)
);
},
{
closed = 1;
nodes = (
(702,25,l),
(682,50,l),
(628,50,o),
(592,96,o),
(587,178,c),
(524,202,l),
(524,50,o),
(600,0,o),
(682,0,c)
);
}
);
width = 682;
},
{
anchors = (
{
name = bottom;
pos = (336,-297);
},
{
name = top;
pos = (336,550);
}
);
layerId = m003;
shapes = (
{
closed = 1;
nodes = (
(551,-246,o),
(660,-34,o),
(664,184,cs),
(665,236,o),
(660,295,o),
(645,355,c),
(382,316,l),
(466,116,o),
(500,-151,o),
(332,-151,cs),
(274,-151,o),
(235,-102,o),
(235,-47,cs),
(235,8,o),
(266,71,o),
(315,108,c),
(193,283,l),
(83,219,o),
(30,108,o),
(30,4,cs),
(30,-161,o),
(158,-246,o),
(296,-246,cs)
);
},
{
closed = 1;
nodes = (
(755,50,l),
(735,100,l),
(695,100,o),
(664,113,o),
(664,184,c),
(560,202,l),
(560,68,o),
(624,0,o),
(735,0,c)
);
}
);
width = 735;
}
);
},
{
glyphname = "heh-ar";
kernRight = "heh-isol_1";
lastChange = "2022-08-23 06:31:59 +0000";
layers = (
{
anchors = (
{
name = bottom;
pos = (242,-100);
},
{
name = top;
pos = (242,550);
}
);
layerId = m002;
shapes = (
{
closed = 1;
nodes = (
(285,-10,o),
(430,33,o),
(430,132,cs),
(430,248,o),
(312,387,o),
(223,457,c),
(143,381,l),
(244,314,o),
(364,230,o),
(364,174,cs),
(364,124,o),
(250,95,o),
(203,95,cs),
(149,95,o),
(124,117,o),
(124,154,cs),
(124,219,o),
(193,304,o),
(263,398,c),
(232,430,l),
(140,313,o),
(50,209,o),
(50,117,cs),
(50,51,o),
(89,-10,o),
(208,-10,cs)
);
}
);
width = 480;
},
{
anchors = (
{
name = bottom;
pos = (242,-100);
},
{
name = top;
pos = (242,550);
}
);
layerId = m003;
shapes = (
{
closed = 1;
nodes = (
(300,-10,o),
(450,44,o),
(450,166,cs),
(450,288,o),
(349,397,o),
(244,501,c),
(102,382,l),
(206,325,o),
(309,280,o),
(309,239,cs),
(309,208,o),
(263,190,o),
(228,190,cs),
(196,190,o),
(177,198,o),
(177,230,cs),
(177,254,o),
(206,324,o),
(248,381,c),
(192,432,l),
(86,319,o),
(30,213,o),
(30,128,cs),
(30,44,o),
(80,-10,o),
(182,-10,cs)
);
}
);
width = 480;
}
);
unicode = 1607;
},
{
glyphname = "heh-ar.fina";
lastChange = "2022-09-17 03:04:02 +0000";
layers = (
{
anchors = (
{
name = bottom;
pos = (292,-100);
},
{
name = top;
pos = (292,550);
}
);
layerId = m002;
shapes = (
{
closed = 1;
nodes = (
(303,29,o),
(363,145,o),
(372,223,c),
(333,235,l),
(333,180,o),
(283,118,o),
(221,118,cs),
(179,118,o),
(150,144,o),
(150,192,cs),
(150,253,o),
(211,366,o),
(366,366,c),
(364,417,l),
(247,417,o),
(60,328,o),
(60,160,cs),
(60,66,o),
(133,29,o),
(190,29,cs)
);
},
{
closed = 1;
nodes = (
(557,25,l),
(537,50,l),
(479,50,o),
(426,75,o),
(426,185,cs),
(426,257,o),
(436,375,o),
(447,450,c),
(337,432,l),
(334,354,o),
(333,309,o),
(333,235,cs),
(333,94,o),
(366,0,o),
(537,0,c)
);
}
);
width = 537;
},
{
anchors = (
{
name = bottom;
pos = (292,-100);
},
{
name = top;
pos = (292,550);
}
);
layerId = m003;
shapes = (
{
closed = 1;
nodes = (
(293,10,o),
(358,131,o),
(358,257,c),
(293,254,l),
(293,211,o),
(262,188,o),
(236,188,cs),
(214,188,o),
(192,200,o),
(192,232,cs),
(192,277,o),
(254,340,o),
(381,340,c),
(381,410,l),
(220,410,o),
(30,336,o),
(30,152,cs),
(30,61,o),
(97,10,o),
(174,10,cs)
);
},
{
closed = 1;
nodes = (
(590,50,l),
(570,100,l),
(514,100,o),
(495,160,o),
(499,237,cs),
(503,316,o),
(515,375,o),
(530,450,c),
(307,432,l),
(298,370,o),
(293,305,o),
(293,254,cs),
(293,90,o),
(354,0,o),
(570,0,c)
);
}
);
width = 570;
}
);
},
{
glyphname = "heh-ar.medi";
lastChange = "2022-09-17 03:04:24 +0000";
layers = (
{
anchors = (
{
name = bottom;
pos = (242,-240);
},
{
name = top;
pos = (242,550);
}
);
layerId = m002;
shapes = (
{
closed = 1;
nodes = (
(368,-190,o),
(427,-148,o),
(427,-62,cs),
(427,13,o),
(380,60,o),
(362,86,c),
(353,140,l),
(253,100,l),
(308,52,o),
(335,-1,o),
(335,-39,cs),
(335,-77,o),
(300,-93,o),
(266,-93,cs),
(180,-93,o),
(107,-7,o),
(107,133,cs),
(107,235,o),
(170,305,o),
(233,305,cs),
(274,305,o),
(296,280,o),
(296,239,cs),
(296,164,o),
(220,50,o),
(0,50,c),
(0,0,l),
(202,0,o),
(370,96,o),
(371,270,cs),
(370,333,o),
(337,410,o),
(242,410,cs),
(135,410,o),
(52,287,o),
(52,133,cs),
(52,-65,o),
(159,-190,o),
(294,-190,cs)
);
},
{
closed = 1;
nodes = (
(490,25,l),
(469,50,l),
(419,50,o),
(380,73,o),
(353,140,c),
(321,118,l),
(321,36,o),
(408,0,o),
(469,0,c)
);
}
);
width = 470;
},
{
anchors = (
{
name = bottom;
pos = (242,-240);
},
{
name = top;
pos = (242,550);
}
);
layerId = m003;
shapes = (
{
closed = 1;
nodes = (
(379,-190,o),
(425,-126,o),
(425,-52,cs),
(425,23,o),
(400,50,o),
(382,76,c),
(375,137,l),
(237,102,l),
(253,72,o),
(270,46,o),
(270,20,cs),
(270,-6,o),
(249,-24,o),
(223,-24,cs),
(177,-24,o),
(140,22,o),
(140,137,cs),
(140,195,o),
(165,237,o),
(201,237,cs),
(225,237,o),
(242,223,o),
(242,197,cs),
(242,137,o),
(127,100,o),
(0,100,c),
(0,0,l),
(202,0,o),
(368,106,o),
(369,280,cs),
(368,343,o),
(335,420,o),
(240,420,cs),
(133,420,o),
(40,297,o),
(40,133,cs),
(40,-65,o),
(151,-190,o),
(292,-190,cs)
);
},
{
closed = 1;
nodes = (
(490,50,l),
(470,100,l),
(418,100,o),
(393,114,o),
(384,151,c),
(297,123,l),
(319,41,o),
(390,0,o),
(470,0,c)
);
}
);
width = 470;
}
);
},
{
glyphname = "heh-ar.medi.salt";
lastChange = "2022-09-17 03:04:46 +0000";
layers = (
{
anchors = (
{
name = bottom;
pos = (242,-318);
},
{
name = top;
pos = (242,550);
}
);
layerId = m002;
shapes = (
{
closed = 1;
nodes = (
(363,-177,l),
(316,-151,l),
(223,-118,o),
(115,-5,o),
(115,133,cs),
(115,235,o),
(182,305,o),
(244,305,cs),
(296,305,o),
(311,265,o),
(311,229,cs),
(311,153,o),
(230,50,o),
(0,50,c),
(0,0,l),
(212,0,o),
(399,81,o),
(399,247,cs),
(399,345,o),
(350,410,o),
(260,410,cs),
(139,410,o),
(60,287,o),
(60,133,cs),
(60,-110,o),
(233,-245,o),
(317,-260,c)
);
},
{
closed = 1;
nodes = (
(363,-177,l),
(345,-95,o),
(366,0,o),
(470,0,c),
(490,25,l),
(470,50,l),
(336,50,o),
(267,-52,o),
(294,-204,c)
);
}
);
width = 470;
},
{
anchors = (
{
name = bottom;
pos = (242,-318);
},
{
name = top;
pos = (242,550);
}
);
layerId = m003;
shapes = (
{
closed = 1;
nodes = (
(378,-135,l),
(321,-61,l),
(247,-41,o),
(150,-10,o),
(150,137,cs),
(150,205,o),
(179,234,o),
(211,234,cs),
(235,234,o),
(250,219,o),
(250,195,cs),
(250,133,o),
(143,100,o),
(0,100,c),
(0,0,l),
(212,0,o),
(422,85,o),
(419,270,cs),
(418,343,o),
(365,420,o),
(263,420,cs),
(136,420,o),
(50,297,o),
(50,133,cs),
(50,-132,o),
(205,-249,o),
(302,-268,c)
);
},
{
closed = 1;
nodes = (
(378,-135,l),
(359,-77,o),
(378,0,o),
(470,0,c),
(490,50,l),
(470,100,l),
(320,100,o),
(231,-22,o),
(273,-155,c)
);
}
);
width = 470;
}
);
},
{
glyphname = "heh-ar.init";
kernRight = "heh-init_1";
lastChange = "2022-08-23 06:31:59 +0000";
layers = (
{
anchors = (
{
name = bottom;
pos = (242,-100);
},
{
name = top;
pos = (242,550);
}
);
layerId = m002;
shapes = (
{
closed = 1;
nodes = (
(429,-10,o),
(490,63,o),
(490,151,cs),
(490,298,o),
(334,400,o),
(145,448,c),
(88,357,l),
(268,324,o),
(407,248,o),
(407,144,cs),
(407,78,o),
(352,50,o),
(301,50,cs),
(206,50,o),
(111,111,o),
(111,210,cs),
(111,264,o),
(138,303,o),
(179,303,cs),
(214,303,o),
(242,273,o),
(242,217,cs),
(242,106,o),
(112,50,o),
(0,50,c),
(0,0,l),
(171,0,o),
(327,81,o),
(327,223,cs),
(327,316,o),
(258,369,o),
(196,369,cs),
(126,369,o),
(57,311,o),
(57,205,cs),
(57,91,o),
(158,-10,o),
(299,-10,cs)
);
}
);
width = 550;
},
{
anchors = (
{
name = bottom;
pos = (242,-100);
},
{
name = top;
pos = (242,550);
}
);
layerId = m003;
shapes = (
{
closed = 1;
nodes = (
(441,-29,o),
(520,31,o),
(520,149,cs),
(520,329,o),
(338,420,o),
(177,487,c),
(42,296,l),
(240,263,o),
(372,225,o),
(372,143,cs),
(372,100,o),
(344,65,o),
(273,65,cs),
(177,65,o),
(118,133,o),
(118,201,cs),
(118,244,o),
(137,266,o),
(162,266,cs),
(187,266,o),
(204,244,o),
(204,205,cs),
(204,118,o),
(95,100,o),
(0,100,c),
(0,0,l),
(173,0,o),
(317,82,o),
(317,195,cs),
(317,277,o),
(259,339,o),
(173,339,cs),
(114,339,o),
(42,291,o),
(42,195,cs),
(42,82,o),
(149,-29,o),
(329,-29,cs)
);
}
);
width = 550;
}
);
},
{
glyphname = "hehgoal-ar.fina";
lastChange = "2022-09-17 03:05:08 +0000";
layers = (
{
anchors = (
{
name = bottom;
pos = (342,-100);
},
{
name = top;
pos = (342,550);
}
);
layerId = m002;
shapes = (
{
closed = 1;
nodes = (
(192,120,o),
(230,305,o),
(319,305,cs),
(408,305,o),
(319,0,o),
(600,0,c),
(620,25,l),
(600,50,l),
(445,51,o),
(503,385,o),
(374,385,cs),
(216,385,o),
(116,175,o),
(40,40,c),
(116,-13,l)
);
}
);
width = 580;
},
{
anchors = (
{
name = bottom;
pos = (342,-100);
},
{
name = top;
pos = (342,550);
}
);
layerId = m003;
shapes = (
{
closed = 1;
nodes = (
(206,93,o),
(203,235,o),
(275,235,cs),
(345,235,o),
(227,0,o),
(600,0,c),
(620,50,l),
(600,100,l),
(475,100,o),
(579,386,o),
(368,386,cs),
(227,386,o),
(126,235,o),
(20,84,c),
(149,-25,l)
);
}
);
width = 600;
}
);
},
{
glyphname = "hehgoal-ar.medi";
lastChange = "2022-09-17 03:05:21 +0000";
layers = (
{
anchors = (
{
name = bottom;
pos = (276,-579);
},
{
name = top;
pos = (222,450);
}
);
layerId = m002;
shapes = (
{
closed = 1;
nodes = (
(363,-177,l),
(316,-151,l),
(252,-128,o),
(135,-47,o),
(135,55,cs),
(135,137,o),
(188,190,o),
(250,266,c),
(165,314,l),
(124,234,o),
(106,154,o),
(78,103,cs),
(59,70,o),
(46,50,o),
(0,50,c),
(0,0,l),
(64,0,o),
(89,26,o),
(109,62,c),
(85,66,l),
(85,-135,o),
(242,-247,o),
(317,-260,c)
);
},
{
closed = 1;
nodes = (
(363,-177,l),
(328,-95,o),
(346,0,o),
(450,0,c),
(470,25,l),
(450,50,l),
(316,50,o),
(252,-52,o),
(294,-204,c)
);
},
{
closed = 1;
nodes = (
(327,-423,l),
(286,-440,o),
(258,-442,o),
(241,-426,cs),
(221,-407,o),
(219,-359,o),
(232,-280,c),
(178,-267,l),
(139,-409,o),
(152,-484,o),
(199,-514,cs),
(234,-537,o),
(288,-533,o),
(353,-510,c)
);
}
);
width = 450;
},
{
anchors = (
{
name = bottom;
pos = (222,-591);
},
{
name = top;
pos = (222,450);
}
);
layerId = m003;
shapes = (
{
closed = 1;
nodes = (
(378,-135,l),
(321,-61,l),
(247,-41,o),
(150,6,o),
(150,81,cs),
(150,145,o),
(194,174,o),
(279,250,c),
(122,341,l),
(87,249,o),
(75,175,o),
(52,135,cs),
(40,112,o),
(29,100,o),
(0,100,c),
(0,0,l),
(62,0,o),
(87,30,o),
(99,66,c),
(53,66,l),
(53,-152,o),
(214,-251,o),
(302,-268,c)
);
},
{
closed = 1;
nodes = (
(378,-135,l),
(359,-77,o),
(358,0,o),
(450,0,c),
(470,50,l),
(450,100,l),
(300,100,o),
(231,-22,o),
(273,-155,c)
);
},
{
closed = 1;
nodes = (
(311,-358,l),
(271,-371,o),
(242,-371,o),
(227,-356,cs),
(213,-342,o),
(211,-317,o),
(221,-279,c),
(157,-253,l),
(112,-388,o),
(119,-479,o),
(169,-518,cs),
(207,-549,o),
(270,-549,o),
(354,-516,c)
);
}
);
width = 450;
}
);
},
{
glyphname = "hehgoal-ar.init";
lastChange = "2022-08-23 06:31:59 +0000";
layers = (
{
anchors = (
{
name = bottom;
pos = (172,-358);
},
{
name = top;
pos = (172,550);
}
);
layerId = m002;
shapes = (
{
ref = "behDotless-ar.init";
},
{
closed = 1;
nodes = (
(223,-202,l),
(182,-219,o),
(154,-221,o),
(137,-205,cs),
(117,-186,o),
(115,-138,o),
(128,-59,c),
(74,-46,l),
(35,-188,o),
(48,-263,o),
(95,-293,cs),
(130,-316,o),
(184,-312,o),
(249,-289,c)
);
}
);
width = 310;
},
{
anchors = (
{
name = bottom;
pos = (172,-364);
},
{
name = top;
pos = (172,550);
}
);
layerId = m003;
shapes = (
{
ref = "behDotless-ar.init";
},
{
closed = 1;
nodes = (
(228,-131,l),
(188,-144,o),
(159,-144,o),
(144,-129,cs),
(130,-115,o),
(128,-90,o),
(138,-52,c),
(74,-26,l),
(29,-161,o),
(36,-252,o),
(86,-291,cs),
(124,-322,o),
(187,-322,o),
(271,-289,c)
);
}
);
width = 350;
}
);
},
{
glyphname = "hehDoachashmee-ar";
kernRight = "heh-init_1";
lastChange = "2022-08-23 06:31:59 +0000";
layers = (
{
anchors = (
{
name = bottom;
pos = (307,-100);
},
{
name = top;
pos = (315,570);
}
);
layerId = m002;
shapes = (
{
closed = 1;
nodes = (
(479,-10,o),
(540,63,o),
(540,151,cs),
(540,298,o),
(384,400,o),
(195,448,c),
(138,357,l),
(318,324,o),
(457,248,o),
(457,144,cs),
(457,78,o),
(402,50,o),
(351,50,cs),
(256,50,o),
(162,111,o),
(162,210,cs),
(162,264,o),
(191,303,o),
(229,303,cs),
(263,303,o),
(302,282,o),
(302,215,cs),
(302,132,o),
(225,44,o),
(47,97,c),
(30,0,l),
(243,-35,o),
(377,81,o),
(377,223,cs),
(377,316,o),
(308,369,o),
(246,369,cs),
(176,369,o),
(107,311,o),
(107,205,cs),
(107,91,o),
(208,-10,o),
(349,-10,cs)
);
}
);
width = 600;
},
{
anchors = (
{
name = bottom;
pos = (307,-100);
},
{
name = top;
pos = (315,570);
}
);
layerId = m003;
shapes = (
{
closed = 1;
nodes = (
(491,-29,o),
(570,31,o),
(570,149,cs),
(570,329,o),
(388,420,o),
(227,487,c),
(92,296,l),
(290,263,o),
(422,225,o),
(422,143,cs),
(422,100,o),
(394,65,o),
(323,65,cs),
(227,65,o),
(162,135,o),
(162,197,cs),
(162,245,o),
(183,268,o),
(212,268,cs),
(235,268,o),
(258,249,o),
(258,199,cs),
(258,107,o),
(157,82,o),
(50,136,c),
(20,-27,l),
(234,-72,o),
(345,80,o),
(345,189,cs),
(345,271,o),
(309,339,o),
(223,339,cs),
(164,339,o),
(92,291,o),
(92,195,cs),
(92,82,o),
(199,-29,o),
(379,-29,cs)
);
}
);
width = 600;
}
);
unicode = 1726;
},
{
glyphname = "hehDoachashmee-ar.fina";
lastChange = "2022-09-17 03:05:53 +0000";
layers = (
{
anchors = (
{
name = bottom;
pos = (320,-240);
},
{
name = top;
pos = (320,550);
}
);
layerId = m002;
shapes = (
{
closed = 1;
nodes = (
(448,-190,o),
(507,-148,o),
(507,-62,cs),
(507,13,o),
(460,60,o),
(442,86,c),
(433,140,l),
(333,100,l),
(388,52,o),
(415,-1,o),
(415,-39,cs),
(415,-77,o),
(380,-93,o),
(346,-93,cs),
(260,-93,o),
(187,-7,o),
(187,133,cs),
(187,235,o),
(250,305,o),
(323,305,cs),
(359,305,o),
(386,280,o),
(386,239,cs),
(386,167,o),
(292,50,o),
(59,96,c),
(40,-4,l),
(281,-39,o),
(446,96,o),
(446,270,cs),
(446,333,o),
(417,410,o),
(322,410,cs),
(215,410,o),
(132,287,o),
(132,133,cs),
(132,-65,o),
(239,-190,o),
(374,-190,cs)
);
},
{
closed = 1;
nodes = (
(570,25,l),
(549,50,l),
(499,50,o),
(460,73,o),
(433,140,c),
(401,118,l),
(401,36,o),
(488,0,o),
(549,0,c)
);
}
);
width = 550;
},
{
anchors = (
{
name = bottom;
pos = (320,-240);
},
{
name = top;
pos = (320,550);
}
);
layerId = m003;
shapes = (
{
closed = 1;
nodes = (
(459,-190,o),
(505,-126,o),
(505,-52,cs),
(505,23,o),
(480,50,o),
(462,76,c),
(455,137,l),
(317,102,l),
(333,72,o),
(350,46,o),
(350,20,cs),
(350,-6,o),
(329,-24,o),
(303,-24,cs),
(257,-24,o),
(220,22,o),
(220,137,cs),
(220,195,o),
(245,237,o),
(281,237,cs),
(305,237,o),
(322,223,o),
(322,197,cs),
(322,115,o),
(145,109,o),
(50,146,c),
(20,-17,l),
(207,-55,o),
(449,81,o),
(449,280,c),
(448,343,o),
(415,420,o),
(320,420,cs),
(213,420,o),
(120,297,o),
(120,143,cs),
(120,-65,o),
(231,-190,o),
(372,-190,cs)
);
},
{
closed = 1;
nodes = (
(570,50,l),
(550,100,l),
(498,100,o),
(473,114,o),
(464,151,c),
(377,123,l),
(399,41,o),
(470,0,o),
(550,0,c)
);
}
);
width = 550;
}
);
},
{
glyphname = "hehDoachashmee-ar.fina.salt";
lastChange = "2022-09-17 03:06:06 +0000";
layers = (
{
anchors = (
{
name = bottom;
pos = (320,-318);
},
{
name = top;
pos = (320,550);
}
);
layerId = m002;
shapes = (
{
closed = 1;
nodes = (
(433,-177,l),
(386,-151,l),
(293,-118,o),
(185,-5,o),
(185,133,cs),
(185,235,o),
(255,305,o),
(327,305,cs),
(379,305,o),
(404,265,o),
(404,229,cs),
(404,157,o),
(302,50,o),
(69,96,c),
(50,-4,l),
(291,-39,o),
(463,73,o),
(464,247,cs),
(464,345,o),
(420,410,o),
(330,410,cs),
(209,410,o),
(130,287,o),
(130,133,cs),
(130,-110,o),
(303,-245,o),
(387,-260,c)
);
},
{
closed = 1;
nodes = (
(433,-177,l),
(415,-95,o),
(436,0,o),
(540,0,c),
(560,25,l),
(540,50,l),
(406,50,o),
(337,-52,o),
(364,-204,c)
);
}
);
width = 540;
},
{
anchors = (
{
name = bottom;
pos = (320,-318);
},
{
name = top;
pos = (320,550);
}
);
layerId = m003;
shapes = (
{
closed = 1;
nodes = (
(448,-135,l),
(391,-61,l),
(317,-41,o),
(220,-10,o),
(220,137,cs),
(220,205,o),
(249,234,o),
(281,234,cs),
(305,234,o),
(327,216,o),
(327,192,cs),
(327,110,o),
(145,109,o),
(50,146,c),
(20,-17,l),
(207,-55,o),
(471,62,o),
(471,261,c),
(470,334,o),
(435,420,o),
(333,420,cs),
(206,420,o),
(120,297,o),
(120,143,cs),
(120,-132,o),
(275,-249,o),
(372,-268,c)
);
},
{
closed = 1;
nodes = (
(448,-135,l),
(429,-77,o),
(448,0,o),
(540,0,c),
(560,50,l),
(540,100,l),
(390,100,o),
(301,-22,o),
(343,-155,c)
);
}
);
width = 540;
}
);
},
{
glyphname = "hehDoachashmee-ar.medi";
lastChange = "2022-09-17 03:06:30 +0000";
layers = (
{
anchors = (
{
name = bottom;
pos = (263,-100);
},
{
name = top;
pos = (266,550);
}
);
layerId = m002;
shapes = (
{
closed = 1;
nodes = (
(429,-10,o),
(490,63,o),
(490,151,cs),
(490,298,o),
(334,400,o),
(145,448,c),
(88,357,l),
(268,324,o),
(407,248,o),
(407,144,cs),
(407,78,o),
(352,50,o),
(301,50,cs),
(206,50,o),
(111,111,o),
(111,210,cs),
(111,264,o),
(138,303,o),
(179,303,cs),
(214,303,o),
(242,273,o),
(242,217,cs),
(242,106,o),
(112,50,o),
(0,50,c),
(0,0,l),
(171,0,o),
(327,81,o),
(327,223,cs),
(327,316,o),
(258,369,o),
(196,369,cs),
(126,369,o),
(57,311,o),
(57,205,cs),
(57,91,o),
(158,-10,o),
(299,-10,cs)
);
},
{
closed = 1;
nodes = (
(610,25,l),
(590,50,l),
(540,50,o),
(490,74,o),
(490,151,c),
(452,202,l),
(422,202,l),
(422,45,o),
(518,0,o),
(590,0,c)
);
}
);
width = 590;
},
{
anchors = (
{
name = bottom;
pos = (263,-100);
},
{
name = top;
pos = (266,550);
}
);
layerId = m003;
shapes = (
{
closed = 1;
nodes = (
(435,-29,o),
(520,31,o),
(520,166,cs),
(520,329,o),
(338,420,o),
(177,487,c),
(42,296,l),
(240,263,o),
(372,225,o),
(372,143,cs),
(372,100,o),
(344,65,o),
(273,65,cs),
(177,65,o),
(118,133,o),
(118,201,cs),
(118,244,o),
(137,266,o),
(163,266,cs),
(188,266,o),
(204,244,o),
(204,205,cs),
(204,118,o),
(95,100,o),
(0,100,c),
(0,0,l),
(173,0,o),
(307,82,o),
(307,195,cs),
(307,277,o),
(259,339,o),
(173,339,cs),
(114,339,o),
(42,291,o),
(42,195,cs),
(42,82,o),
(149,-29,o),
(329,-29,cs)
);
},
{
closed = 1;
nodes = (
(610,50,l),
(590,100,l),
(554,100,o),
(520,107,o),
(520,166,c),
(469,202,l),
(403,202,l),
(403,68,o),
(469,0,o),
(590,0,c)
);
}
);
width = 590;
}
);
},
{
glyphname = "waw-ar";
kernRight = "reh-isol_1";
lastChange = "2022-08-23 06:31:59 +0000";
layers = (
{
anchors = (
{
name = bottom;
pos = (257,-450);
},
{
name = top;
pos = (257,550);
}
);
layerId = m002;
shapes = (
{
closed = 1;
nodes = (
(307,-260,o),
(460,-102,o),
(460,119,cs),
(460,296,o),
(370,399,o),
(260,399,cs),
(141,399,o),
(60,314,o),
(60,205,cs),
(60,84,o),
(174,-3,o),
(392,-3,c),
(405,50,l),
(220,50,o),
(140,121,o),
(140,199,cs),
(140,260,o),
(188,296,o),
(240,296,cs),
(319,296,o),
(405,231,o),
(405,103,cs),
(405,-42,o),
(265,-177,o),
(95,-277,c),
(170,-361,l)
);
}
);
width = 520;
},
{
anchors = (
{
name = bottom;
pos = (247,-450);
},
{
name = top;
pos = (247,550);
}
);
layerId = m003;
shapes = (
{
closed = 1;
nodes = (
(348,-278,o),
(490,-112,o),
(490,119,cs),
(490,296,o),
(386,399,o),
(236,399,cs),
(117,399,o),
(30,317,o),
(30,205,cs),
(30,84,o),
(156,-4,o),
(344,-4,c),
(355,100,l),
(287,100,o),
(212,109,o),
(212,157,cs),
(212,189,o),
(247,209,o),
(278,209,cs),
(312,209,o),
(347,187,o),
(347,139,cs),
(347,-16,o),
(195,-112,o),
(34,-209,c),
(205,-400,l)
);
}
);
width = 520;
}
);
unicode = 1608;
},
{
glyphname = "waw-ar.fina";
lastChange = "2022-09-17 03:07:00 +0000";
layers = (
{
anchors = (
{
name = bottom;
pos = (257,-450);
},
{
name = top;
pos = (257,550);
}
);
layerId = m002;
shapes = (
{
closed = 1;
nodes = (
(450,0,o),
(482,0,o),
(520,0,c),
(540,25,l),
(520,50,l),
(483,50,o),
(450,50,o),
(415,50,c),
(415,0,l)
);
},
{
ref = "waw-ar";
}
);
width = 520;
},
{
anchors = (
{
name = bottom;
pos = (247,-450);
},
{
name = top;
pos = (247,550);
}
);
layerId = m003;
shapes = (
{
closed = 1;
nodes = (
(469,0,o),
(504,1,o),
(540,1,c),
(560,51,l),
(540,101,l),
(504,100,o),
(469,100,o),
(433,100,c),
(433,0,l)
);
},
{
ref = "waw-ar";
}
);
width = 540;
}
);
},
{
glyphname = "alefMaksura-ar";
kernRight = "yeh-isol_1";
lastChange = "2022-08-23 06:31:59 +0000";
layers = (
{
anchors = (
{
name = bottom;
pos = (402,-360);
},
{
name = top;
pos = (402,450);
}
);
layerId = m002;
shapes = (
{
closed = 1;
nodes = (
(600,-310,o),
(696,-176,o),
(696,-55,cs),
(696,104,o),
(462,112,o),
(371,94,c),
(349,-21,l),
(562,22,o),
(636,-35,o),
(636,-86,cs),
(636,-161,o),
(548,-240,o),
(420,-240,cs),
(301,-240,o),
(142,-151,o),
(141,110,c),
(40,72,l),
(62,-177,o),
(225,-310,o),
(408,-310,cs)
);
},
{
closed = 1;
nodes = (
(408,33,l),
(408,212,o),
(532,301,o),
(587,301,cs),
(622,301,o),
(645,280,o),
(645,174,c),
(750,182,l),
(750,282,o),
(725,391,o),
(617,391,cs),
(460,391,o),
(349,202,o),
(349,-21,c)
);
}
);
width = 810;
},
{
anchors = (
{
name = bottom;
pos = (402,-360);
},
{
name = top;
pos = (402,450);
}
);
layerId = m003;
shapes = (
{
closed = 1;
nodes = (
(643,-310,o),
(737,-156,o),
(737,-30,cs),
(737,100,o),
(633,140,o),
(450,140,c),
(352,-60,l),
(508,-36,o),
(637,-44,o),
(637,-91,cs),
(637,-126,o),
(556,-162,o),
(481,-162,cs),
(379,-162,o),
(272,-119,o),
(247,142,c),
(20,52,l),
(46,-197,o),
(247,-310,o),
(411,-310,cs)
);
},
{
closed = 1;
nodes = (
(451,-16,l),
(451,163,o),
(513,232,o),
(543,232,cs),
(575,232,o),
(579,183,o),
(579,168,c),
(800,182,l),
(800,282,o),
(771,411,o),
(644,411,cs),
(437,411,o),
(352,203,o),
(352,-60,c)
);
}
);
width = 840;
}
);
unicode = 1609;
},
{
glyphname = "alefMaksura-ar.fina";
lastChange = "2022-09-17 03:07:35 +0000";
layers = (
{
anchors = (
{
name = bottom;
pos = (410,-360);
},
{
name = top;
pos = (410,300);
}
);
layerId = m002;
shapes = (
{
closed = 1;
nodes = (
(600,-310,o),
(696,-176,o),
(696,-65,cs),
(696,64,o),
(553,57,o),
(421,74,c),
(401,-31,l),
(569,-10,o),
(636,-45,o),
(636,-96,cs),
(636,-161,o),
(548,-240,o),
(420,-240,cs),
(301,-240,o),
(142,-151,o),
(141,110,c),
(40,72,l),
(62,-177,o),
(225,-310,o),
(408,-310,cs)
);
},
{
closed = 1;
nodes = (
(760,25,l),
(740,50,l),
(637,50,o),
(564,84,o),
(421,74,c),
(441,13,l),
(560,34,o),
(686,0,o),
(740,0,c)
);
}
);
width = 740;
},
{
anchors = (
{
name = bottom;
pos = (410,-360);
},
{
name = top;
pos = (410,300);
}
);
layerId = m003;
shapes = (
{
closed = 1;
nodes = (
(643,-310,o),
(737,-156,o),
(737,-30,cs),
(737,100,o),
(626,111,o),
(440,130,c),
(402,-60,l),
(528,-36,o),
(637,-44,o),
(637,-82,cs),
(637,-130,o),
(556,-162,o),
(481,-162,cs),
(379,-162,o),
(272,-119,o),
(247,142,c),
(20,52,l),
(46,-197,o),
(247,-310,o),
(411,-310,cs)
);
},
{
closed = 1;
nodes = (
(780,50,l),
(760,100,l),
(657,100,o),
(578,142,o),
(440,130,c),
(496,22,l),
(588,15,o),
(662,0,o),
(760,0,c)
);
}
);
width = 760;
}
);
},
{
glyphname = "alefMaksura-ar.fina.salt";
lastChange = "2022-08-23 06:31:59 +0000";
layers = (
{
anchors = (
{
name = bottom;
pos = (410,-360);
},
{
name = top;
pos = (410,300);
}
);
layerId = m002;
shapes = (
{
closed = 1;
nodes = (
(600,-310,o),
(696,-176,o),
(696,-65,cs),
(696,64,o),
(560,50,o),
(421,50,c),
(401,-55,l),
(569,-34,o),
(636,-45,o),
(636,-96,cs),
(636,-161,o),
(548,-240,o),
(420,-240,cs),
(301,-240,o),
(142,-151,o),
(141,110,c),
(40,72,l),
(62,-177,o),
(225,-310,o),
(408,-310,cs)
);
}
);
width = 736;
},
{
anchors = (
{
name = bottom;
pos = (410,-360);
},
{
name = top;
pos = (410,300);
}
);
layerId = m003;
shapes = (
{
closed = 1;
nodes = (
(643,-310,o),
(737,-156,o),
(737,-30,cs),
(737,100,o),
(643,100,o),
(434,100,c),
(402,-60,l),
(528,-36,o),
(637,-36,o),
(637,-80,cs),
(637,-121,o),
(556,-162,o),
(481,-162,cs),
(379,-162,o),
(272,-119,o),
(247,142,c),
(20,52,l),
(46,-197,o),
(247,-310,o),
(411,-310,cs)
);
}
);
width = 757;
}
);
},
{
glyphname = "yehVabove-ar.medi";
lastChange = "2022-08-23 06:31:59 +0000";
layers = (
{
anchors = (
{
name = bottom;
pos = (177,-230);
},
{
name = top;
pos = (172,650);
}
);
layerId = m002;
shapes = (
{
closed = 1;
nodes = (
(183,0,o),
(258,123,o),
(240,331,c),
(130,317,l),
(161,139,o),
(113,50,o),
(0,50,c),
(0,0,l)
);
},
{
alignment = -1;
pos = (24,-154);
ref = caron.ar;
},
{
pos = (120,-41);
ref = "twodotshorizontalbelow-ar";
}
);
width = 350;
},
{
anchors = (
{
name = bottom;
pos = (182,-263);
},
{
name = top;
pos = (182,650);
}
);
layerId = m003;
shapes = (
{
closed = 1;
nodes = (
(242,0,o),
(345,83,o),
(320,340,c),
(52,305,l),
(91,173,o),
(65,100,o),
(0,100,c),
(0,0,l)
);
},
{
alignment = -1;
pos = (36,-169);
ref = caron.ar;
},
{
pos = (138,-41);
ref = "twodotshorizontalbelow-ar";
}
);
width = 380;
}
);
},
